<svg xmlns="http://www.w3.org/2000/svg" xmlns:xlink="http://www.w3.org/1999/xlink" width="716" height="195" viewBox="0 0 716 195">
  <defs>
    <clipPath id="clip-path">
      <rect id="descargar-concepto-red-datos-informacion" width="715" height="195" rx="10" transform="translate(1369 1244)" fill="#ffc202"/>
    </clipPath>
  </defs>
  <g id="Grupo_1065249" data-name="Grupo 1065249" transform="translate(-495 -6625)">
    <rect id="Rectángulo_374141" data-name="Rectángulo 374141" width="716" height="195" rx="10" transform="translate(495 6625)" fill="#00dafd"/>
    <g id="Enmascarar_grupo_1059057" data-name="Enmascarar grupo 1059057" transform="translate(-874 5381)" clip-path="url(#clip-path)">
      <g id="Grupo_1065247" data-name="Grupo 1065247">
        <path id="Trazado_799908" data-name="Trazado 799908" d="M307.553,193.558c-23.619,0-46.167-14.811-60.052-29.853-11.879-12.87-21.207-28.024-30.232-42.679-5.687-9.238-11.567-18.791-18.025-27.669C154.941,32.44,74.964-2.126.238,7.354L0,5.462C37.23.741,75.959,6.472,111.981,22.04s66.726,39.84,88.8,70.2c6.5,8.939,12.4,18.522,18.107,27.789,8.975,14.579,18.256,29.655,30.009,42.387,16.812,18.21,46.542,36.113,75.043,26.606,17.549-5.853,30.419-20.731,42.867-35.117,13.609-15.733,27.685-32,47.893-36.367,21.645-4.679,42.176,5.94,62.028,16.21,17.985,9.307,36.588,18.93,56.116,17.374,29.129-2.319,50.372-28.224,68-52.321L673.108,0l1.538,1.124-72.263,98.8c-17.875,24.442-39.451,50.715-69.382,53.1-20.111,1.587-38.923-8.152-57.143-17.578-20.453-10.582-39.771-20.574-60.752-16.044-19.586,4.233-32.833,19.544-46.857,35.753-12.614,14.581-25.659,29.66-43.7,35.679a53.4,53.4,0,0,1-16.993,2.73" transform="translate(1069.677 1124.896)" fill="#fff"/>
        <path id="Trazado_799909" data-name="Trazado 799909" d="M243.557,129.519c-22.477,0-43.395-11.816-63.721-23.3-10.412-5.882-21.176-11.963-31.975-16.352C98.55,69.827,36.505,86.226,3.533,128.01L0,125.224c34.167-43.3,98.462-60.29,149.555-39.523,11.067,4.5,21.961,10.652,32.494,16.6,24.013,13.563,46.688,26.377,71.863,21.787,20.722-3.776,36.127-18.334,52.437-33.745,13.025-12.308,26.492-25.034,43.03-31.933,20.216-8.432,42.861-7.3,62.842-6.309,19.58.974,41.77,2.079,60.941-5.757C490.485,39.262,507.383,20.83,504.576.618L509.033,0c3.152,22.7-14.8,42.594-34.168,50.511C454.773,58.73,432.046,57.6,412,56.6c-19.508-.974-41.613-2.075-60.889,5.969-15.776,6.582-28.94,19.021-41.67,31.051-16.07,15.185-32.688,30.886-54.723,34.9a62.113,62.113,0,0,1-11.16,1" transform="translate(1046.79 1228)" fill="#ffc202"/>
      </g>
      <g id="Grupo_1065248" data-name="Grupo 1065248" transform="translate(11208 11617)">
        <path id="Trazado_799910" data-name="Trazado 799910" d="M286.154,363.495l-4.491-.3c1.479-21.928,12.9-43.381,31.327-58.859s41.541-23.015,63.385-20.689c11.634,1.241,23.264,4.856,34.51,8.352,19.861,6.174,38.622,12.008,56.921,5.571,18.179-6.4,29.976-23.372,41.383-39.79,2.3-3.317,4.688-6.747,7.074-10.013,14.795-20.249,39-39,62.569-30.914,13.794,4.736,22.441,16.981,30.8,28.823,8.288,11.736,16.117,22.822,28.465,27.139,9.212,3.221,19.009,1.923,29.377.548a147.264,147.264,0,0,1,15.125-1.475c10.967-.324,22.661,4.112,29.093,10.994a19.547,19.547,0,0,1,5.579,15.506l-4.479-.428a14.991,14.991,0,0,0-4.388-12.006c-5.6-5.994-15.917-9.849-25.679-9.569a143.95,143.95,0,0,0-14.659,1.44c-10.436,1.383-21.229,2.813-31.455-.762-13.709-4.793-22.324-16.993-30.656-28.792-8.316-11.775-16.171-22.9-28.588-27.161-21.257-7.3-43.624,10.358-57.474,29.311-2.355,3.225-4.722,6.632-7.013,9.927-11.814,17-24.032,34.588-43.584,41.467-19.706,6.932-40.063.6-59.75-5.52-11.04-3.432-22.456-6.981-33.654-8.175-20.629-2.193-42.517,4.965-60.012,19.66s-28.333,35-29.729,55.716" transform="translate(-9664.364 -10484.839)" fill="#ffc202"/>
        <path id="Trazado_799911" data-name="Trazado 799911" d="M131.727,388.382a52.02,52.02,0,0,1-14.931-2.154l.463-1.558c25.513,7.616,51.956-6.857,68.206-22.934,11.87-11.745,21.368-25.913,30.556-39.618,4.782-7.134,9.726-14.509,14.959-21.479,19.153-25.513,39.779-40.1,61.3-43.357,28.086-4.251,54.152,10.613,79.372,24.981,25.2,14.361,51.272,29.21,78.992,24.55,17.6-2.959,32.783-13.526,47.471-23.744,13.413-9.333,27.282-18.982,43.159-23.095,26.847-6.942,58.992,3.171,83.9,26.4,22.517,21,37.027,48.488,51.061,75.073l-1.437.759c-13.968-26.465-28.416-53.833-50.731-74.644-19.21-17.914-50.942-34.157-82.389-26.013-15.594,4.036-29.342,13.6-42.639,22.853-14.831,10.322-30.172,20.995-48.127,24.016-28.289,4.761-54.61-10.237-80.066-24.742-24.981-14.231-50.814-28.948-78.325-24.787-21.087,3.192-41.357,17.568-60.247,42.725-5.206,6.937-10.138,14.295-14.907,21.41-9.232,13.77-18.778,28.01-30.764,39.868-13.431,13.288-33.733,25.491-54.879,25.491" transform="translate(-9648.129 -10464.47)" fill="#fff"/>
      </g>
    </g>
  </g>
</svg>
