<svg xmlns="http://www.w3.org/2000/svg" xmlns:xlink="http://www.w3.org/1999/xlink" width="586.684" height="414.53" viewBox="0 0 586.684 414.53">
  <defs>
    <clipPath id="clip-path">
      <rect id="Rectángulo_374045" data-name="Rectángulo 374045" width="87.013" height="91.155" transform="translate(0 0)" fill="#ffc202"/>
    </clipPath>
  </defs>
  <g id="Grupo_1065052" data-name="Grupo 1065052" transform="translate(0 -15.846)">
    <g id="Grupo_1065053" data-name="Grupo 1065053">
      <path id="Trazado_799632" data-name="Trazado 799632" d="M241.538,328.478v45.777c0,6.55-39.332,11.856-87.847,11.856S65.844,380.8,65.844,374.255V328.478c0,6.55,39.332,11.856,87.847,11.856s87.847-5.306,87.847-11.856" fill="#4bade8"/>
      <path id="Trazado_799633" data-name="Trazado 799633" d="M241.538,328.478c0,6.55-39.332,11.856-87.847,11.856s-87.847-5.306-87.847-11.856,39.332-11.856,87.847-11.856,87.847,5.306,87.847,11.856" fill="#73e8fb"/>
      <path id="Trazado_799634" data-name="Trazado 799634" d="M224.474,305.6v22.042c0,3.154-31.692,5.709-70.783,5.709s-70.783-2.555-70.783-5.709V305.6c0-3.154,31.692-5.709,70.783-5.709s70.783,2.555,70.783,5.709" fill="#0d76b5"/>
      <path id="Trazado_799635" data-name="Trazado 799635" d="M241.538,265.139v45.777c0,6.55-39.332,11.856-87.847,11.856s-87.847-5.306-87.847-11.856V265.139c0,6.55,39.332,11.856,87.847,11.856s87.847-5.306,87.847-11.856" fill="#4bade8"/>
      <path id="Trazado_799636" data-name="Trazado 799636" d="M241.538,265.139c0,6.55-39.332,11.856-87.847,11.856s-87.847-5.306-87.847-11.856,39.332-11.856,87.847-11.856,87.847,5.306,87.847,11.856" fill="#73e8fb"/>
      <path id="Trazado_799637" data-name="Trazado 799637" d="M224.474,242.262V264.3c0,3.154-31.692,5.709-70.783,5.709s-70.783-2.555-70.783-5.709V242.262c0-3.154,31.692-5.709,70.783-5.709s70.783,2.555,70.783,5.709" fill="#0d76b5"/>
      <path id="Trazado_799638" data-name="Trazado 799638" d="M241.538,193.951v45.777c0,6.55-39.332,11.856-87.847,11.856s-87.847-5.306-87.847-11.856V193.951c0,6.55,39.332,11.856,87.847,11.856s87.847-5.306,87.847-11.856" fill="#4bade8"/>
      <path id="Trazado_799639" data-name="Trazado 799639" d="M241.538,193.951c0,6.55-39.332,11.856-87.847,11.856S65.844,200.5,65.844,193.951,105.176,182.1,153.691,182.1s87.847,5.306,87.847,11.856" fill="#73e8fb"/>
      <path id="Trazado_799640" data-name="Trazado 799640" d="M83.217,233.177a11.252,11.252,0,1,1,11.252-11.252,11.265,11.265,0,0,1-11.252,11.252m0-21.5a10.252,10.252,0,1,0,10.252,10.252,10.264,10.264,0,0,0-10.252-10.252" fill="#ffc202"/>
      <path id="Trazado_799641" data-name="Trazado 799641" d="M93.66,293.956A10.752,10.752,0,1,1,82.908,283.2,10.752,10.752,0,0,1,93.66,293.956" fill="#00eb6d"/>
      <path id="Trazado_799642" data-name="Trazado 799642" d="M82.908,368.547A11.253,11.253,0,1,1,94.16,357.3a11.265,11.265,0,0,1-11.252,11.252m0-21.505A10.253,10.253,0,1,0,93.16,357.3a10.264,10.264,0,0,0-10.252-10.253" fill="#ffc202"/>
      <path id="Trazado_799643" data-name="Trazado 799643" d="M209.34,222.767H114.66a1.772,1.772,0,1,1,0-3.544h94.68a1.772,1.772,0,1,1,0,3.544" fill="#73e8fb"/>
      <path id="Trazado_799644" data-name="Trazado 799644" d="M209.34,232.677H114.66a1.772,1.772,0,1,1,0-3.544h94.68a1.772,1.772,0,1,1,0,3.544" fill="#73e8fb"/>
      <path id="Trazado_799645" data-name="Trazado 799645" d="M208.089,294.8h-94.68a1.772,1.772,0,0,1,0-3.544h94.68a1.772,1.772,0,0,1,0,3.544" fill="#73e8fb"/>
      <path id="Trazado_799646" data-name="Trazado 799646" d="M208.089,304.708h-94.68a1.772,1.772,0,0,1,0-3.544h94.68a1.772,1.772,0,0,1,0,3.544" fill="#73e8fb"/>
      <path id="Trazado_799647" data-name="Trazado 799647" d="M208.089,357.476h-94.68a1.772,1.772,0,0,1,0-3.544h94.68a1.772,1.772,0,0,1,0,3.544" fill="#73e8fb"/>
      <path id="Trazado_799648" data-name="Trazado 799648" d="M208.089,367.385h-94.68a1.772,1.772,0,0,1,0-3.544h94.68a1.772,1.772,0,0,1,0,3.544" fill="#73e8fb"/>
      <path id="Trazado_799649" data-name="Trazado 799649" d="M560.669,347.2v31.547c0,4.514-27.1,8.171-60.539,8.171s-60.539-3.657-60.539-8.171V347.2c0,4.514,27.105,8.171,60.539,8.171s60.539-3.657,60.539-8.171" fill="#4bade8"/>
      <path id="Trazado_799650" data-name="Trazado 799650" d="M560.669,347.2c0,4.514-27.1,8.171-60.539,8.171s-60.539-3.657-60.539-8.171,27.105-8.171,60.539-8.171,60.539,3.657,60.539,8.171" fill="#73e8fb"/>
      <path id="Trazado_799651" data-name="Trazado 799651" d="M548.909,331.437v15.19c0,2.174-21.84,3.934-48.78,3.934s-48.779-1.76-48.779-3.934v-15.19c0-2.173,21.84-3.934,48.779-3.934s48.78,1.761,48.78,3.934" fill="#0d76b5"/>
      <path id="Trazado_799652" data-name="Trazado 799652" d="M560.669,303.553V335.1c0,4.514-27.1,8.171-60.539,8.171s-60.539-3.657-60.539-8.171V303.553c0,4.514,27.105,8.171,60.539,8.171s60.539-3.657,60.539-8.171" fill="#4bade8"/>
      <path id="Trazado_799653" data-name="Trazado 799653" d="M560.669,303.553c0,4.514-27.1,8.171-60.539,8.171s-60.539-3.657-60.539-8.171,27.105-8.171,60.539-8.171,60.539,3.657,60.539,8.171" fill="#73e8fb"/>
      <path id="Trazado_799654" data-name="Trazado 799654" d="M548.909,287.787v15.19c0,2.174-21.84,3.934-48.78,3.934s-48.779-1.76-48.779-3.934v-15.19c0-2.173,21.84-3.934,48.779-3.934s48.78,1.761,48.78,3.934" fill="#0d76b5"/>
      <path id="Trazado_799655" data-name="Trazado 799655" d="M560.669,254.494v31.547c0,4.514-27.1,8.171-60.539,8.171s-60.539-3.657-60.539-8.171V254.494c0,4.514,27.105,8.171,60.539,8.171s60.539-3.657,60.539-8.171" fill="#4bade8"/>
      <path id="Trazado_799656" data-name="Trazado 799656" d="M560.669,254.494c0,4.514-27.1,8.171-60.539,8.171s-60.539-3.657-60.539-8.171,27.105-8.171,60.539-8.171,60.539,3.657,60.539,8.171" fill="#73e8fb"/>
      <path id="Trazado_799657" data-name="Trazado 799657" d="M451.563,281.681a7.91,7.91,0,1,1,7.909-7.909,7.918,7.918,0,0,1-7.909,7.909m0-14.819a6.91,6.91,0,1,0,6.909,6.91,6.917,6.917,0,0,0-6.909-6.91" fill="#ffc202"/>
      <path id="Trazado_799658" data-name="Trazado 799658" d="M458.76,323.412a7.41,7.41,0,1,1-7.41-7.41,7.41,7.41,0,0,1,7.41,7.41" fill="#4888a3"/>
      <path id="Trazado_799659" data-name="Trazado 799659" d="M451.35,374.97a7.91,7.91,0,1,1,7.91-7.909,7.918,7.918,0,0,1-7.91,7.909m0-14.819a6.91,6.91,0,1,0,6.91,6.91,6.917,6.917,0,0,0-6.91-6.91" fill="#ffc202"/>
      <path id="Trazado_799660" data-name="Trazado 799660" d="M260.809,54.857h0a.465.465,0,0,1-.4-.234l-7.139-12.357a.467.467,0,0,1,0-.466l7.139-12.357a.465.465,0,0,1,.807,0L268.368,41.8a.466.466,0,0,1,0,.468l-7.155,12.357a.466.466,0,0,1-.4.233m-6.6-12.824,6.6,11.426,6.615-11.426L260.81,30.607Z" fill="#f2e9da"/>
      <path id="Trazado_799661" data-name="Trazado 799661" d="M244.629,38.654a4.021,4.021,0,1,1,4.021-4.021,4.026,4.026,0,0,1-4.021,4.021m0-7.109a3.088,3.088,0,1,0,3.088,3.088,3.091,3.091,0,0,0-3.088-3.088" fill="#f2e9da"/>
      <path id="Trazado_799662" data-name="Trazado 799662" d="M257.342,22.8a3.476,3.476,0,1,1,3.475-3.475,3.479,3.479,0,0,1-3.475,3.475m0-6.018a2.543,2.543,0,1,0,2.543,2.543,2.546,2.546,0,0,0-2.543-2.543" fill="#f2e9da"/>
      <path id="Trazado_799663" data-name="Trazado 799663" d="M241.075,24.53a2.5,2.5,0,1,1,2.5-2.5,2.5,2.5,0,0,1-2.5,2.5m0-4.062a1.565,1.565,0,1,0,1.565,1.565,1.567,1.567,0,0,0-1.565-1.565" fill="#f2e9da"/>
      <path id="Trazado_799664" data-name="Trazado 799664" d="M383.291,77.092h0a.468.468,0,0,1-.4-.233L377.424,67.4a.467.467,0,0,1,0-.466l5.463-9.456a.466.466,0,0,1,.807,0l5.474,9.455a.466.466,0,0,1,0,.468l-5.474,9.455a.466.466,0,0,1-.4.233m-4.924-9.922,4.924,8.524,4.935-8.524-4.935-8.524Z" fill="#f2e9da"/>
      <path id="Trazado_799665" data-name="Trazado 799665" d="M370.367,62.9a4.021,4.021,0,1,1,4.021-4.021,4.026,4.026,0,0,1-4.021,4.021m0-7.109a3.088,3.088,0,1,0,3.088,3.088,3.091,3.091,0,0,0-3.088-3.088" fill="#f2e9da"/>
      <path id="Trazado_799666" data-name="Trazado 799666" d="M383.081,52.235a3.476,3.476,0,1,1,3.474-3.475,3.48,3.48,0,0,1-3.474,3.475m0-6.018a2.542,2.542,0,1,0,2.543,2.543,2.546,2.546,0,0,0-2.543-2.543" fill="#f2e9da"/>
      <path id="Trazado_799667" data-name="Trazado 799667" d="M370.367,48.247a2.5,2.5,0,1,1,2.5-2.5,2.5,2.5,0,0,1-2.5,2.5m0-4.062a1.565,1.565,0,1,0,1.565,1.565,1.567,1.567,0,0,0-1.565-1.565" fill="#f2e9da"/>
      <path id="Trazado_799668" data-name="Trazado 799668" d="M382.866,170.329h0a.465.465,0,0,1-.4-.234l-7.139-12.357a.467.467,0,0,1,0-.466l7.139-12.357a.465.465,0,0,1,.807,0l7.155,12.357a.466.466,0,0,1,0,.468L383.269,170.1a.466.466,0,0,1-.4.233m-6.6-12.824,6.6,11.426,6.616-11.426-6.616-11.426Z" fill="#f2e9da"/>
      <path id="Trazado_799669" data-name="Trazado 799669" d="M380.331,139.667a3.475,3.475,0,1,1,3.475-3.475,3.479,3.479,0,0,1-3.475,3.475m0-6.018a2.543,2.543,0,1,0,2.543,2.543,2.546,2.546,0,0,0-2.543-2.543" fill="#f2e9da"/>
      <path id="Trazado_799670" data-name="Trazado 799670" d="M396.808,153.864a2.5,2.5,0,1,1,2.5-2.5,2.5,2.5,0,0,1-2.5,2.5m0-4.062a1.564,1.564,0,1,0,1.565,1.565,1.567,1.567,0,0,0-1.565-1.565" fill="#f2e9da"/>
      <path id="Trazado_799671" data-name="Trazado 799671" d="M397.7,140.943h0a.464.464,0,0,1-.4-.233l-4.484-7.761a.467.467,0,0,1,0-.466l4.484-7.761a.466.466,0,0,1,.807,0l4.494,7.76a.471.471,0,0,1,0,.468l-4.494,7.761a.465.465,0,0,1-.4.232m-3.945-8.227,3.945,6.83,3.955-6.83-3.955-6.83Z" fill="#f2e9da"/>
      <path id="Trazado_799672" data-name="Trazado 799672" d="M369.051,149.676a2.5,2.5,0,1,1,2.5-2.5,2.5,2.5,0,0,1-2.5,2.5m0-4.062a1.564,1.564,0,1,0,1.565,1.565,1.567,1.567,0,0,0-1.565-1.565" fill="#f2e9da"/>
      <path id="Trazado_799678" data-name="Trazado 799678" d="M34.923,301.664h-.008c-.421,0-.838-.021-1.249-.06a.5.5,0,0,1-.45-.546.513.513,0,0,1,.546-.45q.57.055,1.154.056h.007a11.726,11.726,0,0,0,4.477-.881.5.5,0,1,1,.38.924,12.717,12.717,0,0,1-4.857.957m-6.805-2.047a.5.5,0,0,1-.276-.084,12.909,12.909,0,0,1-4.175-4.557.5.5,0,1,1,.878-.478,11.907,11.907,0,0,0,3.851,4.2.5.5,0,0,1-.278.916m16.258-2.391a.5.5,0,0,1-.384-.82,11.8,11.8,0,0,0,2.478-5.129.5.5,0,1,1,.979.2,12.8,12.8,0,0,1-2.689,5.566.5.5,0,0,1-.384.18m-21.761-7.737a.5.5,0,0,1-.5-.494v-6.006a.5.5,0,0,1,1,0v5.994a.5.5,0,0,1-.494.506Zm24.6-3.592a.5.5,0,0,1-.5-.5v-6a.5.5,0,0,1,1,0v6a.5.5,0,0,1-.5.5m-24.6-8.408a.5.5,0,0,1-.5-.5v-6a.5.5,0,0,1,1,0v6a.5.5,0,0,1-.5.5m24.6-3.592a.5.5,0,0,1-.5-.5v-6a.5.5,0,0,1,1,0v6a.5.5,0,0,1-.5.5m-24.6-8.408a.5.5,0,0,1-.5-.5v-6a.5.5,0,0,1,1,0v6a.5.5,0,0,1-.5.5m24.6-3.592a.5.5,0,0,1-.5-.5v-6a.5.5,0,0,1,1,0v6a.5.5,0,0,1-.5.5m-24.6-8.408a.5.5,0,0,1-.5-.5v-6a.5.5,0,0,1,1,0v6a.5.5,0,0,1-.5.5m24.6-3.592a.5.5,0,0,1-.5-.5v-6a.5.5,0,0,1,1,0v6a.5.5,0,0,1-.5.5m-24.6-8.408a.5.5,0,0,1-.5-.5v-6a.5.5,0,0,1,1,0v6a.5.5,0,0,1-.5.5m24.6-3.592a.5.5,0,0,1-.5-.5v-6a.5.5,0,0,1,1,0v6a.5.5,0,0,1-.5.5m-24.6-8.408a.5.5,0,0,1-.5-.5v-6a.5.5,0,0,1,1,0v6a.5.5,0,0,1-.5.5m24.6-3.592a.5.5,0,0,1-.5-.5v-6a.5.5,0,0,1,1,0v6a.5.5,0,0,1-.5.5m-24.6-8.408a.5.5,0,0,1-.5-.5v-6a.5.5,0,0,1,1,0v6a.5.5,0,0,1-.5.5m24.6-3.592a.5.5,0,0,1-.5-.5v-6a.5.5,0,0,1,1,0v6a.5.5,0,0,1-.5.5m-24.6-8.408a.5.5,0,0,1-.5-.5v-6a.5.5,0,0,1,1,0v6a.5.5,0,0,1-.5.5m24.6-3.592a.5.5,0,0,1-.5-.5v-6a.5.5,0,0,1,1,0v6a.5.5,0,0,1-.5.5m-24.6-8.408a.5.5,0,0,1-.5-.5v-.857a11.7,11.7,0,0,0-1.013-4.791.5.5,0,0,1,.914-.406,12.7,12.7,0,0,1,1.1,5.2v.857a.5.5,0,0,1-.5.5m24.831-3.577a.52.52,0,0,1-.1-.009.5.5,0,0,1-.4-.586,12.8,12.8,0,0,1,2.618-5.6.5.5,0,1,1,.776.63,11.8,11.8,0,0,0-2.413,5.159.5.5,0,0,1-.49.4m-29.54-6.959a.5.5,0,0,1-.308-.107,11.807,11.807,0,0,0-5.2-2.332.5.5,0,0,1,.176-.984,12.8,12.8,0,0,1,5.639,2.53.5.5,0,0,1-.309.893m36.8-2a.5.5,0,0,1-.2-.96,12.7,12.7,0,0,1,5.013-1.019q.508,0,1.008-.041a.5.5,0,1,1,.08,1q-.538.043-1.088.044a11.7,11.7,0,0,0-4.621.939.5.5,0,0,1-.2.04m-48.2-.624H.5a.5.5,0,0,1,0-1h6a.5.5,0,0,1,0,1m59.723-2.224a.5.5,0,0,1-.26-.928,12.551,12.551,0,0,0,4.081-4,.5.5,0,0,1,.845.534,13.593,13.593,0,0,1-4.407,4.326.507.507,0,0,1-.259.072m6.178-9.786-.049,0a.5.5,0,0,1-.449-.547q.062-.613.061-1.243v-4.705a.5.5,0,0,1,1,0v4.705q0,.679-.065,1.342a.5.5,0,0,1-.5.45m.063-12a.5.5,0,0,1-.5-.5v-5.317q0-.357.019-.709a.5.5,0,0,1,1,.052q-.017.327-.018.658v5.316a.5.5,0,0,1-.5.5m1.684-11.706a.5.5,0,0,1-.435-.747,13.579,13.579,0,0,1,4.2-4.527.5.5,0,1,1,.558.829,12.578,12.578,0,0,0-3.887,4.192.5.5,0,0,1-.435.253m9.606-6.453a.5.5,0,0,1-.063-1,13.7,13.7,0,0,1,1.72-.109H89.75a.5.5,0,0,1,0,1H85.411a12.618,12.618,0,0,0-1.593.1.467.467,0,0,1-.064,0" fill="#ffc202"/>
      <rect id="Rectángulo_374005" data-name="Rectángulo 374005" width="88.819" height="38.78" transform="translate(285.335 331.3)" fill="#001d4d"/>
      <path id="Trazado_799679" data-name="Trazado 799679" d="M280.888,167.609,240.925,172.7a36.284,36.284,0,0,0-30.685,27.468l-5.893,48.525h41.421L239.7,312.814l37.575,21.127h89.143l-10.193-71.166,5.745-22.61h33.174l-8.44-38.382a36.282,36.282,0,0,0-28.33-27.789l-31.963-6.385Z" fill="#0097f1"/>
      <path id="Trazado_799680" data-name="Trazado 799680" d="M294.329,282.049v28.169h-77.35a13.994,13.994,0,0,1-13.96-14.92l3.09-46.61h41.88l-2.96,23.72Z" fill="#ffdabe"/>
      <path id="Trazado_799681" data-name="Trazado 799681" d="M255.174,249.188H231.127v-1h23.212l4.373-24.143.984.178Z" fill="#25292b"/>
      <rect id="Rectángulo_374006" data-name="Rectángulo 374006" width="41.467" height="1" transform="translate(355.755 262.663) rotate(-76.478)" fill="#25292b"/>
      <path id="Trazado_799682" data-name="Trazado 799682" d="M452.047,196.431h0a5.738,5.738,0,0,1-3.872-7.1l9.766-33.166a5.721,5.721,0,1,1,10.976,3.232l-9.766,33.166a5.738,5.738,0,0,1-7.1,3.872" fill="#ffdabe"/>
      <path id="Trazado_799683" data-name="Trazado 799683" d="M458.427,201.625h0a5.738,5.738,0,0,1-3.319-7.379l5.942-15.657a5.721,5.721,0,1,1,10.7,4.06l-5.941,15.657a5.739,5.739,0,0,1-7.379,3.319" fill="#ffdabe"/>
      <path id="Trazado_799684" data-name="Trazado 799684" d="M465.8,207.924h0a5.738,5.738,0,0,1-3.319-7.379l6.1-16.087a5.721,5.721,0,0,1,10.7,4.06l-6.1,16.087a5.739,5.739,0,0,1-7.379,3.319" fill="#ffdabe"/>
      <path id="Trazado_799685" data-name="Trazado 799685" d="M473.148,206.792h0a5.738,5.738,0,0,1-1.013-8.027l6.294-8.114a5.721,5.721,0,0,1,9.041,7.014l-6.3,8.114a5.738,5.738,0,0,1-8.027,1.013" fill="#ffdabe"/>
      <path id="Trazado_799686" data-name="Trazado 799686" d="M470.6,192.1h0a5.738,5.738,0,0,1-6.789,4.4l-16.828-3.593a5.721,5.721,0,1,1,2.388-11.189L466.2,185.31a5.739,5.739,0,0,1,4.4,6.789" fill="#ffdabe"/>
      <path id="Trazado_799687" data-name="Trazado 799687" d="M477.612,204.766c-2.62,12.98-17.73,20.71-17.73,20.71l-44.61,50.31a33.862,33.862,0,0,1-26.92,13.3l-29.26-.46L354.922,260l6.44-19.99h28.56l1.12,3.69,45.12-33.66,6.42-23.92Z" fill="#ffdabe"/>
      <path id="Trazado_799688" data-name="Trazado 799688" d="M463.428,203.468h-.019a.5.5,0,0,1-.481-.519,6.177,6.177,0,0,1,.4-1.959l1.323-4.025a.5.5,0,0,1,.949.313l-1.329,4.046a5.221,5.221,0,0,0-.341,1.663.5.5,0,0,1-.5.481" fill="#25292b"/>
      <path id="Trazado_799689" data-name="Trazado 799689" d="M467.8,208.789a6.152,6.152,0,0,1-2.179-.4,6.223,6.223,0,0,1-3.166-2.695.5.5,0,0,1,.866-.5,5.211,5.211,0,0,0,2.656,2.261,5.267,5.267,0,0,0,5.994-1.7.5.5,0,1,1,.793.609,6.28,6.28,0,0,1-4.964,2.427" fill="#25292b"/>
      <path id="Trazado_799690" data-name="Trazado 799690" d="M476.636,208.487a6.161,6.161,0,0,1-3.794-1.3,6.25,6.25,0,0,1-.851-.8.5.5,0,0,1,.75-.662,5.276,5.276,0,0,0,.714.671,5.239,5.239,0,0,0,7.326-.926.5.5,0,0,1,.791.614,6.18,6.18,0,0,1-4.138,2.351,6.312,6.312,0,0,1-.8.051" fill="#25292b"/>
      <path id="Trazado_799691" data-name="Trazado 799691" d="M463.015,208.3H463a.5.5,0,0,1-.487-.513,14.4,14.4,0,0,0-.12-2.272.5.5,0,0,1,.429-.562.494.494,0,0,1,.561.429,15.321,15.321,0,0,1,.13,2.431.5.5,0,0,1-.5.487" fill="#25292b"/>
      <path id="Trazado_799692" data-name="Trazado 799692" d="M462.889,205.945a.5.5,0,0,1-.494-.434c-.978-7.3-7.454-10.787-7.52-10.821a.5.5,0,0,1,.358-.927l8.7,2.252a5.221,5.221,0,0,0,2.159-10.216l-16.827-3.593a.5.5,0,1,1,.209-.978l16.827,3.593a6.221,6.221,0,1,1-2.6,12.168l-6.015-1.558a15.681,15.681,0,0,1,5.7,9.948.5.5,0,0,1-.429.561.378.378,0,0,1-.067.005" fill="#25292b"/>
      <path id="Trazado_799693" data-name="Trazado 799693" d="M461.575,184.823a.47.47,0,0,1-.142-.021.5.5,0,0,1-.337-.62l2.645-8.984a.5.5,0,0,1,.959.282l-2.646,8.984a.5.5,0,0,1-.479.359" fill="#25292b"/>
      <path id="Trazado_799694" data-name="Trazado 799694" d="M469.772,187.776a.5.5,0,0,1-.469-.676l2.326-6.2a.5.5,0,0,1,.644-.292.5.5,0,0,1,.292.644l-2.325,6.2a.5.5,0,0,1-.468.324" fill="#25292b"/>
      <path id="Trazado_799695" data-name="Trazado 799695" d="M472.367,206.558a.488.488,0,0,1-.183-.035.5.5,0,0,1-.282-.648l6.063-15.406a.5.5,0,1,1,.929.366l-6.062,15.406a.5.5,0,0,1-.465.317" fill="#25292b"/>
      <path id="Trazado_799696" data-name="Trazado 799696" d="M354.816,99.121c-4.222,8.314-13.442,12.794-22.534,12.47a25.979,25.979,0,0,1-2.184,6.073,26.408,26.408,0,0,1-14.4,12.711c-5.694,2.056-12.563,2.121-17.22-1.87a27.649,27.649,0,0,1-13.739-1.12A26.367,26.367,0,0,1,267.3,102.8c-.028-5.434,1.481-11.128,5.128-15.284a14.592,14.592,0,0,1,12.249-5.1,13.96,13.96,0,0,1-.13-3.231c.481-6.111,5.481-10.684,11.285-11.85,5.092-1.028,10.313,1.064,13.887,4.693a18.224,18.224,0,0,1,1.6-2.87A16.544,16.544,0,0,1,341.142,76.4a13.792,13.792,0,0,1,6.4.667c8.851,3.046,11.174,14.386,7.277,22.052" fill="#25292b"/>
      <path id="Trazado_799697" data-name="Trazado 799697" d="M270.763,133.291c2.717,6.868,7.717,10.729,14.188,9l-4.063,25.315,31.231,31.228,14.513-26.87-.582-11.434,4.872-4.494a36.488,36.488,0,0,0,11.657-29.352L340.9,102.609a1.035,1.035,0,0,1-.174.056,35.554,35.554,0,0,1-13.042.755,44.152,44.152,0,0,1-14.654-3.609,6.109,6.109,0,0,1-1.639,3.814,10.418,10.418,0,0,1-6.82,2.758,19.79,19.79,0,0,1-10.232-1.989q-2.359,6.678-5.161,13.2l.007.11-.035-.031a13.738,13.738,0,0,0-8.587-3.356,12.3,12.3,0,0,0-4.792.866c-6.8,2.7-7.926,10.745-5.008,18.108" fill="#ffdabe"/>
      <path id="Trazado_799698" data-name="Trazado 799698" d="M331.708,122.608a3.62,3.62,0,1,0,3.316-4.225,3.808,3.808,0,0,0-3.316,4.225" fill="#25292b"/>
      <path id="Trazado_799699" data-name="Trazado 799699" d="M309.866,124.132a3.62,3.62,0,1,0,3.316-4.225,3.808,3.808,0,0,0-3.316,4.225" fill="#25292b"/>
      <path id="Trazado_799700" data-name="Trazado 799700" d="M331.674,113.277a8.538,8.538,0,0,1,8.128.918,1.105,1.105,0,1,1-1.172,1.874,7.135,7.135,0,0,0-.718-.463c-.122-.068-.246-.132-.371-.193a.4.4,0,0,0-.043-.019c-.066-.028-.131-.056-.2-.082a7.2,7.2,0,0,0-.812-.267c-.138-.037-.277-.068-.416-.1l-.067-.014q-.115-.018-.231-.033a7.622,7.622,0,0,0-.854-.058c-.142,0-.285,0-.428.007-.071,0-.142.008-.213.013h0l-.02,0a8.007,8.007,0,0,0-.841.151c-.138.034-.276.071-.412.113-.068.021-.135.044-.2.066a.287.287,0,0,1-.035.011l-.038.016a1.135,1.135,0,0,1-1.5-.447,1.118,1.118,0,0,1,.447-1.5" fill="#25292b"/>
      <path id="Trazado_799701" data-name="Trazado 799701" d="M316.424,115.808a1.135,1.135,0,0,1-1.422.65l-.04-.01-.036-.006c-.07-.012-.14-.026-.211-.037-.14-.023-.282-.041-.423-.055a8.128,8.128,0,0,0-.854-.033h-.024l-.213.017c-.142.014-.284.031-.425.052a7.5,7.5,0,0,0-.837.177c-.075.02-.15.042-.224.065l-.065.022c-.134.05-.267.1-.4.155a7.369,7.369,0,0,0-.767.378c-.062.035-.123.071-.184.108l-.04.024c-.115.079-.229.159-.34.243a7.321,7.321,0,0,0-.647.559,1.106,1.106,0,0,1-1.421-1.694,8.538,8.538,0,0,1,7.922-2.037,1.118,1.118,0,0,1,.65,1.422" fill="#25292b"/>
      <path id="Trazado_799702" data-name="Trazado 799702" d="M334.048,138.538l-11.889-.7.059-1,10.445.617-5.239-16.792.955-.3Z" fill="#25292b"/>
      <path id="Trazado_799703" data-name="Trazado 799703" d="M281.956,139.113a7.112,7.112,0,0,1-5.757-11.326,5.178,5.178,0,0,1,3.294-2.164,3.716,3.716,0,0,1,2.625.558,12.5,12.5,0,0,0-.721-3.429,6.28,6.28,0,0,0-2.946-3.479,2.969,2.969,0,0,0-2.385-.227,4.708,4.708,0,0,0-2.07,2.569l-.9-.433a5.55,5.55,0,0,1,2.6-3.063,3.958,3.958,0,0,1,3.2.256,7.276,7.276,0,0,1,3.439,4.019,15.665,15.665,0,0,1,.862,5.111l.074,2.15-1.014-1.9a2.526,2.526,0,0,0-2.6-1.147A4.25,4.25,0,0,0,277,128.379a6.113,6.113,0,0,0,5.352,9.72l.07,1c-.157.011-.314.016-.47.016" fill="#25292b"/>
      <path id="Trazado_799704" data-name="Trazado 799704" d="M318.2,164.279a13.567,13.567,0,0,1-5.947-1.532,35.175,35.175,0,0,1-6.284-4.372l.63-.775a34.465,34.465,0,0,0,6.1,4.253,11.643,11.643,0,0,0,7,1.3c2.238-.384,4.214-1.6,6.492-3.3l.6.8a16.693,16.693,0,0,1-6.922,3.488,9.791,9.791,0,0,1-1.673.141" fill="#25292b"/>
      <path id="Trazado_799705" data-name="Trazado 799705" d="M321.766,146.749a12.933,12.933,0,0,1-10.119-8.352l.945-.329a11.91,11.91,0,0,0,9.319,7.692Z" fill="#25292b"/>
      <rect id="Rectángulo_374007" data-name="Rectángulo 374007" width="94.703" height="9.081" transform="translate(254.849 317.632)" fill="#00dafd"/>
      <path id="Trazado_799706" data-name="Trazado 799706" d="M410.568,326.713H275.2l20-81.174H430.568Z" fill="#00dafd"/>
      <rect id="Rectángulo_374008" data-name="Rectángulo 374008" width="157.678" height="1" transform="translate(254.849 317.133)" fill="#25292b"/>
      <path id="Trazado_799707" data-name="Trazado 799707" d="M449.556,394.158A25.447,25.447,0,0,1,430.7,405.124a25.727,25.727,0,0,1-3.228.058l-71.612-3.129-8.705-7.429,4.9-26,9.916-.823,60.849-13.284a25.429,25.429,0,0,1,24.745,8.3l.329.381a25.444,25.444,0,0,1,1.663,30.955" fill="#ffc202"/>
      <path id="Trazado_799708" data-name="Trazado 799708" d="M433.041,404.211l-.68-.734a33.752,33.752,0,0,0,9.883-16.265,27.637,27.637,0,0,0-1.819-18.751,23.353,23.353,0,0,0-14.2-12.051l.271-.963a24.376,24.376,0,0,1,14.821,12.569,28.659,28.659,0,0,1,1.894,19.439,34.763,34.763,0,0,1-10.174,16.756" fill="#0097f1"/>
      <path id="Trazado_799709" data-name="Trazado 799709" d="M359.945,396.293l-1-.029a213.027,213.027,0,0,1,2.136-24.337l.99.144a211.753,211.753,0,0,0-2.126,24.222" fill="#25292b"/>
      <path id="Trazado_799710" data-name="Trazado 799710" d="M379.231,394.929a46.047,46.047,0,0,1,.23-23.2l.965.261a45.039,45.039,0,0,0-.224,22.693Z" fill="#0097f1"/>
      <path id="Trazado_799711" data-name="Trazado 799711" d="M385.958,394.388a38.984,38.984,0,0,1,.792-22.1l.947.321a37.976,37.976,0,0,0-.772,21.523Z" fill="#0097f1"/>
      <path id="Trazado_799712" data-name="Trazado 799712" d="M391.856,393.969a36.325,36.325,0,0,1,2.211-21.611l.918.4a35.309,35.309,0,0,0-2.15,21.012Z" fill="#0097f1"/>
      <path id="Trazado_799713" data-name="Trazado 799713" d="M418,399.792a29.972,29.972,0,0,1,.433-37.084l.779.627a28.972,28.972,0,0,0-.419,35.848Z" fill="#25292b"/>
      <path id="Trazado_799714" data-name="Trazado 799714" d="M341.349,356.1l-15.042,48.586L193.231,369.844a35.367,35.367,0,1,1,22.74-66.786Z" fill="#001d4d"/>
      <path id="Trazado_799715" data-name="Trazado 799715" d="M285.336,379.046l14.409,40.63,156.918-62.939a35.367,35.367,0,1,0-33.431-62.128Z" fill="#001d4d"/>
      <rect id="Rectángulo_374009" data-name="Rectángulo 374009" width="107.093" height="1" transform="translate(288.21 378.399) rotate(-31.799)" fill="#f2e9da"/>
      <rect id="Rectángulo_374010" data-name="Rectángulo 374010" width="1" height="55.579" transform="translate(280.773 331.013) rotate(-66.725)" fill="#f2e9da"/>
      <path id="Trazado_799716" data-name="Trazado 799716" d="M201.117,422.58a25.341,25.341,0,0,0,23.6,7.234l70.118-14.883,7.362-8.762-9.121-24.836-9.916.822-62.205-3.078a25.431,25.431,0,0,0-23.04,12.267l-.261.43a25.443,25.443,0,0,0,3.459,30.806" fill="#ffc202"/>
      <path id="Trazado_799717" data-name="Trazado 799717" d="M219.064,429.774a34.755,34.755,0,0,1-12.795-14.85,28.664,28.664,0,0,1-1.335-19.486A24.374,24.374,0,0,1,217.482,380.6l.427.9a23.355,23.355,0,0,0-12.018,14.225,27.637,27.637,0,0,0,1.295,18.795,33.735,33.735,0,0,0,12.427,14.414Z" fill="#0097f1"/>
      <path id="Trazado_799718" data-name="Trazado 799718" d="M289.856,409.924a211.656,211.656,0,0,0-6.087-23.54l.952-.307a212.826,212.826,0,0,1,6.116,23.654Z" fill="#25292b"/>
      <path id="Trazado_799719" data-name="Trazado 799719" d="M284.975,420.183a6.261,6.261,0,0,1-3.761-1.441c-2.463-1.977-3.98-5.2-4.638-9.843-.148-1.05-.255-2.11-.362-3.168a31.829,31.829,0,0,0-1.323-7.35l.254-.089c0-.033-.011-.067-.017-.1l-.369-.3.268-.333c-1.15-7.114-2.241-14.447-1.244-21.752.244-1.79.8-4.3,2.8-5.414a4.851,4.851,0,0,1,5.348.741,8.326,8.326,0,0,1,2.583,4.706c1.074,4.782-.44,9.366-1.9,12.37a52.25,52.25,0,0,1-6.53,9.628c.016.1.033.2.049.306a22.222,22.222,0,0,1,12.553,15.165c.29,1.351.721,4.661-1.542,6.221a3.768,3.768,0,0,1-2.17.651m-8.758-20.9a39.106,39.106,0,0,1,.992,6.342c.1,1.046.21,2.092.357,3.128.621,4.383,2.019,7.394,4.274,9.2,1.294,1.038,3.328,1.718,4.737.745,1.766-1.215,1.38-4.032,1.132-5.185a21.177,21.177,0,0,0-11.492-14.234m2.388-28.4a3.132,3.132,0,0,0-1.534.38c-1.61.9-2.082,3.1-2.3,4.676-.936,6.857.014,13.8,1.1,20.563a48.158,48.158,0,0,0,5.846-8.732c1.389-2.86,2.834-7.214,1.824-11.714a7.367,7.367,0,0,0-2.251-4.159,4.237,4.237,0,0,0-2.684-1.014" fill="#0097f1"/>
      <path id="Trazado_799720" data-name="Trazado 799720" d="M270.608,411.755l-1-.08a45.029,45.029,0,0,0-3.96-22.344l.91-.418a46.054,46.054,0,0,1,4.047,22.842" fill="#0097f1"/>
      <path id="Trazado_799721" data-name="Trazado 799721" d="M263.885,412.329l-1-.09a37.966,37.966,0,0,0-4.307-21.1l.881-.473a38.977,38.977,0,0,1,4.422,21.663" fill="#0097f1"/>
      <path id="Trazado_799722" data-name="Trazado 799722" d="M258,412.889l-1-.039a35.313,35.313,0,0,0-5.582-20.37l.84-.543A36.313,36.313,0,0,1,258,412.889" fill="#0097f1"/>
      <path id="Trazado_799723" data-name="Trazado 799723" d="M233.167,422.939l-.883-.471a28.973,28.973,0,0,0-6.318-35.288l.664-.748a29.973,29.973,0,0,1,6.537,36.507" fill="#25292b"/>
      <path id="Trazado_799724" data-name="Trazado 799724" d="M552.3,216.735H427.714V65.942H552.3Zm-123.587-1H551.3V66.942H428.714Z" fill="#25292b"/>
      <rect id="Rectángulo_374011" data-name="Rectángulo 374011" width="116.757" height="16.263" transform="translate(431.629 69.5)" fill="#00dafd"/>
      <path id="Trazado_799725" data-name="Trazado 799725" d="M527.094,83.155a.7.7,0,0,1-.436-.153l-6.078-4.855a.7.7,0,0,1,0-1.093l6-4.793a.7.7,0,0,1,.873,1.094L522.138,77.6l5.393,4.308a.7.7,0,0,1-.437,1.246" fill="#f2e9da"/>
      <path id="Trazado_799726" data-name="Trazado 799726" d="M536.4,83.155a.7.7,0,0,1-.437-1.246l5.393-4.308-5.315-4.246a.7.7,0,0,1,.873-1.094l6,4.793a.7.7,0,0,1,0,1.093L536.837,83a.7.7,0,0,1-.436.153" fill="#f2e9da"/>
      <path id="Trazado_799727" data-name="Trazado 799727" d="M530.383,84.438a.7.7,0,0,1-.763-.9l3.761-12.227a.7.7,0,0,1,1.338.411L530.958,83.95a.7.7,0,0,1-.575.488" fill="#f2e9da"/>
      <rect id="Rectángulo_374012" data-name="Rectángulo 374012" width="62.766" height="5.143" transform="translate(431.63 97.021)" fill="#6ac7ff"/>
      <rect id="Rectángulo_374013" data-name="Rectángulo 374013" width="30.549" height="5.143" transform="translate(497.245 97.021)" fill="#00dafd"/>
      <rect id="Rectángulo_374014" data-name="Rectángulo 374014" width="17.454" height="5.143" transform="translate(530.932 97.021)" fill="#0097f1"/>
      <path id="Trazado_799728" data-name="Trazado 799728" d="M548.544,113.84H505.778V108.7h42.766" fill="#6ac7ff"/>
      <rect id="Rectángulo_374015" data-name="Rectángulo 374015" width="30.549" height="5.143" transform="translate(472.38 108.698)" fill="#00dafd"/>
      <path id="Trazado_799729" data-name="Trazado 799729" d="M431.788,108.7h37.454v5.143H431.788" fill="#0097f1"/>
      <rect id="Rectángulo_374016" data-name="Rectángulo 374016" width="22.766" height="5.143" transform="translate(431.788 121.345)" fill="#00dafd"/>
      <rect id="Rectángulo_374017" data-name="Rectángulo 374017" width="63.549" height="5.143" transform="translate(457.404 121.345)" fill="#6ac7ff"/>
      <rect id="Rectángulo_374018" data-name="Rectángulo 374018" width="24.454" height="5.143" transform="translate(524.09 121.345)" fill="#0097f1"/>
      <path id="Trazado_799730" data-name="Trazado 799730" d="M548.7,138.164H529.937v-5.143H548.7" fill="#6ac7ff"/>
      <rect id="Rectángulo_374019" data-name="Rectángulo 374019" width="54.549" height="5.143" transform="translate(472.538 133.022)" fill="#00dafd"/>
      <path id="Trazado_799731" data-name="Trazado 799731" d="M431.946,133.022H469.4v5.143H431.946" fill="#0097f1"/>
      <rect id="Rectángulo_374020" data-name="Rectángulo 374020" width="62.766" height="5.143" transform="translate(431.946 152.58)" fill="#6ac7ff"/>
      <rect id="Rectángulo_374021" data-name="Rectángulo 374021" width="30.549" height="5.143" transform="translate(497.562 152.58)" fill="#00dafd"/>
      <rect id="Rectángulo_374022" data-name="Rectángulo 374022" width="17.454" height="5.143" transform="translate(531.249 152.58)" fill="#0097f1"/>
      <path id="Trazado_799732" data-name="Trazado 799732" d="M548.861,169.4H506.1v-5.143h42.766" fill="#6ac7ff"/>
      <rect id="Rectángulo_374023" data-name="Rectángulo 374023" width="30.549" height="5.143" transform="translate(472.696 164.257)" fill="#00dafd"/>
      <path id="Trazado_799733" data-name="Trazado 799733" d="M432.1,164.257h37.454V169.4H432.1" fill="#0097f1"/>
      <rect id="Rectángulo_374024" data-name="Rectángulo 374024" width="22.766" height="5.143" transform="translate(432.105 176.904)" fill="#00dafd"/>
      <rect id="Rectángulo_374025" data-name="Rectángulo 374025" width="63.549" height="5.143" transform="translate(457.72 176.904)" fill="#6ac7ff"/>
      <rect id="Rectángulo_374026" data-name="Rectángulo 374026" width="24.454" height="5.143" transform="translate(524.407 176.904)" fill="#0097f1"/>
      <path id="Trazado_799734" data-name="Trazado 799734" d="M549.02,193.724H530.254v-5.143H549.02" fill="#6ac7ff"/>
      <rect id="Rectángulo_374027" data-name="Rectángulo 374027" width="54.549" height="5.143" transform="translate(472.855 188.581)" fill="#00dafd"/>
      <path id="Trazado_799735" data-name="Trazado 799735" d="M432.263,188.581h37.454v5.143H432.263" fill="#0097f1"/>
      <path id="Trazado_799736" data-name="Trazado 799736" d="M218.338,172.248H93.751V21.455H218.338Zm-123.587-1H217.338V22.455H94.751Z" fill="#25292b"/>
      <rect id="Rectángulo_374028" data-name="Rectángulo 374028" width="116.757" height="16.263" transform="translate(97.666 25.013)" fill="#0097f1"/>
      <path id="Trazado_799737" data-name="Trazado 799737" d="M193.131,38.668a.7.7,0,0,1-.436-.153l-6.078-4.855a.7.7,0,0,1,0-1.093l6-4.793a.7.7,0,0,1,.873,1.094l-5.315,4.246,5.393,4.308a.7.7,0,0,1-.437,1.246" fill="#f2e9da"/>
      <path id="Trazado_799738" data-name="Trazado 799738" d="M202.439,38.668A.7.7,0,0,1,202,37.422l5.393-4.308-5.315-4.246a.7.7,0,0,1,.873-1.094l6,4.793a.7.7,0,0,1,0,1.093l-6.078,4.855a.7.7,0,0,1-.436.153" fill="#f2e9da"/>
      <path id="Trazado_799739" data-name="Trazado 799739" d="M196.42,39.951a.7.7,0,0,1-.763-.9l3.761-12.227a.7.7,0,0,1,1.338.411l-3.761,12.227a.7.7,0,0,1-.575.488" fill="#f2e9da"/>
      <rect id="Rectángulo_374029" data-name="Rectángulo 374029" width="62.766" height="5.143" transform="translate(97.667 52.534)" fill="#6ac7ff"/>
      <rect id="Rectángulo_374030" data-name="Rectángulo 374030" width="30.549" height="5.143" transform="translate(163.282 52.534)" fill="#0097f1"/>
      <rect id="Rectángulo_374031" data-name="Rectángulo 374031" width="17.454" height="5.143" transform="translate(196.969 52.534)" fill="#00dafd"/>
      <path id="Trazado_799740" data-name="Trazado 799740" d="M214.582,69.353H171.816V64.21h42.766" fill="#6ac7ff"/>
      <rect id="Rectángulo_374032" data-name="Rectángulo 374032" width="30.549" height="5.143" transform="translate(138.417 64.21)" fill="#0097f1"/>
      <path id="Trazado_799741" data-name="Trazado 799741" d="M97.825,64.211h37.454v5.143H97.825" fill="#00dafd"/>
      <rect id="Rectángulo_374033" data-name="Rectángulo 374033" width="22.766" height="5.143" transform="translate(97.825 76.858)" fill="#0097f1"/>
      <rect id="Rectángulo_374034" data-name="Rectángulo 374034" width="63.549" height="5.143" transform="translate(123.441 76.858)" fill="#6ac7ff"/>
      <rect id="Rectángulo_374035" data-name="Rectángulo 374035" width="24.454" height="5.143" transform="translate(190.128 76.858)" fill="#00dafd"/>
      <path id="Trazado_799742" data-name="Trazado 799742" d="M214.74,93.677H195.974V88.534H214.74" fill="#6ac7ff"/>
      <rect id="Rectángulo_374036" data-name="Rectángulo 374036" width="54.549" height="5.143" transform="translate(138.575 88.535)" fill="#0097f1"/>
      <path id="Trazado_799743" data-name="Trazado 799743" d="M97.983,88.535h37.454v5.143H97.983" fill="#00dafd"/>
      <rect id="Rectángulo_374037" data-name="Rectángulo 374037" width="62.766" height="5.143" transform="translate(97.984 108.093)" fill="#6ac7ff"/>
      <rect id="Rectángulo_374038" data-name="Rectángulo 374038" width="30.549" height="5.143" transform="translate(163.599 108.093)" fill="#0097f1"/>
      <rect id="Rectángulo_374039" data-name="Rectángulo 374039" width="17.454" height="5.143" transform="translate(197.286 108.093)" fill="#00dafd"/>
      <path id="Trazado_799744" data-name="Trazado 799744" d="M214.9,124.913H172.132V119.77H214.9" fill="#6ac7ff"/>
      <rect id="Rectángulo_374040" data-name="Rectángulo 374040" width="30.549" height="5.143" transform="translate(138.734 119.77)" fill="#0097f1"/>
      <path id="Trazado_799745" data-name="Trazado 799745" d="M98.142,119.77H135.6v5.143H98.142" fill="#00dafd"/>
      <rect id="Rectángulo_374041" data-name="Rectángulo 374041" width="22.766" height="5.143" transform="translate(98.142 132.417)" fill="#0097f1"/>
      <rect id="Rectángulo_374042" data-name="Rectángulo 374042" width="63.549" height="5.143" transform="translate(123.758 132.417)" fill="#6ac7ff"/>
      <rect id="Rectángulo_374043" data-name="Rectángulo 374043" width="24.454" height="5.143" transform="translate(190.444 132.417)" fill="#00dafd"/>
      <path id="Trazado_799746" data-name="Trazado 799746" d="M215.057,149.237H196.291v-5.143h18.766" fill="#6ac7ff"/>
      <rect id="Rectángulo_374044" data-name="Rectángulo 374044" width="54.549" height="5.143" transform="translate(138.892 144.094)" fill="#0097f1"/>
      <path id="Trazado_799747" data-name="Trazado 799747" d="M98.3,144.094h37.454v5.143H98.3" fill="#00dafd"/>
      <g id="Grupo_1065055" data-name="Grupo 1065055" transform="translate(499.671 154.466)">
        <g id="Grupo_1065054" data-name="Grupo 1065054" clip-path="url(#clip-path)">
          <path id="Trazado_799748" data-name="Trazado 799748" d="M58.631,91.155h-6a.5.5,0,0,1,0-1h6a.5.5,0,0,1,0,1m-12,0h-6a.5.5,0,0,1,0-1h6a.5.5,0,0,1,0,1m-11.995-.1a.44.44,0,0,1-.062,0,13.344,13.344,0,0,1-5.784-2.16.5.5,0,1,1,.556-.83,12.35,12.35,0,0,0,5.351,2,.5.5,0,0,1-.061,1M64.621,91a.5.5,0,0,1-.082-.993,10.589,10.589,0,0,0,5.127-2.394.5.5,0,1,1,.649.76A11.583,11.583,0,0,1,64.7,91a.473.473,0,0,1-.083.007M.5,89.757a.5.5,0,0,1-.5-.5v-6a.5.5,0,0,1,1,0v6a.5.5,0,0,1-.5.5m24.529-5.141a.5.5,0,0,1-.436-.254,13.369,13.369,0,0,1-1.7-5.936.5.5,0,0,1,.477-.522.476.476,0,0,1,.521.477,12.193,12.193,0,0,0,1.577,5.489.5.5,0,0,1-.435.746m48.285-1.027a.487.487,0,0,1-.159-.027.5.5,0,0,1-.315-.633,10.594,10.594,0,0,0,.554-3.392V77.152a.5.5,0,0,1,1,0v2.385a11.611,11.611,0,0,1-.606,3.712.5.5,0,0,1-.474.34M.513,77.757H.49a.5.5,0,0,1-.476-.523A11.915,11.915,0,0,1,1.9,71.339a.5.5,0,1,1,.84.541,10.937,10.937,0,0,0-1.728,5.4.5.5,0,0,1-.5.477M22.126,73.1a.5.5,0,0,1-.445-.272,10.985,10.985,0,0,0-3.8-4.209.5.5,0,0,1,.545-.84,12,12,0,0,1,4.147,4.594.5.5,0,0,1-.446.727m51.768-1.45a.5.5,0,0,1-.5-.5v-6a.5.5,0,0,1,1,0v6a.5.5,0,0,1-.5.5M6.713,68.126a.5.5,0,0,1-.228-.944,11.84,11.84,0,0,1,6.051-1.3.5.5,0,0,1,.474.524.467.467,0,0,1-.524.474,10.883,10.883,0,0,0-5.544,1.19.5.5,0,0,1-.229.056m67.181-8.474a.5.5,0,0,1-.5-.5v-6a.5.5,0,0,1,1,0v6a.5.5,0,0,1-.5.5m0-12a.5.5,0,0,1-.5-.5v-6a.5.5,0,0,1,1,0v6a.5.5,0,0,1-.5.5m0-12a.5.5,0,0,1-.5-.5v-6a.5.5,0,0,1,1,0v6a.5.5,0,0,1-.5.5m0-12a.5.5,0,0,1-.5-.5v-6a.5.5,0,0,1,1,0v6a.5.5,0,0,1-.5.5m-.082-12a.5.5,0,0,1-.412-.575,13.285,13.285,0,0,1,2.408-5.688.5.5,0,1,1,.8.594,12.278,12.278,0,0,0-2.226,5.258.5.5,0,0,1-.491.418.473.473,0,0,1-.083-.007m6.5-9.575a.5.5,0,0,1,.221-.671A13.179,13.179,0,0,1,86.538,0a.478.478,0,0,1,.474.5.524.524,0,0,1-.527.5,12.131,12.131,0,0,0-5.506,1.3.505.505,0,0,1-.225.053.5.5,0,0,1-.446-.275" fill="#ffc202"/>
        </g>
      </g>
    </g>
  </g>
</svg>
