<svg xmlns="http://www.w3.org/2000/svg" xmlns:xlink="http://www.w3.org/1999/xlink" width="69" height="69" viewBox="0 0 69 69">
  <defs>
    <clipPath id="clip-path">
      <rect id="Rectángulo_374870" data-name="Rectángulo 374870" width="69" height="69" transform="translate(456 8552)" fill="#00eb6d"/>
    </clipPath>
  </defs>
  <g id="Enmascarar_grupo_1059058" data-name="Enmascarar grupo 1059058" transform="translate(-456 -8552)" clip-path="url(#clip-path)">
    <g id="database" transform="translate(453.7 8549.7)">
      <path id="Trazado_800171" data-name="Trazado 800171" d="M44.85,32.2V43.7c0,3.174-9.269,5.75-20.7,5.75S3.45,46.874,3.45,43.7V32.2c0,3.174,9.269,5.75,20.7,5.75S44.85,35.374,44.85,32.2Z" fill="#c0ab91"/>
      <path id="Trazado_800172" data-name="Trazado 800172" d="M70.15,34.5v6.9l-5.244.874a15.049,15.049,0,0,1-1.127,2.737l3.082,4.324-4.876,4.876L58.317,51.6A2.316,2.316,0,0,0,59.8,49.45v-9.2a2.265,2.265,0,0,0-.126-.748A9.866,9.866,0,0,0,59.8,37.95a9.2,9.2,0,0,0-14.95-7.176V24.15a14.961,14.961,0,0,1,1.426-.506L47.15,18.4h6.9l.874,5.244a15.049,15.049,0,0,1,2.737,1.127l4.324-3.082,4.876,4.876-3.082,4.324a15.049,15.049,0,0,1,1.127,2.737Z" fill="#ffeb99"/>
      <rect id="Rectángulo_374873" data-name="Rectángulo 374873" width="46" height="13.8" rx="2.3" transform="translate(13.8 56.35)" fill="#57a4ff"/>
      <path id="Trazado_800173" data-name="Trazado 800173" d="M59.8,58.65v9.2a2.307,2.307,0,0,1-2.3,2.3H52.9a2.307,2.307,0,0,0,2.3-2.3v-9.2a2.307,2.307,0,0,0-2.3-2.3h4.6A2.307,2.307,0,0,1,59.8,58.65Z" fill="#2488ff"/>
      <path id="Trazado_800174" data-name="Trazado 800174" d="M59.8,37.95a9.867,9.867,0,0,1-.127,1.552A2.315,2.315,0,0,0,57.5,37.95H44.85V30.774A9.2,9.2,0,0,1,59.8,37.95Z" fill="#c6c5ca"/>
      <path id="Trazado_800175" data-name="Trazado 800175" d="M59.8,37.95a9.867,9.867,0,0,1-.127,1.552A2.315,2.315,0,0,0,57.5,37.95H55.2a9.22,9.22,0,0,0-6.877-8.913A9.2,9.2,0,0,1,59.8,37.95Z" fill="#acabb1"/>
      <path id="Trazado_800176" data-name="Trazado 800176" d="M48.3,51.75h6.9v4.6H48.3Z" fill="#c6c5ca"/>
      <path id="Trazado_800177" data-name="Trazado 800177" d="M44.85,20.7V32.2c0,3.174-9.269,5.75-20.7,5.75S3.45,35.374,3.45,32.2V20.7c0,3.174,9.269,5.75,20.7,5.75S44.85,23.874,44.85,20.7Z" fill="#c0ab91"/>
      <path id="Trazado_800178" data-name="Trazado 800178" d="M44.85,9.2V20.7c0,3.174-9.269,5.75-20.7,5.75S3.45,23.874,3.45,20.7V9.2c0,3.174,9.269,5.75,20.7,5.75S44.85,12.374,44.85,9.2Z" fill="#c0ab91"/>
      <ellipse id="Elipse_4747" data-name="Elipse 4747" cx="20.7" cy="5.75" rx="20.7" ry="5.75" transform="translate(3.45 3.45)" fill="#ffcd00"/>
      <g id="Grupo_1065836" data-name="Grupo 1065836">
        <path id="Trazado_800179" data-name="Trazado 800179" d="M44.85,32.2V43.7c0,3.174-9.269,5.75-20.7,5.75-.782,0-1.541-.012-2.3-.046,10.35-.311,18.4-2.749,18.4-5.7V35.811C43.125,34.822,44.85,33.568,44.85,32.2Z" fill="#b39a7c"/>
        <path id="Trazado_800180" data-name="Trazado 800180" d="M44.85,20.7V32.2c0,1.368-1.725,2.622-4.6,3.611v-11.5C43.125,23.322,44.85,22.068,44.85,20.7Z" fill="#b39a7c"/>
        <path id="Trazado_800181" data-name="Trazado 800181" d="M44.85,9.2V20.7c0,1.369-1.725,2.622-4.6,3.611v-11.5c2.875-.989,4.6-2.242,4.6-3.611Z" fill="#b39a7c"/>
      </g>
      <path id="Trazado_800182" data-name="Trazado 800182" d="M44.85,9.2c0,3.174-9.269,5.75-20.7,5.75-.782,0-1.541-.012-2.3-.046,10.35-.311,18.4-2.748,18.4-5.7S32.2,3.806,21.85,3.5c.759-.034,1.518-.046,2.3-.046C35.581,3.45,44.85,6.026,44.85,9.2Z" fill="#ebbf00"/>
      <path id="Trazado_800183" data-name="Trazado 800183" d="M27.6,60.95h4.6v4.6H27.6Z" fill="#ffeb99"/>
      <rect id="Rectángulo_374874" data-name="Rectángulo 374874" width="46" height="13.8" rx="2.3" transform="translate(13.8 37.95)" fill="#57a4ff"/>
      <path id="Trazado_800184" data-name="Trazado 800184" d="M59.8,40.25v9.2a2.307,2.307,0,0,1-2.3,2.3H52.9a2.307,2.307,0,0,0,2.3-2.3v-9.2a2.307,2.307,0,0,0-2.3-2.3h4.6A2.307,2.307,0,0,1,59.8,40.25Z" fill="#2488ff"/>
      <path id="Trazado_800185" data-name="Trazado 800185" d="M27.6,42.55h4.6v4.6H27.6Z" fill="#ffeb99"/>
      <path id="Trazado_800186" data-name="Trazado 800186" d="M18.4,51.75h6.9v4.6H18.4Z" fill="#c6c5ca"/>
      <path id="Trazado_800187" data-name="Trazado 800187" d="M18.4,60.95H23v4.6H18.4Z" fill="#ffeb99"/>
      <path id="Trazado_800188" data-name="Trazado 800188" d="M18.4,42.55H23v4.6H18.4Z" fill="#ffeb99"/>
      <path id="Trazado_800189" data-name="Trazado 800189" d="M23,41.4H18.4a1.15,1.15,0,0,0-1.15,1.15v4.6A1.15,1.15,0,0,0,18.4,48.3H23a1.15,1.15,0,0,0,1.15-1.15v-4.6A1.15,1.15,0,0,0,23,41.4ZM21.85,46h-2.3V43.7h2.3Z"/>
      <path id="Trazado_800190" data-name="Trazado 800190" d="M32.2,41.4H27.6a1.15,1.15,0,0,0-1.15,1.15v4.6A1.15,1.15,0,0,0,27.6,48.3h4.6a1.15,1.15,0,0,0,1.15-1.15v-4.6A1.15,1.15,0,0,0,32.2,41.4ZM31.05,46h-2.3V43.7h2.3Z"/>
      <path id="Trazado_800191" data-name="Trazado 800191" d="M35.65,41.4h16.1v2.3H35.65Z"/>
      <path id="Trazado_800192" data-name="Trazado 800192" d="M54.05,41.4h2.3v2.3h-2.3Z"/>
      <path id="Trazado_800193" data-name="Trazado 800193" d="M35.65,46h16.1v2.3H35.65Z"/>
      <path id="Trazado_800194" data-name="Trazado 800194" d="M54.05,46h2.3v2.3h-2.3Z"/>
      <path id="Trazado_800195" data-name="Trazado 800195" d="M18.4,66.7H23a1.15,1.15,0,0,0,1.15-1.15v-4.6A1.15,1.15,0,0,0,23,59.8H18.4a1.15,1.15,0,0,0-1.15,1.15v4.6A1.15,1.15,0,0,0,18.4,66.7Zm1.15-4.6h2.3v2.3h-2.3Z"/>
      <path id="Trazado_800196" data-name="Trazado 800196" d="M27.6,66.7h4.6a1.15,1.15,0,0,0,1.15-1.15v-4.6A1.15,1.15,0,0,0,32.2,59.8H27.6a1.15,1.15,0,0,0-1.15,1.15v4.6A1.15,1.15,0,0,0,27.6,66.7Zm1.15-4.6h2.3v2.3h-2.3Z"/>
      <path id="Trazado_800197" data-name="Trazado 800197" d="M35.65,59.8h16.1v2.3H35.65Z"/>
      <path id="Trazado_800198" data-name="Trazado 800198" d="M54.05,59.8h2.3v2.3h-2.3Z"/>
      <path id="Trazado_800199" data-name="Trazado 800199" d="M35.65,64.4h16.1v2.3H35.65Z"/>
      <path id="Trazado_800200" data-name="Trazado 800200" d="M54.05,64.4h2.3v2.3h-2.3Z"/>
      <path id="Trazado_800201" data-name="Trazado 800201" d="M70.334,33.361,65.78,32.6a13.171,13.171,0,0,0-.667-1.61l2.679-3.76a1.15,1.15,0,0,0-.115-1.483L62.8,20.872a1.15,1.15,0,0,0-1.484-.115l-3.76,2.68a16.361,16.361,0,0,0-1.61-.667l-.759-4.554a1.15,1.15,0,0,0-1.139-.966h-6.9a1.15,1.15,0,0,0-1.138.966L46,18.308V9.2c0-4.531-10.994-6.9-21.85-6.9S2.3,4.669,2.3,9.2V43.7c0,3.484,6.118,5.187,10.373,5.957A3.44,3.44,0,0,0,16.1,52.9h1.15v2.3H16.1a3.46,3.46,0,0,0-3.45,3.45v9.2A3.46,3.46,0,0,0,16.1,71.3H57.5a3.46,3.46,0,0,0,3.45-3.45v-9.2A3.46,3.46,0,0,0,57.5,55.2H56.35V52.9H57.5a3.143,3.143,0,0,0,.575-.057l3.243,2.311a1.2,1.2,0,0,0,.667.207,1.178,1.178,0,0,0,.816-.334l4.876-4.876a1.15,1.15,0,0,0,.115-1.484l-2.68-3.761a13.17,13.17,0,0,0,.667-1.61l4.554-.759A1.15,1.15,0,0,0,71.3,41.4V34.5a1.15,1.15,0,0,0-.966-1.139ZM46,31.384A8,8,0,0,1,58.592,37a3.464,3.464,0,0,0-1.092-.2H46ZM24.15,4.6C36.8,4.6,43.7,7.636,43.7,9.2s-6.9,4.6-19.55,4.6S4.6,10.764,4.6,9.2,11.5,4.6,24.15,4.6ZM4.6,12.443c3.784,2.4,11.684,3.657,19.55,3.657s15.766-1.254,19.55-3.657V20.7c0,1.564-6.9,4.6-19.55,4.6S4.6,22.264,4.6,20.7ZM12.65,40.25v7.061C6.819,46.207,4.6,44.539,4.6,43.7V35.443a24.7,24.7,0,0,0,8.694,2.806,3.433,3.433,0,0,0-.644,2ZM4.6,32.2V23.943c3.784,2.4,11.684,3.657,19.55,3.657s15.766-1.253,19.55-3.657V32.2c0,1.564-6.9,4.6-19.55,4.6S4.6,33.764,4.6,32.2Zm39.1,3.243V36.8H40.848A14.339,14.339,0,0,0,43.7,35.443ZM57.5,57.5a1.15,1.15,0,0,1,1.15,1.15v9.2A1.15,1.15,0,0,1,57.5,69H16.1a1.15,1.15,0,0,1-1.15-1.15v-9.2A1.15,1.15,0,0,1,16.1,57.5ZM19.55,55.2V52.9h4.6v2.3Zm6.9,0V52.9h20.7v2.3Zm23,0V52.9h4.6v2.3Zm9.2-5.75A1.15,1.15,0,0,1,57.5,50.6H16.1a1.15,1.15,0,0,1-1.15-1.15v-9.2A1.15,1.15,0,0,1,16.1,39.1H57.5a1.15,1.15,0,0,1,1.15,1.15ZM69,40.423l-4.278.713a1.179,1.179,0,0,0-.92.805,13.581,13.581,0,0,1-1.035,2.53,1.122,1.122,0,0,0,.08,1.208l2.507,3.53-3.5,3.5-1.633-1.161a3.418,3.418,0,0,0,.724-2.093v-9.2a3.271,3.271,0,0,0-.115-.828,10.715,10.715,0,0,0,.115-1.472A10.327,10.327,0,0,0,46,28.693V24.967a5.667,5.667,0,0,1,.621-.219,1.182,1.182,0,0,0,.793-.92l.713-4.278h4.945l.713,4.278a1.179,1.179,0,0,0,.805.92,13.915,13.915,0,0,1,2.53,1.035,1.15,1.15,0,0,0,1.208-.08l3.53-2.507,3.5,3.5-2.507,3.53a1.122,1.122,0,0,0-.081,1.207A13.581,13.581,0,0,1,63.8,33.96a1.179,1.179,0,0,0,.92.8L69,35.478Z"/>
      <path id="Trazado_800202" data-name="Trazado 800202" d="M6.9,55.2H4.6v9.2a1.15,1.15,0,0,0,1.15,1.15h4.6v-2.3H6.9Z"/>
      <path id="Trazado_800203" data-name="Trazado 800203" d="M70.15,4.6H51.75V6.9H69V17.924l-3.113,3.113,1.626,1.626,3.45-3.45A1.15,1.15,0,0,0,71.3,18.4V5.75A1.15,1.15,0,0,0,70.15,4.6Z"/>
      <path id="Trazado_800204" data-name="Trazado 800204" d="M47.15,4.6h2.3V6.9h-2.3Z"/>
      <path id="Trazado_800205" data-name="Trazado 800205" d="M4.6,50.6H6.9v2.3H4.6Z"/>
    </g>
  </g>
</svg>
