<svg id="Grupo_1065857" data-name="Grupo 1065857" xmlns="http://www.w3.org/2000/svg" xmlns:xlink="http://www.w3.org/1999/xlink" width="207.078" height="112.984" viewBox="0 0 207.078 112.984">
  <defs>
    <clipPath id="clip-path">
      <rect id="Rectángulo_374897" data-name="Rectángulo 374897" width="207.078" height="112.984" transform="translate(0 0)" fill="none"/>
    </clipPath>
  </defs>
  <g id="Grupo_1065856" data-name="Grupo 1065856" clip-path="url(#clip-path)">
    <path id="Trazado_800292" data-name="Trazado 800292" d="M175.577,100.076H28.668a8.363,8.363,0,0,1-8.363-8.364V21.271a8.364,8.364,0,0,1,8.363-8.364H175.577a8.365,8.365,0,0,1,8.364,8.364V91.712a8.364,8.364,0,0,1-8.364,8.364" fill="#001d4d"/>
    <path id="Trazado_800293" data-name="Trazado 800293" d="M183.94,36.374a523,523,0,0,0-163.636,0V28.59a523,523,0,0,1,163.636,0v7.784" fill="#001435"/>
    <rect id="Rectángulo_374881" data-name="Rectángulo 374881" width="163.636" height="15.683" transform="translate(20.304 12.907)" fill="#00feee"/>
    <path id="Trazado_800297" data-name="Trazado 800297" d="M0,0H163.636V15.683H0Z" transform="translate(20.304 12.907)" fill="#00dafd"/>
    <rect id="Rectángulo_374883" data-name="Rectángulo 374883" width="163.636" height="0.705" transform="translate(20.304 12.908)" fill="#ffc202"/>
    <path id="Trazado_800294" data-name="Trazado 800294" d="M36.33,23.138H27.946a2.389,2.389,0,0,1,0-4.778H36.33a2.389,2.389,0,0,1,0,4.778" fill="#00eb6d"/>
    <path id="Trazado_800295" data-name="Trazado 800295" d="M54.823,23.138H46.439a2.389,2.389,0,0,1,0-4.778h8.384a2.389,2.389,0,0,1,0,4.778" fill="#ffc202"/>
    <path id="Trazado_800296" data-name="Trazado 800296" d="M73.193,23.138H64.809a2.389,2.389,0,1,1,0-4.778h8.384a2.389,2.389,0,0,1,0,4.778" fill="#00eb6d"/>
    <rect id="Rectángulo_374884" data-name="Rectángulo 374884" width="62.731" height="1.762" transform="translate(27.557 37.323)" fill="#ffc202"/>
    <rect id="Rectángulo_374899" data-name="Rectángulo 374899" width="29.715" height="1.762" transform="translate(27.557 60.933)" fill="#ffc202"/>
    <rect id="Rectángulo_374904" data-name="Rectángulo 374904" width="29.715" height="1.762" transform="translate(27.557 74.841)" fill="#ffc202"/>
    <rect id="Rectángulo_374908" data-name="Rectángulo 374908" width="29.715" height="1.762" transform="translate(27.557 88.749)" fill="#ffc202"/>
    <rect id="Rectángulo_374901" data-name="Rectángulo 374901" width="29.715" height="1.762" transform="translate(61.625 60.933)" fill="#ffc202"/>
    <rect id="Rectángulo_374903" data-name="Rectángulo 374903" width="29.715" height="1.762" transform="translate(61.625 74.841)" fill="#ffc202"/>
    <rect id="Rectángulo_374907" data-name="Rectángulo 374907" width="29.715" height="1.762" transform="translate(61.625 88.749)" fill="#ffc202"/>
    <rect id="Rectángulo_374885" data-name="Rectángulo 374885" width="62.731" height="1.762" transform="translate(27.557 44.723)" fill="#ffc202"/>
    <rect id="Rectángulo_374898" data-name="Rectángulo 374898" width="29.715" height="1.762" transform="translate(27.557 68.332)" fill="#ffc202"/>
    <rect id="Rectángulo_374905" data-name="Rectángulo 374905" width="29.715" height="1.762" transform="translate(27.557 82.24)" fill="#ffc202"/>
    <rect id="Rectángulo_374900" data-name="Rectángulo 374900" width="29.715" height="1.762" transform="translate(61.625 68.332)" fill="#ffc202"/>
    <rect id="Rectángulo_374902" data-name="Rectángulo 374902" width="29.715" height="1.762" transform="translate(61.625 82.24)" fill="#ffc202"/>
    <rect id="Rectángulo_374886" data-name="Rectángulo 374886" width="135.514" height="1.762" transform="translate(27.557 52.123)" fill="#ffc202"/>
    <rect id="Rectángulo_374887" data-name="Rectángulo 374887" width="60.568" height="20.357" transform="translate(113.192 60.933)" fill="#ffc202"/>
    <rect id="Rectángulo_374888" data-name="Rectángulo 374888" width="60.568" height="4.778" transform="translate(113.192 88.573)" fill="#ffc202"/>
    <rect id="Rectángulo_374891" data-name="Rectángulo 374891" width="77.649" height="9.162" transform="translate(95.313 37.323)" fill="#0097f1"/>
    <rect id="Rectángulo_374892" data-name="Rectángulo 374892" width="193.177" height="99.084" transform="translate(6.95 6.95)" fill="none" stroke="#00eb6d" stroke-miterlimit="10" stroke-width="1"/>
    <rect id="Rectángulo_374893" data-name="Rectángulo 374893" width="12.901" height="12.901" transform="translate(193.677 99.583)" fill="none" stroke="#00eb6d" stroke-miterlimit="10" stroke-width="1"/>
    <rect id="Rectángulo_374894" data-name="Rectángulo 374894" width="12.901" height="12.901" transform="translate(193.677 0.499)" fill="none" stroke="#00eb6d" stroke-miterlimit="10" stroke-width="1"/>
    <rect id="Rectángulo_374895" data-name="Rectángulo 374895" width="12.901" height="12.901" transform="translate(0.5 0.499)" fill="none" stroke="#00eb6d" stroke-miterlimit="10" stroke-width="1"/>
    <rect id="Rectángulo_374896" data-name="Rectángulo 374896" width="12.901" height="12.901" transform="translate(0.5 99.583)" fill="none" stroke="#00eb6d" stroke-miterlimit="10" stroke-width="1"/>
  </g>
</svg>
