<svg xmlns="http://www.w3.org/2000/svg" xmlns:xlink="http://www.w3.org/1999/xlink" width="400" height="508" viewBox="0 0 400 508">
  <defs>
    <clipPath id="clip-path">
      <rect id="Rectángulo_374856" data-name="Rectángulo 374856" width="381.884" height="325.105" fill="none"/>
    </clipPath>
    <clipPath id="clip-path-2">
      <rect id="Rectángulo_374855" data-name="Rectángulo 374855" width="381.884" height="661.105" fill="none"/>
    </clipPath>
    <clipPath id="clip-path-3">
      <rect id="Rectángulo_374852" data-name="Rectángulo 374852" width="33.982" height="35.883" fill="none"/>
    </clipPath>
    <clipPath id="clip-path-4">
      <rect id="Rectángulo_374853" data-name="Rectángulo 374853" width="12.945" height="10.422" fill="none"/>
    </clipPath>
    <clipPath id="clip-path-5">
      <rect id="Rectángulo_374854" data-name="Rectángulo 374854" width="60.375" height="6.015" fill="none"/>
    </clipPath>
  </defs>
  <g id="Grupo_1066186" data-name="Grupo 1066186" transform="translate(-180 -5103)">
    <rect id="Rectángulo_374842" data-name="Rectángulo 374842" width="400" height="508" rx="20" transform="translate(180 5103)" fill="#0097f1"/>
    <rect id="Rectángulo_374849" data-name="Rectángulo 374849" width="322" height="166" rx="20" transform="translate(219 5145)" fill="#fff"/>
    <path id="Trazado_802387" data-name="Trazado 802387" d="M5.555,20.217a4.368,4.368,0,0,1-2.342-1.446,4.2,4.2,0,0,1-.787-2.659V14.363q0-2.136-1.863-2.136V10.953q1.863,0,1.863-2.127V7a4.19,4.19,0,0,1,.787-2.6A4.373,4.373,0,0,1,5.555,2.964l.334,1.011q-1.837.589-1.837,3.067V8.817a2.871,2.871,0,0,1-1.468,2.777,2.906,2.906,0,0,1,1.468,2.8v1.811q.026,2.417,1.837,3Zm5.8,7.116.932.633a4.145,4.145,0,0,0-.844,2.408v1.2H9.826V30.55a4.032,4.032,0,0,1,.426-1.775A4.256,4.256,0,0,1,11.355,27.333Zm2.769,0,.932.633a4.145,4.145,0,0,0-.844,2.408v1.2H12.595V30.55a4.032,4.032,0,0,1,.426-1.775A4.256,4.256,0,0,1,14.124,27.333Zm3.744,4.157.053,1.2a3.465,3.465,0,0,1,2.848-1.371q3.015,0,3.041,3.4V41H22.184V34.707a2.189,2.189,0,0,0-.47-1.521,1.884,1.884,0,0,0-1.437-.492,2.347,2.347,0,0,0-1.389.422,2.865,2.865,0,0,0-.932,1.107V41H16.33V31.49Zm7.963,4.667a5.617,5.617,0,0,1,.549-2.514,4.1,4.1,0,0,1,1.529-1.723,4.163,4.163,0,0,1,2.237-.606,4.01,4.01,0,0,1,3.142,1.345,5.174,5.174,0,0,1,1.2,3.577v.114a5.666,5.666,0,0,1-.532,2.492,4.038,4.038,0,0,1-1.521,1.718,4.211,4.211,0,0,1-2.272.615,4,4,0,0,1-3.133-1.345,5.147,5.147,0,0,1-1.2-3.56Zm1.635.193a4.068,4.068,0,0,0,.734,2.54,2.487,2.487,0,0,0,3.933-.013,4.449,4.449,0,0,0,.729-2.72,4.061,4.061,0,0,0-.743-2.536,2.361,2.361,0,0,0-1.973-.971,2.335,2.335,0,0,0-1.942.958A4.416,4.416,0,0,0,27.466,36.351Zm10.591-4.86.044,1.055a3.512,3.512,0,0,1,2.821-1.23,2.719,2.719,0,0,1,2.716,1.529,3.6,3.6,0,0,1,1.235-1.107,3.647,3.647,0,0,1,1.8-.422q3.129,0,3.182,3.313V41H48.226V34.725A2.184,2.184,0,0,0,47.76,33.2a2.051,2.051,0,0,0-1.564-.505,2.156,2.156,0,0,0-1.5.541A2.193,2.193,0,0,0,44,34.689V41H42.363V34.769a1.814,1.814,0,0,0-2.03-2.074,2.175,2.175,0,0,0-2.188,1.362V41H36.519V31.49Zm22.3,4.86a5.654,5.654,0,0,1-1,3.5,3.2,3.2,0,0,1-2.689,1.323A3.315,3.315,0,0,1,53.877,39.9L53.8,41H52.3V27.5H53.93v5.036a3.3,3.3,0,0,1,2.716-1.222,3.221,3.221,0,0,1,2.72,1.31,5.824,5.824,0,0,1,.989,3.586Zm-1.626-.185a4.394,4.394,0,0,0-.642-2.566,2.124,2.124,0,0,0-1.846-.905,2.387,2.387,0,0,0-2.312,1.494V38.3A2.454,2.454,0,0,0,56.259,39.8a2.112,2.112,0,0,0,1.819-.905A4.672,4.672,0,0,0,58.729,36.166ZM67,32.949a4.873,4.873,0,0,0-.8-.062,2.143,2.143,0,0,0-2.171,1.362V41H62.4V31.49h1.582l.026,1.1a2.532,2.532,0,0,1,2.268-1.274,1.661,1.661,0,0,1,.721.123Zm5.273,8.227a4.155,4.155,0,0,1-3.146-1.27,4.714,4.714,0,0,1-1.213-3.4v-.3a5.707,5.707,0,0,1,.541-2.527,4.217,4.217,0,0,1,1.512-1.74,3.8,3.8,0,0,1,2.1-.628,3.562,3.562,0,0,1,2.883,1.222,5.289,5.289,0,0,1,1.028,3.5v.677H69.539a3.38,3.38,0,0,0,.822,2.272,2.583,2.583,0,0,0,2,.866,2.832,2.832,0,0,0,1.459-.352,3.666,3.666,0,0,0,1.046-.932l.993.773A3.993,3.993,0,0,1,72.272,41.176Zm-.2-8.525a2.169,2.169,0,0,0-1.652.716,3.482,3.482,0,0,0-.826,2.008h4.764v-.123a3.1,3.1,0,0,0-.668-1.92A2.042,2.042,0,0,0,72.07,32.65Zm5.889-.844-.923-.633a4.231,4.231,0,0,0,.844-2.408V27.5h1.608v1.143a4.343,4.343,0,0,1-1.529,3.164Zm2.7,0-.923-.633a4.231,4.231,0,0,0,.844-2.408V27.5h1.608v1.143a4.343,4.343,0,0,1-1.529,3.164Zm3.454,8.341a1.018,1.018,0,0,1,.25-.7.954.954,0,0,1,.751-.281.983.983,0,0,1,.76.281,1,1,0,0,1,.259.7.944.944,0,0,1-.259.677,1,1,0,0,1-.76.272.9.9,0,0,1-1-.949Zm.009-7.761a1.018,1.018,0,0,1,.25-.7.954.954,0,0,1,.751-.281.983.983,0,0,1,.76.281,1,1,0,0,1,.259.7.944.944,0,0,1-.259.677,1,1,0,0,1-.76.272.9.9,0,0,1-1-.949Zm10.072-5.054.932.633a4.145,4.145,0,0,0-.844,2.408v1.2H92.663V30.55a4.032,4.032,0,0,1,.426-1.775A4.256,4.256,0,0,1,94.192,27.333Zm2.769,0,.932.633a4.145,4.145,0,0,0-.844,2.408v1.2H95.432V30.55a4.032,4.032,0,0,1,.426-1.775A4.256,4.256,0,0,1,96.961,27.333Zm8,.87h1.7v9.062a3.753,3.753,0,0,1-1.1,2.874,4.117,4.117,0,0,1-2.94,1.037,4.232,4.232,0,0,1-2.971-.976,3.523,3.523,0,0,1-1.063-2.733h1.688a2.121,2.121,0,0,0,2.347,2.329,2.263,2.263,0,0,0,1.692-.659,2.554,2.554,0,0,0,.655-1.846Zm3.885,7.954a5.617,5.617,0,0,1,.549-2.514,4.1,4.1,0,0,1,1.529-1.723,4.163,4.163,0,0,1,2.237-.606,4.01,4.01,0,0,1,3.142,1.345,5.174,5.174,0,0,1,1.2,3.577v.114a5.666,5.666,0,0,1-.532,2.492,4.038,4.038,0,0,1-1.521,1.718,4.211,4.211,0,0,1-2.272.615,4,4,0,0,1-3.133-1.345,5.147,5.147,0,0,1-1.2-3.56Zm1.635.193a4.068,4.068,0,0,0,.734,2.54,2.487,2.487,0,0,0,3.933-.013,4.449,4.449,0,0,0,.729-2.72,4.061,4.061,0,0,0-.743-2.536,2.361,2.361,0,0,0-1.973-.971,2.335,2.335,0,0,0-1.942.958A4.416,4.416,0,0,0,110.479,36.351Zm10.6-4.86.053,1.2a3.465,3.465,0,0,1,2.848-1.371q3.015,0,3.041,3.4V41h-1.626V34.707a2.189,2.189,0,0,0-.47-1.521,1.884,1.884,0,0,0-1.437-.492,2.347,2.347,0,0,0-1.389.422,2.865,2.865,0,0,0-.932,1.107V41H119.54V31.49ZM135.343,41a3.416,3.416,0,0,1-.229-1,3.628,3.628,0,0,1-2.707,1.178,3.357,3.357,0,0,1-2.307-.8,2.573,2.573,0,0,1-.9-2.017,2.688,2.688,0,0,1,1.129-2.307,5.325,5.325,0,0,1,3.177-.822h1.582v-.747a1.826,1.826,0,0,0-.51-1.358,2.049,2.049,0,0,0-1.5-.505,2.371,2.371,0,0,0-1.459.439,1.3,1.3,0,0,0-.589,1.063h-1.635a2.244,2.244,0,0,1,.505-1.375,3.449,3.449,0,0,1,1.371-1.05,4.613,4.613,0,0,1,1.9-.387,3.759,3.759,0,0,1,2.575.822,2.964,2.964,0,0,1,.967,2.263v4.377a5.351,5.351,0,0,0,.334,2.083V41Zm-2.7-1.239a2.858,2.858,0,0,0,1.45-.4,2.392,2.392,0,0,0,.993-1.028V36.386h-1.274q-2.988,0-2.988,1.749a1.48,1.48,0,0,0,.51,1.2A1.959,1.959,0,0,0,132.645,39.761Zm8.824-10.573v2.3h1.775v1.257h-1.775v5.9a1.32,1.32,0,0,0,.237.858,1,1,0,0,0,.809.286,3.937,3.937,0,0,0,.773-.105V41a4.742,4.742,0,0,1-1.248.175,2.025,2.025,0,0,1-1.644-.659,2.832,2.832,0,0,1-.554-1.872v-5.9h-1.731V31.49h1.731v-2.3Zm5.3,3.454a3.457,3.457,0,0,1,2.813-1.327q3.015,0,3.041,3.4V41H151V34.707a2.189,2.189,0,0,0-.47-1.521,1.884,1.884,0,0,0-1.437-.492,2.347,2.347,0,0,0-1.389.422,2.865,2.865,0,0,0-.932,1.107V41h-1.626V27.5h1.626ZM160.928,41a3.416,3.416,0,0,1-.229-1,3.628,3.628,0,0,1-2.707,1.178,3.357,3.357,0,0,1-2.307-.8,2.573,2.573,0,0,1-.9-2.017,2.688,2.688,0,0,1,1.129-2.307,5.325,5.325,0,0,1,3.177-.822h1.582v-.747a1.826,1.826,0,0,0-.51-1.358,2.049,2.049,0,0,0-1.5-.505,2.371,2.371,0,0,0-1.459.439,1.3,1.3,0,0,0-.589,1.063h-1.635a2.244,2.244,0,0,1,.505-1.375,3.449,3.449,0,0,1,1.371-1.05,4.613,4.613,0,0,1,1.9-.387,3.759,3.759,0,0,1,2.575.822A2.964,2.964,0,0,1,162.3,34.4v4.377a5.351,5.351,0,0,0,.334,2.083V41Zm-2.7-1.239a2.858,2.858,0,0,0,1.45-.4,2.392,2.392,0,0,0,.993-1.028V36.386H159.4q-2.988,0-2.988,1.749a1.48,1.48,0,0,0,.51,1.2A1.959,1.959,0,0,0,158.229,39.761Zm8.156-8.271.053,1.2a3.465,3.465,0,0,1,2.848-1.371q3.015,0,3.041,3.4V41H170.7V34.707a2.189,2.189,0,0,0-.47-1.521,1.884,1.884,0,0,0-1.437-.492,2.347,2.347,0,0,0-1.389.422,2.865,2.865,0,0,0-.932,1.107V41h-1.626V31.49Zm7.7.316-.923-.633a4.231,4.231,0,0,0,.844-2.408V27.5h1.608v1.143a4.343,4.343,0,0,1-1.529,3.164Zm2.7,0-.923-.633a4.231,4.231,0,0,0,.844-2.408V27.5h1.608v1.143a4.343,4.343,0,0,1-1.529,3.164Zm3.454,11.742-.923-.633a4.241,4.241,0,0,0,.861-2.373V39.075h1.591V40.35a4,4,0,0,1-.435,1.775A4.156,4.156,0,0,1,180.237,43.549ZM15.812,51.333l.932.633a4.145,4.145,0,0,0-.844,2.408v1.2H14.282V54.55a4.032,4.032,0,0,1,.426-1.775A4.256,4.256,0,0,1,15.812,51.333Zm2.769,0,.932.633a4.145,4.145,0,0,0-.844,2.408v1.2H17.051V54.55a4.032,4.032,0,0,1,.426-1.775A4.256,4.256,0,0,1,18.58,51.333ZM26.394,65a3.416,3.416,0,0,1-.229-1,3.628,3.628,0,0,1-2.707,1.178,3.357,3.357,0,0,1-2.307-.8,2.573,2.573,0,0,1-.9-2.017,2.688,2.688,0,0,1,1.129-2.307,5.325,5.325,0,0,1,3.177-.822h1.582v-.747a1.826,1.826,0,0,0-.51-1.358,2.049,2.049,0,0,0-1.5-.505,2.371,2.371,0,0,0-1.459.439,1.3,1.3,0,0,0-.589,1.063H20.443a2.244,2.244,0,0,1,.505-1.375A3.449,3.449,0,0,1,22.32,55.7a4.613,4.613,0,0,1,1.9-.387,3.759,3.759,0,0,1,2.575.822,2.964,2.964,0,0,1,.967,2.263v4.377a5.351,5.351,0,0,0,.334,2.083V65Zm-2.7-1.239a2.858,2.858,0,0,0,1.45-.4,2.392,2.392,0,0,0,.993-1.028V60.386H24.864q-2.988,0-2.988,1.749a1.48,1.48,0,0,0,.51,1.2A1.959,1.959,0,0,0,23.7,63.761Zm14.651-3.41a5.694,5.694,0,0,1-.993,3.5,3.183,3.183,0,0,1-2.689,1.327,3.488,3.488,0,0,1-2.725-1.1v4.579H30.313V55.49H31.8l.079,1.055a3.35,3.35,0,0,1,2.76-1.23,3.243,3.243,0,0,1,2.711,1.292,5.756,5.756,0,0,1,1,3.595Zm-1.626-.185a4.2,4.2,0,0,0-.686-2.54,2.208,2.208,0,0,0-1.881-.932A2.39,2.39,0,0,0,31.939,58v4.544a2.4,2.4,0,0,0,2.232,1.3,2.2,2.2,0,0,0,1.859-.927A4.587,4.587,0,0,0,36.721,60.166Zm7.638,5.01a4.155,4.155,0,0,1-3.146-1.27A4.714,4.714,0,0,1,40,60.509v-.3a5.707,5.707,0,0,1,.541-2.527,4.217,4.217,0,0,1,1.512-1.74,3.8,3.8,0,0,1,2.1-.628,3.562,3.562,0,0,1,2.883,1.222,5.289,5.289,0,0,1,1.028,3.5v.677H41.625a3.38,3.38,0,0,0,.822,2.272,2.583,2.583,0,0,0,2,.866,2.832,2.832,0,0,0,1.459-.352,3.666,3.666,0,0,0,1.046-.932l.993.773A3.993,3.993,0,0,1,44.358,65.176Zm-.2-8.525a2.169,2.169,0,0,0-1.652.716,3.482,3.482,0,0,0-.826,2.008h4.764v-.123a3.1,3.1,0,0,0-.668-1.92A2.042,2.042,0,0,0,44.156,56.65ZM51.715,65H50.089V51.5h1.626Zm4.368,0H54.457V51.5h1.626Zm4.368,0H58.825V55.49h1.626ZM58.693,52.968a.971.971,0,0,1,.242-.668.907.907,0,0,1,.716-.272.922.922,0,0,1,.721.272.96.96,0,0,1,.246.668.929.929,0,0,1-.246.659.938.938,0,0,1-.721.264.924.924,0,0,1-.716-.264A.938.938,0,0,1,58.693,52.968Zm3.964,7.2a5.571,5.571,0,0,1,1.037-3.52,3.529,3.529,0,0,1,5.361-.189V51.5h1.626V65H69.188l-.079-1.02a3.311,3.311,0,0,1-2.716,1.2A3.248,3.248,0,0,1,63.7,63.822a5.634,5.634,0,0,1-1.042-3.533Zm1.626.185a4.218,4.218,0,0,0,.668,2.531A2.159,2.159,0,0,0,66.8,63.8a2.372,2.372,0,0,0,2.259-1.389V58.039a2.39,2.39,0,0,0-2.241-1.345,2.17,2.17,0,0,0-1.863.923A4.644,4.644,0,0,0,64.283,60.351Zm8.49-.193a5.617,5.617,0,0,1,.549-2.514,4.1,4.1,0,0,1,1.529-1.723,4.163,4.163,0,0,1,2.237-.606,4.01,4.01,0,0,1,3.142,1.345,5.174,5.174,0,0,1,1.2,3.577v.114a5.666,5.666,0,0,1-.532,2.492,4.038,4.038,0,0,1-1.521,1.718,4.211,4.211,0,0,1-2.272.615,4,4,0,0,1-3.133-1.345,5.147,5.147,0,0,1-1.2-3.56Zm1.635.193a4.068,4.068,0,0,0,.734,2.54,2.487,2.487,0,0,0,3.933-.013,4.449,4.449,0,0,0,.729-2.72,4.061,4.061,0,0,0-.743-2.536,2.361,2.361,0,0,0-1.973-.971,2.335,2.335,0,0,0-1.942.958A4.416,4.416,0,0,0,74.408,60.351Zm8.086-4.544-.923-.633a4.231,4.231,0,0,0,.844-2.408V51.5h1.608v1.143a4.343,4.343,0,0,1-1.529,3.164Zm2.7,0-.923-.633a4.231,4.231,0,0,0,.844-2.408V51.5h1.608v1.143a4.343,4.343,0,0,1-1.529,3.164Zm3.454,8.341a1.018,1.018,0,0,1,.25-.7.954.954,0,0,1,.751-.281.983.983,0,0,1,.76.281,1,1,0,0,1,.259.7.944.944,0,0,1-.259.677,1,1,0,0,1-.76.272.9.9,0,0,1-1-.949Zm.009-7.761a1.018,1.018,0,0,1,.25-.7.954.954,0,0,1,.751-.281.983.983,0,0,1,.76.281,1,1,0,0,1,.259.7.944.944,0,0,1-.259.677,1,1,0,0,1-.76.272.9.9,0,0,1-1-.949Zm10.072-5.054.932.633a4.145,4.145,0,0,0-.844,2.408v1.2H97.2V54.55a4.032,4.032,0,0,1,.426-1.775A4.256,4.256,0,0,1,98.728,51.333Zm2.769,0,.932.633a4.145,4.145,0,0,0-.844,2.408v1.2H99.967V54.55a4.032,4.032,0,0,1,.426-1.775A4.256,4.256,0,0,1,101.5,51.333Zm12.085,11.988a3.9,3.9,0,0,1-1.815,1.393,7.331,7.331,0,0,1-2.711.461,5.258,5.258,0,0,1-2.777-.734,4.889,4.889,0,0,1-1.876-2.087,7.21,7.21,0,0,1-.681-3.138V58.1a6.73,6.73,0,0,1,1.349-4.482,4.7,4.7,0,0,1,3.792-1.591,4.856,4.856,0,0,1,3.226,1.024,4.461,4.461,0,0,1,1.494,2.9h-1.687a2.79,2.79,0,0,0-3.023-2.549A2.987,2.987,0,0,0,106.3,54.6a5.82,5.82,0,0,0-.883,3.453V59.1a5.454,5.454,0,0,0,.984,3.426,3.191,3.191,0,0,0,2.663,1.271,5.882,5.882,0,0,0,1.661-.21,2.569,2.569,0,0,0,1.178-.71V60.008H108.94v-1.38h4.641Zm8.429.738a3.454,3.454,0,0,1-2.786,1.116,2.956,2.956,0,0,1-2.316-.883,3.823,3.823,0,0,1-.8-2.615V55.49h1.626v6.144q0,2.162,1.758,2.162a2.434,2.434,0,0,0,2.479-1.389V55.49h1.626V65h-1.547Zm8,1.116a4.155,4.155,0,0,1-3.146-1.27,4.714,4.714,0,0,1-1.213-3.4v-.3a5.707,5.707,0,0,1,.541-2.527,4.217,4.217,0,0,1,1.512-1.74,3.8,3.8,0,0,1,2.1-.628,3.562,3.562,0,0,1,2.883,1.222,5.289,5.289,0,0,1,1.028,3.5v.677h-6.442a3.38,3.38,0,0,0,.822,2.272,2.583,2.583,0,0,0,2,.866,2.832,2.832,0,0,0,1.459-.352,3.666,3.666,0,0,0,1.046-.932l.993.773A3.993,3.993,0,0,1,130.008,65.176Zm-.2-8.525a2.169,2.169,0,0,0-1.652.716,3.482,3.482,0,0,0-.826,2.008h4.764v-.123a3.1,3.1,0,0,0-.668-1.92A2.042,2.042,0,0,0,129.806,56.65Zm10.389.3a4.873,4.873,0,0,0-.8-.062,2.143,2.143,0,0,0-2.171,1.362V65H135.6V55.49h1.582l.026,1.1a2.532,2.532,0,0,1,2.268-1.274,1.661,1.661,0,0,1,.721.123Zm6.091,0a4.873,4.873,0,0,0-.8-.062,2.143,2.143,0,0,0-2.171,1.362V65h-1.626V55.49h1.582l.026,1.1a2.532,2.532,0,0,1,2.268-1.274,1.661,1.661,0,0,1,.721.123Zm5.273,8.227a4.155,4.155,0,0,1-3.146-1.27,4.714,4.714,0,0,1-1.213-3.4v-.3a5.707,5.707,0,0,1,.541-2.527,4.217,4.217,0,0,1,1.512-1.74,3.8,3.8,0,0,1,2.1-.628,3.562,3.562,0,0,1,2.883,1.222,5.289,5.289,0,0,1,1.028,3.5v.677h-6.442a3.38,3.38,0,0,0,.822,2.272,2.583,2.583,0,0,0,2,.866,2.832,2.832,0,0,0,1.459-.352,3.666,3.666,0,0,0,1.046-.932l.993.773A3.993,3.993,0,0,1,151.559,65.176Zm-.2-8.525a2.169,2.169,0,0,0-1.652.716,3.482,3.482,0,0,0-.826,2.008h4.764v-.123a3.1,3.1,0,0,0-.668-1.92A2.042,2.042,0,0,0,151.356,56.65Zm10.389.3a4.873,4.873,0,0,0-.8-.062,2.143,2.143,0,0,0-2.171,1.362V65h-1.626V55.49h1.582l.026,1.1a2.532,2.532,0,0,1,2.268-1.274,1.661,1.661,0,0,1,.721.123Zm.888,3.208a5.617,5.617,0,0,1,.549-2.514,4.1,4.1,0,0,1,1.529-1.723,4.163,4.163,0,0,1,2.237-.606,4.01,4.01,0,0,1,3.142,1.345,5.174,5.174,0,0,1,1.2,3.577v.114a5.666,5.666,0,0,1-.532,2.492,4.038,4.038,0,0,1-1.521,1.718,4.211,4.211,0,0,1-2.272.615,4,4,0,0,1-3.133-1.345,5.147,5.147,0,0,1-1.2-3.56Zm1.635.193a4.068,4.068,0,0,0,.734,2.54,2.487,2.487,0,0,0,3.933-.013,4.449,4.449,0,0,0,.729-2.72,4.061,4.061,0,0,0-.743-2.536,2.361,2.361,0,0,0-1.973-.971,2.335,2.335,0,0,0-1.942.958A4.416,4.416,0,0,0,164.268,60.351Zm8.086-4.544-.923-.633a4.231,4.231,0,0,0,.844-2.408V51.5h1.608v1.143a4.343,4.343,0,0,1-1.529,3.164Zm2.7,0-.923-.633a4.231,4.231,0,0,0,.844-2.408V51.5h1.608v1.143a4.343,4.343,0,0,1-1.529,3.164Zm3.454,11.742-.923-.633a4.241,4.241,0,0,0,.861-2.373V63.075h1.591V64.35a4,4,0,0,1-.435,1.775A4.156,4.156,0,0,1,178.506,67.549ZM11.355,75.333l.932.633a4.145,4.145,0,0,0-.844,2.408v1.2H9.826V78.55a4.032,4.032,0,0,1,.426-1.775A4.256,4.256,0,0,1,11.355,75.333Zm2.769,0,.932.633a4.145,4.145,0,0,0-.844,2.408v1.2H12.595V78.55a4.032,4.032,0,0,1,.426-1.775A4.256,4.256,0,0,1,14.124,75.333ZM18.272,89H16.646V79.49h1.626ZM16.515,76.968a.971.971,0,0,1,.242-.668.907.907,0,0,1,.716-.272.922.922,0,0,1,.721.272.96.96,0,0,1,.246.668.929.929,0,0,1-.246.659.938.938,0,0,1-.721.264.924.924,0,0,1-.716-.264A.938.938,0,0,1,16.515,76.968Zm3.964,7.2a5.571,5.571,0,0,1,1.037-3.52,3.529,3.529,0,0,1,5.361-.189V75.5H28.5V89H27.009l-.079-1.02a3.311,3.311,0,0,1-2.716,1.2,3.248,3.248,0,0,1-2.694-1.354,5.634,5.634,0,0,1-1.042-3.533Zm1.626.185a4.218,4.218,0,0,0,.668,2.531,2.159,2.159,0,0,0,1.846.914,2.372,2.372,0,0,0,2.259-1.389V82.039a2.39,2.39,0,0,0-2.241-1.345,2.17,2.17,0,0,0-1.863.923A4.644,4.644,0,0,0,22.1,84.351Zm9.141-4.544-.923-.633a4.231,4.231,0,0,0,.844-2.408V75.5h1.608v1.143a4.343,4.343,0,0,1-1.529,3.164Zm2.7,0-.923-.633a4.231,4.231,0,0,0,.844-2.408V75.5h1.608v1.143a4.343,4.343,0,0,1-1.529,3.164ZM37.4,88.147a1.018,1.018,0,0,1,.25-.7.954.954,0,0,1,.751-.281.983.983,0,0,1,.76.281,1,1,0,0,1,.259.7.944.944,0,0,1-.259.677,1,1,0,0,1-.76.272.9.9,0,0,1-1-.949Zm.009-7.761a1.018,1.018,0,0,1,.25-.7.954.954,0,0,1,.751-.281.983.983,0,0,1,.76.281,1,1,0,0,1,.259.7.944.944,0,0,1-.259.677,1,1,0,0,1-.76.272.9.9,0,0,1-1-.949Zm10.072-5.054.932.633a4.145,4.145,0,0,0-.844,2.408v1.2H45.949V78.55a4.032,4.032,0,0,1,.426-1.775A4.256,4.256,0,0,1,47.479,75.333Zm2.769,0,.932.633a4.145,4.145,0,0,0-.844,2.408v1.2H48.718V78.55a4.032,4.032,0,0,1,.426-1.775A4.256,4.256,0,0,1,50.247,75.333ZM57.806,89H56.171V78.163l-3.278,1.2V77.891l4.658-1.749h.255Zm11.628-4.3h1.775v1.327H69.434V89H67.8V86.029H61.972v-.958L67.7,76.2h1.731Zm-5.616,0H67.8V78.427l-.193.352Zm17.121-7.585L75.639,89H73.934l5.282-11.461H72.29V76.2h8.648Zm9.606,2.426a2.972,2.972,0,0,1-.505,1.705,3.439,3.439,0,0,1-1.367,1.169,3.668,3.668,0,0,1,1.586,1.257,3.163,3.163,0,0,1,.584,1.872,3.344,3.344,0,0,1-1.121,2.646,4.913,4.913,0,0,1-5.906,0,3.36,3.36,0,0,1-1.112-2.641,3.257,3.257,0,0,1,.567-1.872,3.528,3.528,0,0,1,1.569-1.266A3.354,3.354,0,0,1,83.5,81.239a3.014,3.014,0,0,1-.492-1.7,3.308,3.308,0,0,1,1.037-2.566,4.4,4.4,0,0,1,5.462,0A3.3,3.3,0,0,1,90.545,79.543Zm-1.327,5.968a2.359,2.359,0,0,0-.681-1.749,2.416,2.416,0,0,0-1.78-.677,2.288,2.288,0,0,0-2.426,2.426,2.271,2.271,0,0,0,.646,1.714,2.886,2.886,0,0,0,3.59,0A2.266,2.266,0,0,0,89.218,85.511Zm-2.443-8.147a2.1,2.1,0,0,0-1.551.593,2.455,2.455,0,0,0-.009,3.19,2.322,2.322,0,0,0,3.12,0,2.405,2.405,0,0,0-.022-3.168A2.068,2.068,0,0,0,86.774,77.363ZM101.276,89H92.892V87.831l4.43-4.922a10.524,10.524,0,0,0,1.358-1.815,3.029,3.029,0,0,0,.374-1.446A2.3,2.3,0,0,0,98.446,78a2.12,2.12,0,0,0-1.617-.642,2.511,2.511,0,0,0-1.885.69,2.635,2.635,0,0,0-.672,1.92H92.646a3.774,3.774,0,0,1,1.138-2.856,4.219,4.219,0,0,1,3.045-1.09,4.054,4.054,0,0,1,2.821.936,3.193,3.193,0,0,1,1.037,2.492q0,1.89-2.408,4.5l-3.428,3.718h6.425Zm4.087-7.189h1.222A2.685,2.685,0,0,0,108.4,81.2a2.026,2.026,0,0,0,.659-1.591,1.985,1.985,0,0,0-2.241-2.25,2.331,2.331,0,0,0-1.683.6,2.107,2.107,0,0,0-.628,1.6h-1.626a3.264,3.264,0,0,1,1.112-2.527,4.05,4.05,0,0,1,2.826-1.006,4,4,0,0,1,2.839.958,3.461,3.461,0,0,1,1.028,2.663,2.809,2.809,0,0,1-.541,1.617,3.264,3.264,0,0,1-1.472,1.169,3.145,3.145,0,0,1,1.63,1.107,3.076,3.076,0,0,1,.576,1.89,3.491,3.491,0,0,1-1.125,2.733,4.213,4.213,0,0,1-2.927,1.011,4.324,4.324,0,0,1-2.931-.976,3.236,3.236,0,0,1-1.129-2.575H104.4a2.092,2.092,0,0,0,.659,1.617,2.507,2.507,0,0,0,1.767.606,2.46,2.46,0,0,0,1.8-.615,2.371,2.371,0,0,0,.624-1.767,2.151,2.151,0,0,0-.686-1.714,2.987,2.987,0,0,0-1.978-.615h-1.222ZM119.971,84.7h1.775v1.327h-1.775V89h-1.635V86.029h-5.827v-.958l5.73-8.868h1.731Zm-5.616,0h3.981V78.427l-.193.352Zm9.606-2.118.65-6.381h6.557v1.5h-5.177L125.6,81.2a4.13,4.13,0,0,1,2.136-.554,3.531,3.531,0,0,1,2.777,1.156,4.53,4.53,0,0,1,1.028,3.125,4.372,4.372,0,0,1-1.068,3.116,3.892,3.892,0,0,1-2.984,1.138,4.045,4.045,0,0,1-2.769-.94,3.754,3.754,0,0,1-1.222-2.6h1.538a2.582,2.582,0,0,0,.782,1.657,2.432,2.432,0,0,0,1.67.558,2.194,2.194,0,0,0,1.78-.773,3.233,3.233,0,0,0,.646-2.136,2.968,2.968,0,0,0-.7-2.061,2.377,2.377,0,0,0-1.859-.778,2.681,2.681,0,0,0-1.67.466l-.431.352Zm15.592.791a3.978,3.978,0,0,1-1.217.976,3.3,3.3,0,0,1-1.551.369,3.41,3.41,0,0,1-1.929-.545,3.543,3.543,0,0,1-1.27-1.534,5.229,5.229,0,0,1-.448-2.184,5.327,5.327,0,0,1,.488-2.312,3.583,3.583,0,0,1,1.384-1.573,3.947,3.947,0,0,1,2.092-.545,3.574,3.574,0,0,1,2.993,1.419,6.191,6.191,0,0,1,1.094,3.872v.475q0,3.735-1.477,5.454a5.673,5.673,0,0,1-4.456,1.762h-.316v-1.38h.343a3.872,3.872,0,0,0,4.271-4.254Zm-2.5,0a2.511,2.511,0,0,0,1.507-.5,2.953,2.953,0,0,0,1.006-1.239v-.65a4.474,4.474,0,0,0-.694-2.6,2.122,2.122,0,0,0-3.48-.18,3.39,3.39,0,0,0-.65,2.167,3.528,3.528,0,0,0,.628,2.158A1.99,1.99,0,0,0,137.048,83.375Zm6.768-3.568-.923-.633a4.231,4.231,0,0,0,.844-2.408V75.5h1.608v1.143a4.343,4.343,0,0,1-1.529,3.164Zm2.7,0-.923-.633a4.231,4.231,0,0,0,.844-2.408V75.5h1.608v1.143a4.343,4.343,0,0,1-1.529,3.164Zm3.454,11.742-.923-.633a4.241,4.241,0,0,0,.861-2.373V87.075H151.5V88.35a4,4,0,0,1-.435,1.775A4.156,4.156,0,0,1,149.968,91.549ZM15.812,99.333l.932.633a4.145,4.145,0,0,0-.844,2.408v1.2H14.282v-1.02a4.032,4.032,0,0,1,.426-1.775A4.256,4.256,0,0,1,15.812,99.333Zm2.769,0,.932.633a4.145,4.145,0,0,0-.844,2.408v1.2H17.051v-1.02a4.032,4.032,0,0,1,.426-1.775A4.256,4.256,0,0,1,18.58,99.333Zm5.81,13.843a4.155,4.155,0,0,1-3.146-1.27,4.714,4.714,0,0,1-1.213-3.4v-.3a5.707,5.707,0,0,1,.541-2.527,4.217,4.217,0,0,1,1.512-1.74,3.8,3.8,0,0,1,2.1-.628,3.562,3.562,0,0,1,2.883,1.222,5.289,5.289,0,0,1,1.028,3.5v.677H21.656a3.38,3.38,0,0,0,.822,2.272,2.583,2.583,0,0,0,2,.866,2.832,2.832,0,0,0,1.459-.352,3.666,3.666,0,0,0,1.046-.932l.993.773A3.993,3.993,0,0,1,24.39,113.176Zm-.2-8.525a2.169,2.169,0,0,0-1.652.716,3.482,3.482,0,0,0-.826,2.008h4.764v-.123a3.1,3.1,0,0,0-.668-1.92A2.042,2.042,0,0,0,24.188,104.65Zm5.4,3.516a5.571,5.571,0,0,1,1.037-3.52,3.529,3.529,0,0,1,5.361-.189V99.5h1.626V113H36.114l-.079-1.02a3.311,3.311,0,0,1-2.716,1.2,3.248,3.248,0,0,1-2.694-1.354,5.634,5.634,0,0,1-1.042-3.533Zm1.626.185a4.218,4.218,0,0,0,.668,2.531,2.159,2.159,0,0,0,1.846.914,2.372,2.372,0,0,0,2.259-1.389v-4.368a2.39,2.39,0,0,0-2.241-1.345,2.17,2.17,0,0,0-1.863.923A4.644,4.644,0,0,0,31.21,108.351ZM46,113a3.416,3.416,0,0,1-.229-1,3.628,3.628,0,0,1-2.707,1.178,3.357,3.357,0,0,1-2.307-.8,2.573,2.573,0,0,1-.9-2.017,2.688,2.688,0,0,1,1.129-2.307,5.325,5.325,0,0,1,3.177-.822h1.582v-.747a1.826,1.826,0,0,0-.51-1.358,2.049,2.049,0,0,0-1.5-.505,2.371,2.371,0,0,0-1.459.439,1.3,1.3,0,0,0-.589,1.063H40.052a2.244,2.244,0,0,1,.505-1.375,3.449,3.449,0,0,1,1.371-1.05,4.613,4.613,0,0,1,1.9-.387,3.759,3.759,0,0,1,2.575.822,2.964,2.964,0,0,1,.967,2.263v4.377a5.351,5.351,0,0,0,.334,2.083V113Zm-2.7-1.239a2.858,2.858,0,0,0,1.45-.4,2.392,2.392,0,0,0,.993-1.028v-1.951H44.473q-2.988,0-2.988,1.749a1.48,1.48,0,0,0,.51,1.2A1.959,1.959,0,0,0,43.3,111.761Zm6.223-3.595a5.571,5.571,0,0,1,1.037-3.52,3.529,3.529,0,0,1,5.361-.189V99.5h1.626V113H56.057l-.079-1.02a3.311,3.311,0,0,1-2.716,1.2,3.248,3.248,0,0,1-2.694-1.354,5.634,5.634,0,0,1-1.042-3.533Zm1.626.185a4.218,4.218,0,0,0,.668,2.531,2.159,2.159,0,0,0,1.846.914,2.372,2.372,0,0,0,2.259-1.389v-4.368a2.39,2.39,0,0,0-2.241-1.345,2.17,2.17,0,0,0-1.863.923A4.644,4.644,0,0,0,51.152,108.351Zm9.141-4.544-.923-.633a4.231,4.231,0,0,0,.844-2.408V99.5h1.608v1.143a4.343,4.343,0,0,1-1.529,3.164Zm2.7,0-.923-.633a4.231,4.231,0,0,0,.844-2.408V99.5h1.608v1.143a4.343,4.343,0,0,1-1.529,3.164Zm3.454,8.341a1.018,1.018,0,0,1,.25-.7.954.954,0,0,1,.751-.281.983.983,0,0,1,.76.281,1,1,0,0,1,.259.7.944.944,0,0,1-.259.677,1,1,0,0,1-.76.272.9.9,0,0,1-1-.949Zm.009-7.761a1.018,1.018,0,0,1,.25-.7.954.954,0,0,1,.751-.281.983.983,0,0,1,.76.281,1,1,0,0,1,.259.7.944.944,0,0,1-.259.677,1,1,0,0,1-.76.272.9.9,0,0,1-1-.949Zm11.057,1.424h1.222a2.685,2.685,0,0,0,1.811-.606,2.026,2.026,0,0,0,.659-1.591,1.985,1.985,0,0,0-2.241-2.25,2.331,2.331,0,0,0-1.683.6,2.107,2.107,0,0,0-.628,1.6H75.023a3.264,3.264,0,0,1,1.112-2.527,4.05,4.05,0,0,1,2.826-1.006,4,4,0,0,1,2.839.958,3.461,3.461,0,0,1,1.028,2.663,2.809,2.809,0,0,1-.541,1.617,3.264,3.264,0,0,1-1.472,1.169,3.145,3.145,0,0,1,1.63,1.107,3.076,3.076,0,0,1,.576,1.89,3.491,3.491,0,0,1-1.125,2.733,4.213,4.213,0,0,1-2.927,1.011,4.324,4.324,0,0,1-2.931-.976,3.236,3.236,0,0,1-1.129-2.575h1.635a2.092,2.092,0,0,0,.659,1.617,2.507,2.507,0,0,0,1.767.606,2.46,2.46,0,0,0,1.8-.615,2.371,2.371,0,0,0,.624-1.767,2.151,2.151,0,0,0-.686-1.714,2.987,2.987,0,0,0-1.978-.615H77.511ZM93.639,113H85.254v-1.169l4.43-4.922a10.524,10.524,0,0,0,1.358-1.815,3.029,3.029,0,0,0,.374-1.446A2.3,2.3,0,0,0,90.809,102a2.12,2.12,0,0,0-1.617-.642,2.511,2.511,0,0,0-1.885.69,2.635,2.635,0,0,0-.672,1.92H85.008a3.774,3.774,0,0,1,1.138-2.856,4.219,4.219,0,0,1,3.045-1.09,4.054,4.054,0,0,1,2.821.936,3.193,3.193,0,0,1,1.037,2.492q0,1.89-2.408,4.5l-3.428,3.718h6.425ZM.167,139.206q1.784-.571,1.846-2.909v-1.934A2.767,2.767,0,0,1,3.6,131.595a2.747,2.747,0,0,1-1.591-2.769v-1.784q0-2.479-1.837-3.067l.334-1.011a4.394,4.394,0,0,1,2.338,1.428,4.131,4.131,0,0,1,.791,2.615v1.846q0,2.1,1.863,2.1v1.274q-1.863,0-1.863,2.136v1.775a4.109,4.109,0,0,1-.8,2.646A4.448,4.448,0,0,1,.51,140.217Z" transform="translate(285 5157)" fill="#12263f"/>
    <g id="Grupo_1065793" data-name="Grupo 1065793" transform="translate(187.333 5285.895)">
      <g id="Grupo_1065792" data-name="Grupo 1065792" clip-path="url(#clip-path)">
        <g id="Grupo_1065791" data-name="Grupo 1065791">
          <g id="Grupo_1065790" data-name="Grupo 1065790" clip-path="url(#clip-path-2)">
            <path id="Trazado_800059" data-name="Trazado 800059" d="M115.539,111.51h0a17.2,17.2,0,0,1-17.2-17.269L98.406,74.4s-14.265-2.216-14.443-16.48,2.3-47.015,2.3-47.015a49.569,49.569,0,0,1,49.808,6.261L132.7,95.533a17.2,17.2,0,0,1-17.16,15.977" transform="translate(124.138 10.164)" fill="#b78876"/>
            <path id="Trazado_800060" data-name="Trazado 800060" d="M89.8,37.186A33.163,33.163,0,0,0,108.39,31.9S104,42.166,89.763,40.882Z" transform="translate(132.727 47.172)" fill="#aa6550"/>
            <path id="Trazado_800061" data-name="Trazado 800061" d="M104.675,17.911c.243-.1,9.8-2.9,9.488,6.853s-10.036,7.426-10.046,7.146.558-14,.558-14" transform="translate(153.951 25.82)" fill="#b78876"/>
            <path id="Trazado_800062" data-name="Trazado 800062" d="M105.373,26.407c.045-.03.166.124.449.265a1.707,1.707,0,0,0,1.269.067c1.044-.345,1.963-1.953,2.065-3.711a5.585,5.585,0,0,0-.4-2.446,1.976,1.976,0,0,0-1.237-1.346.865.865,0,0,0-1.016.436c-.141.268-.084.464-.136.478-.027.025-.2-.169-.114-.57a1.084,1.084,0,0,1,.4-.6,1.274,1.274,0,0,1,.947-.218,2.386,2.386,0,0,1,1.728,1.566,5.79,5.79,0,0,1,.5,2.739c-.124,1.961-1.19,3.768-2.612,4.129a1.809,1.809,0,0,1-1.544-.307c-.295-.25-.34-.468-.3-.486" transform="translate(155.794 27.724)" fill="#aa6550"/>
            <path id="Trazado_800063" data-name="Trazado 800063" d="M86.975,18.517a2.036,2.036,0,0,0,1.963,2.055,1.947,1.947,0,0,0,2.1-1.837,2.037,2.037,0,0,0-1.961-2.057,1.951,1.951,0,0,0-2.1,1.839" transform="translate(128.602 24.656)" fill="#263238"/>
            <path id="Trazado_800064" data-name="Trazado 800064" d="M85.993,17.873c.253.265,1.795-.877,3.988-.87,2.189-.025,3.8,1.1,4.035.833.117-.119-.141-.6-.84-1.108a5.6,5.6,0,0,0-3.232-1,5.358,5.358,0,0,0-3.173,1.026c-.674.516-.9,1-.778,1.115" transform="translate(127.105 23.26)" fill="#263238"/>
            <path id="Trazado_800065" data-name="Trazado 800065" d="M95.635,18.517A2.037,2.037,0,0,0,97.6,20.572a1.948,1.948,0,0,0,2.1-1.837,2.037,2.037,0,0,0-1.961-2.057,1.951,1.951,0,0,0-2.1,1.839" transform="translate(141.407 24.656)" fill="#263238"/>
            <path id="Trazado_800066" data-name="Trazado 800066" d="M94.685,18.038c.253.265,1.8-.877,3.988-.87,2.189-.027,3.8,1.1,4.035.833.116-.119-.136-.6-.84-1.108a5.593,5.593,0,0,0-3.23-1,5.36,5.36,0,0,0-3.175,1.026c-.672.516-.9,1-.778,1.115" transform="translate(139.958 23.504)" fill="#263238"/>
            <path id="Trazado_800067" data-name="Trazado 800067" d="M94.789,34.213a14.593,14.593,0,0,0-3.559-.642c-.56-.057-1.091-.169-1.185-.55a2.847,2.847,0,0,1,.374-1.661q.788-2.03,1.656-4.261c2.3-6.068,3.961-11.057,3.715-11.149S93.483,20.7,91.185,26.775q-.829,2.242-1.586,4.286a3.255,3.255,0,0,0-.29,2.2,1.411,1.411,0,0,0,.922.818,3.824,3.824,0,0,0,.949.131,14.338,14.338,0,0,0,3.609,0" transform="translate(131.9 23.584)" fill="#263238"/>
            <path id="Trazado_800068" data-name="Trazado 800068" d="M98.228,23.929c-.357-.02-.362,2.357-2.4,4.048s-4.571,1.425-4.588,1.76c-.032.149.565.461,1.636.491a5.945,5.945,0,0,0,3.829-1.334,5.167,5.167,0,0,0,1.856-3.4c.092-.994-.173-1.584-.337-1.569" transform="translate(134.913 35.382)" fill="#263238"/>
            <path id="Trazado_800069" data-name="Trazado 800069" d="M94.445,14.274c.216.595,2.4.312,4.977.625,2.578.258,4.65,1.011,4.992.476.151-.255-.208-.815-1.048-1.393a8.72,8.72,0,0,0-7.595-.84c-.944.382-1.418.85-1.326,1.133" transform="translate(139.633 18.677)" fill="#263238"/>
            <path id="Trazado_800070" data-name="Trazado 800070" d="M86.333,15.389c.387.5,1.9-.02,3.711-.042,1.814-.089,3.354.335,3.708-.186.154-.255-.087-.754-.758-1.224a5.375,5.375,0,0,0-5.978.186c-.642.511-.853,1.024-.682,1.267" transform="translate(127.571 19.398)" fill="#263238"/>
            <path id="Trazado_800071" data-name="Trazado 800071" d="M82.1,12.064a5.265,5.265,0,0,1,1.943-4.7,3.736,3.736,0,0,1,4.841.362,4.355,4.355,0,0,1,3.745-5.284c2.327-.149,4.31,1.609,6.558,2.226a10.588,10.588,0,0,0,6.66-.768c2.109-.85,4.082-2.025,6.219-2.806A18.242,18.242,0,0,1,135.391,11.8c3.118-.974,6.663.61,8.586,3.252a13.285,13.285,0,0,1,2.035,9.357,29.685,29.685,0,0,1-1.631,6.4c0,.183.02.362.015.545-.146,7.845-1.034,17.056-4.38,17.105-5.832.089-4.442-10.9-4.442-10.9-7.158-2.764-4.491-13.489-6.281-15.115s-5.535-5.406-20.518,2.251C102.955,27.672,95.219,27.58,91,26.621c-.124-.027-.25-.045-.372-.074-.027-.007-.062-.012-.087-.02a1.075,1.075,0,0,1-.124-.05,13.451,13.451,0,0,1-3.844-1.628A7.621,7.621,0,0,1,83.4,21.326a4.157,4.157,0,0,1,.818-4.464,9.157,9.157,0,0,1-2.124-4.8" transform="translate(121.357 0)" fill="#263238"/>
            <path id="Trazado_800072" data-name="Trazado 800072" d="M203.155,50.251c-.364.6-4.417,8.239-4.417,8.239s3.23-12.507,3.346-12.961c1.046-4.085-1.482-3.661-2.223-2.2-.763,1.509-5.339,13.816-5.339,13.816,4.3-16.084,2.952-17.5,1.745-17.752s-4.994,14.45-4.994,14.45a13.766,13.766,0,0,0-3.882-4.243c-3.887-2.672-10.358,0-10.668,1.824s2,2.34,2,2.34c4.868-3.135,9.855.664,9.344,5.307s-6.39,4-7.121.694c-1.609-7.253-4.1-4.9-4.1-4.9l2.5,15.995-2.647,8.043L162.23,118.141l-27.654-28.8s-14.788,32.686-15.137,33.781c-.233.739,13.868,15.4,23.138,24.94a26.173,26.173,0,0,0,44.239-12.274l10.936-56.347,5.121-18.466s1.847-7.5,2.285-9.255c.582-2.318-1.043-3.046-2-1.47" transform="translate(176.602 58.242)" fill="#b78876"/>
            <path id="Trazado_800073" data-name="Trazado 800073" d="M134.025,123.9c8.249,1.453,17.73-4.481,22.794-11.151l20.6-27.144L153.212,64.018,131.519,91.107l-81.458-4.32L30.822,76a6.753,6.753,0,0,0-4.345-.783L0,82.692l24.843,7.632,43.349,16.312Z" transform="translate(0 94.659)" fill="#b78876"/>
            <path id="Trazado_800074" data-name="Trazado 800074" d="M128.553,249.231l3.413,14.336s23.448,30.453,30.678,28.963c4.739-.977-1.083-8.921-10-32.051l-1.871-9.553Z" transform="translate(190.083 368.522)" fill="#e8505b"/>
            <path id="Trazado_800075" data-name="Trazado 800075" d="M161.826,281.536a1.245,1.245,0,0,1-.186.431,2.6,2.6,0,0,1-.984.92,3.868,3.868,0,0,1-2.087.459,5.556,5.556,0,0,1-2.655-.974A113.743,113.743,0,0,1,144.1,271.359a150.6,150.6,0,0,1-10.48-12.279c-1.249-1.648-2.228-3-2.888-3.951l-.744-1.1a1.709,1.709,0,0,1-.235-.4,1.911,1.911,0,0,1,.31.35l.815,1.048c.875,1.128,1.871,2.407,3,3.857,2.565,3.225,6.214,7.607,10.557,12.163a131.964,131.964,0,0,0,11.66,11.057,4.336,4.336,0,0,0,4.479.63,3.091,3.091,0,0,0,1.254-1.192" transform="translate(191.856 375.018)" fill="#263238"/>
            <path id="Trazado_800076" data-name="Trazado 800076" d="M147.366,261.081c-.012.079-.741-.067-1.9.1a11.193,11.193,0,0,0-4.219,1.6,8.63,8.63,0,0,0-3.165,3.16c-.555,1.021-.709,1.752-.786,1.73a4.028,4.028,0,0,1,.493-1.879,8.084,8.084,0,0,1,3.215-3.4,10.02,10.02,0,0,1,4.427-1.532,3.67,3.67,0,0,1,1.931.226" transform="translate(202.997 385.685)" fill="#263238"/>
            <path id="Trazado_800077" data-name="Trazado 800077" d="M137.03,266.665c-.079-.022.245-1.029.431-2.689a11.03,11.03,0,0,0-1.177-6.281,10.361,10.361,0,0,0-4.479-4.524,18.543,18.543,0,0,0-2.541-.927,2.075,2.075,0,0,1,.741.04,7.779,7.779,0,0,1,1.941.592,10.066,10.066,0,0,1,4.749,4.608,10.674,10.674,0,0,1,1.091,6.534,12.585,12.585,0,0,1-.468,1.963,2.148,2.148,0,0,1-.288.684" transform="translate(191.135 372.952)" fill="#263238"/>
            <path id="Trazado_800078" data-name="Trazado 800078" d="M129.164,250.213a14.456,14.456,0,0,1,1.3,4.491c.429,2.543.89,4.553.788,4.59a14.782,14.782,0,0,1-1.242-4.506c-.436-2.531-.959-4.533-.845-4.576" transform="translate(190.964 369.972)" fill="#263238"/>
            <path id="Trazado_800079" data-name="Trazado 800079" d="M141.855,254.7c-.01.136-1.338.1-2.907.466s-2.746.972-2.816.855a6.865,6.865,0,0,1,5.723-1.321" transform="translate(201.285 376.326)" fill="#263238"/>
            <path id="Trazado_800080" data-name="Trazado 800080" d="M141.474,255.729c-.02.136-1.13.02-2.432.34-1.306.3-2.246.9-2.325.791a4.658,4.658,0,0,1,4.757-1.13" transform="translate(202.147 377.749)" fill="#263238"/>
            <path id="Trazado_800081" data-name="Trazado 800081" d="M142.286,257.1a12.646,12.646,0,0,0-2.526.092,12.437,12.437,0,0,0-2.32,1.009,3.782,3.782,0,0,1,4.846-1.1" transform="translate(203.209 379.464)" fill="#263238"/>
            <path id="Trazado_800082" data-name="Trazado 800082" d="M142.9,257.7a2.438,2.438,0,0,1-.786-.087,16.079,16.079,0,0,1-2.077-.56,18.53,18.53,0,0,1-4.531-2.3,2.366,2.366,0,0,1-1.172-1.8,1.387,1.387,0,0,1,1.79-1.12,3.7,3.7,0,0,1,1.633,1.1,29.445,29.445,0,0,1,2.154,2.347c.575.7,1,1.3,1.286,1.718a2.5,2.5,0,0,1,.394.684c-.059.042-.729-.853-1.928-2.189-.6-.667-1.339-1.443-2.2-2.256a3.4,3.4,0,0,0-1.44-.959c-.53-.136-1.217.151-1.227.7s.5,1.061.977,1.413c.518.367,1.046.7,1.554,1a21.4,21.4,0,0,0,2.826,1.361c1.668.652,2.766.88,2.749.954" transform="translate(198.628 372.292)" fill="#263238"/>
            <path id="Trazado_800083" data-name="Trazado 800083" d="M137.311,258.663a2.173,2.173,0,0,1-.027-.719c.015-.459.045-1.125.149-1.948a10.123,10.123,0,0,1,.736-2.831,6.008,6.008,0,0,1,.922-1.5,1.577,1.577,0,0,1,1.876-.595,1.808,1.808,0,0,1,.649,1.869,6.471,6.471,0,0,1-.513,1.685,8.642,8.642,0,0,1-1.673,2.407,10.578,10.578,0,0,1-1.495,1.274,1.97,1.97,0,0,1-.625.359c-.05-.065.8-.647,1.879-1.854a8.942,8.942,0,0,0,1.524-2.357,6.377,6.377,0,0,0,.454-1.569c.067-.53,0-1.182-.421-1.41-.426-.25-.962.089-1.319.493a5.7,5.7,0,0,0-.872,1.376,10.965,10.965,0,0,0-.8,2.7,22.527,22.527,0,0,1-.444,2.617" transform="translate(202.984 371.035)" fill="#263238"/>
            <g id="Grupo_1065783" data-name="Grupo 1065783" transform="translate(320.399 625.198)" opacity="0.4">
              <g id="Grupo_1065782" data-name="Grupo 1065782">
                <g id="Grupo_1065781" data-name="Grupo 1065781" clip-path="url(#clip-path-3)">
                  <path id="Trazado_800084" data-name="Trazado 800084" d="M130.915,259.125l-1.651-6.891s5.745,1.063,7.235,5.364a18.006,18.006,0,0,1,1.12,7.359l12.49,13.452s3.133-6.122,8.807-4.652c0,0,4.464,9.82,4.328,12.282-.151,2.7-3,2.161-4.018,1.7a50.418,50.418,0,0,1-11.181-8.824c-6.618-6.866-13.927-15.571-17.13-19.789" transform="translate(-129.264 -252.236)"/>
                </g>
              </g>
            </g>
            <path id="Trazado_800085" data-name="Trazado 800085" d="M95.912,263.818,95.8,244.7l35.814-.434.456,27.971-2.221.169c-9.875.669-50.259,2.7-56.89.781-7.4-2.147,22.95-9.367,22.95-9.367" transform="translate(106.167 361.178)" fill="#e8505b"/>
            <g id="Grupo_1065786" data-name="Grupo 1065786" transform="translate(225.25 622.868)" opacity="0.4">
              <g id="Grupo_1065785" data-name="Grupo 1065785">
                <g id="Grupo_1065784" data-name="Grupo 1065784" clip-path="url(#clip-path-4)">
                  <path id="Trazado_800086" data-name="Trazado 800086" d="M90.877,261.716a12.409,12.409,0,0,1,4.476-7.691,12.066,12.066,0,0,1,8.341-2.7l.129,10.009Z" transform="translate(-90.876 -251.294)"/>
                </g>
              </g>
            </g>
            <g id="Grupo_1065789" data-name="Grupo 1065789" transform="translate(177.863 629.055)" opacity="0.4">
              <g id="Grupo_1065788" data-name="Grupo 1065788">
                <g id="Grupo_1065787" data-name="Grupo 1065787" clip-path="url(#clip-path-5)">
                  <path id="Trazado_800087" data-name="Trazado 800087" d="M81.153,253.791s-10.628,3.2-9.275,4.945,42.238,1.222,60.256-.587l-.067-.8-47.689,1.014s-1.138-4.511-3.225-4.573" transform="translate(-71.758 -253.79)"/>
                </g>
              </g>
            </g>
            <path id="Trazado_800088" data-name="Trazado 800088" d="M132.569,255.224a3.376,3.376,0,0,1-.615.074l-1.767.129-6.506.364c-5.493.268-13.09.535-21.485.649s-16,.05-21.5-.072q-3.852-.112-6.511-.186c-.657-.032-1.239-.057-1.77-.082a3.385,3.385,0,0,1-.617-.06,3.354,3.354,0,0,1,.62-.03h1.77l6.514.052c5.5.04,13.1.055,21.49-.057s15.982-.335,21.477-.523l6.511-.226,1.77-.047a3.211,3.211,0,0,1,.62.012" transform="translate(106.163 377.361)" fill="#263238"/>
            <path id="Trazado_800089" data-name="Trazado 800089" d="M78.95,259.181a14.5,14.5,0,0,0-1.257-3.091,14.49,14.49,0,0,0-2.251-2.464,5.779,5.779,0,0,1,3.507,5.555" transform="translate(111.548 375.004)" fill="#263238"/>
            <path id="Trazado_800090" data-name="Trazado 800090" d="M82.254,255.41c-.1.064-.615-.543-1.148-1.361s-.882-1.529-.783-1.6.615.543,1.148,1.361.882,1.532.783,1.6" transform="translate(118.744 373.279)" fill="#263238"/>
            <path id="Trazado_800091" data-name="Trazado 800091" d="M83.608,254.2c-.079.089-.649-.28-1.274-.825s-1.066-1.063-.986-1.153.649.278,1.274.825,1.066,1.063.986,1.153" transform="translate(120.27 372.92)" fill="#263238"/>
            <path id="Trazado_800092" data-name="Trazado 800092" d="M85.207,251.741a4.194,4.194,0,0,1-1.866.263,4.176,4.176,0,0,1-1.874-.174,4.239,4.239,0,0,1,1.864-.26,4.243,4.243,0,0,1,1.876.171" transform="translate(120.46 371.974)" fill="#263238"/>
            <path id="Trazado_800093" data-name="Trazado 800093" d="M85.744,250.691a5.278,5.278,0,0,1-4.234.374,11.542,11.542,0,0,1,2.117-.174,11.6,11.6,0,0,1,2.117-.2" transform="translate(120.524 370.631)" fill="#263238"/>
            <path id="Trazado_800094" data-name="Trazado 800094" d="M84.627,254.275a6.571,6.571,0,0,1-2.3.015,13.557,13.557,0,0,1-2.459-.508,6.858,6.858,0,0,1-1.41-.56,1.256,1.256,0,0,1-.578-.709.9.9,0,0,1,.337-.925,4.222,4.222,0,0,1,5.235,1.167,4.17,4.17,0,0,1,.771,1.527,1.293,1.293,0,0,1,.067.622,6.557,6.557,0,0,0-1.073-1.951,4.133,4.133,0,0,0-1.983-1.252,3.561,3.561,0,0,0-2.739.221c-.362.275-.216.7.193.939a6.817,6.817,0,0,0,1.3.538,15.747,15.747,0,0,0,2.377.585c1.383.228,2.261.218,2.261.29" transform="translate(115.116 371.304)" fill="#263238"/>
            <path id="Trazado_800095" data-name="Trazado 800095" d="M80.526,255.112a2.269,2.269,0,0,1-.285-1.594,3.763,3.763,0,0,1,.607-1.69,2.3,2.3,0,0,1,1.9-1.2.917.917,0,0,1,.724,1.053,2.54,2.54,0,0,1-.377,1.034,6.974,6.974,0,0,1-1.071,1.405,3.343,3.343,0,0,1-1.3.949c-.042-.057.454-.419,1.078-1.155a8.126,8.126,0,0,0,.944-1.393c.312-.491.516-1.368-.062-1.465-.578-.047-1.158.533-1.5,1a3.826,3.826,0,0,0-.632,1.5,8.433,8.433,0,0,0-.017,1.552" transform="translate(118.623 370.59)" fill="#263238"/>
            <path id="Trazado_800096" data-name="Trazado 800096" d="M103.49,251.395c-.007.082-1.026-.084-2.645.126a11.224,11.224,0,0,0-9.283,7.6c-.528,1.542-.568,2.573-.649,2.565a2.15,2.15,0,0,1-.01-.724,9.488,9.488,0,0,1,.367-1.936,10.882,10.882,0,0,1,9.543-7.808,9.356,9.356,0,0,1,1.971.025,2.026,2.026,0,0,1,.706.154" transform="translate(134.387 371.4)" fill="#263238"/>
            <path id="Trazado_800097" data-name="Trazado 800097" d="M94.456,245.272a63.041,63.041,0,0,1,.4,7.352,62.629,62.629,0,0,1-.03,7.364,62.392,62.392,0,0,1-.4-7.352,62.629,62.629,0,0,1,.03-7.364" transform="translate(139.52 362.668)" fill="#263238"/>
            <path id="Trazado_800098" data-name="Trazado 800098" d="M95.283,254.137a20.29,20.29,0,0,1-5.22.585,20.374,20.374,0,0,1-5.245-.352c.01-.126,2.352-.012,5.235-.082s5.215-.275,5.23-.151" transform="translate(125.415 375.72)" fill="#263238"/>
            <path id="Trazado_800099" data-name="Trazado 800099" d="M92.47,254.081c.089.087-.186.5-.416,1.039s-.357,1.016-.481,1.009-.191-.563.082-1.185.736-.949.815-.863" transform="translate(135.247 375.674)" fill="#263238"/>
            <path id="Trazado_800100" data-name="Trazado 800100" d="M93.723,252.742c.087.084-.139.459-.506.84s-.731.62-.818.538.139-.459.506-.84.731-.622.818-.538" transform="translate(136.597 373.689)" fill="#263238"/>
            <path id="Trazado_800101" data-name="Trazado 800101" d="M95.656,252.223c-.022.121-.5.124-1.024.315s-.9.478-.994.4c-.1-.064.2-.577.85-.806s1.2-.017,1.167.094" transform="translate(138.431 372.654)" fill="#263238"/>
            <path id="Trazado_800102" data-name="Trazado 800102" d="M96.167,251.852c.045.112-.159.3-.454.416s-.573.126-.617.015.159-.3.454-.416.573-.126.617-.015" transform="translate(140.604 372.281)" fill="#263238"/>
            <path id="Trazado_800103" data-name="Trazado 800103" d="M244.874,473.983,174.059,98.958,75.617,113.951l7,356.485,55.769,1.17-9.263-310.995,62.729,313.372Z" transform="translate(111.811 146.323)" fill="#455a64"/>
            <path id="Trazado_800104" data-name="Trazado 800104" d="M211.68,222.911l-112.523-4.2,3.2-102.683-14.75,16.818L57.533,106.8l33.09-45.1a53.56,53.56,0,0,1,35.826-21.187c4.2-.573,7.391-.85,9.466-1.11a60.917,60.917,0,0,0,36.711-.022,50.069,50.069,0,0,1,15.2,2.912A62.589,62.589,0,0,1,212.081,58l0-.007L249,107.9l-31.556,27.3-17.978-15.811Z" transform="translate(85.07 58.241)" fill="#263238"/>
            <path id="Trazado_800105" data-name="Trazado 800105" d="M78.078,54.671c.357.012.007,17.1-.781,38.146s-1.713,38.116-2.07,38.1-.007-17.09.781-38.149,1.713-38.112,2.07-38.1" transform="translate(111.029 80.839)" fill="#455a64"/>
            <path id="Trazado_800106" data-name="Trazado 800106" d="M113.239,57.388c.354-.035,1.6,9.843,2.781,22.06s1.852,22.149,1.5,22.184-1.6-9.84-2.781-22.06-1.852-22.149-1.5-22.184" transform="translate(167.299 84.856)" fill="#455a64"/>
            <path id="Trazado_800107" data-name="Trazado 800107" d="M93.721,39.894c.221.28-.632,1.314-1.9,2.308s-2.476,1.569-2.7,1.289.632-1.314,1.9-2.308,2.476-1.569,2.7-1.289" transform="translate(131.731 58.885)" fill="#455a64"/>
            <path id="Trazado_800108" data-name="Trazado 800108" d="M94.031,40.313c.317.176.079,1.2-.25,2.389s-.677,2.184-1.039,2.166-.59-1.167-.2-2.518,1.187-2.211,1.492-2.037" transform="translate(136.539 59.576)" fill="#455a64"/>
            <path id="Trazado_800109" data-name="Trazado 800109" d="M95.7,40.593c.357-.017.692.947.751,2.156s-.181,2.2-.538,2.218-.692-.947-.751-2.156.181-2.2.538-2.218" transform="translate(140.699 60.022)" fill="#455a64"/>
            <path id="Trazado_800110" data-name="Trazado 800110" d="M98.646,40.372c.362,0,.667,1.036,1.006,2.27s.587,2.293.27,2.471-1.14-.724-1.517-2.134-.109-2.608.24-2.608" transform="translate(145.232 59.696)" fill="#455a64"/>
            <path id="Trazado_800111" data-name="Trazado 800111" d="M101.871,40.018c.342-.124.92.625,1.589,1.5s1.217,1.643,1,1.938-1.244-.109-2.035-1.16-.89-2.166-.558-2.278" transform="translate(150.363 59.152)" fill="#455a64"/>
            <path id="Trazado_800112" data-name="Trazado 800112" d="M103.558,39.582c.193-.3,1.044-.092,1.9.466s1.391,1.247,1.2,1.547-1.046.092-1.9-.466-1.388-1.249-1.195-1.547" transform="translate(153.066 58.324)" fill="#455a64"/>
            <path id="Trazado_800113" data-name="Trazado 800113" d="M170.35,67.6c0,.357-21.1.659-47.114.677s-47.121-.258-47.121-.612,21.093-.659,47.119-.679,47.116.258,47.116.615" transform="translate(112.547 99.042)" fill="#fafafa"/>
            <path id="Trazado_800114" data-name="Trazado 800114" d="M170.677,70.408c0,.357-21.1.659-47.114.677s-47.121-.258-47.121-.612,21.093-.662,47.119-.679,47.116.258,47.116.615" transform="translate(113.03 103.198)" fill="#fafafa"/>
            <path id="Trazado_800115" data-name="Trazado 800115" d="M172.555,73.058c0,.357-21.673.838-48.41,1.073s-48.42.141-48.425-.216,21.668-.838,48.415-1.073,48.418-.141,48.42.216" transform="translate(111.962 107.515)" fill="#fafafa"/>
            <path id="Trazado_800116" data-name="Trazado 800116" d="M145.7,56.407c.119.124-1.405,1.834-4.035,4.434s-6.383,6.07-10.69,9.714-8.363,6.762-11.365,8.921-4.942,3.378-5.044,3.24,1.636-1.624,4.486-3.963c3.207-2.657,6.95-5.758,11.087-9.183l10.906-9.4c2.781-2.419,4.528-3.894,4.655-3.763" transform="translate(169.396 83.393)" fill="#fafafa"/>
            <path id="Trazado_800117" data-name="Trazado 800117" d="M150.992,58.922c.114.129-1.69,1.948-4.774,4.7s-7.456,6.437-12.458,10.289-9.687,7.131-13.144,9.4-5.676,3.549-5.773,3.406,1.936-1.7,5.25-4.154,7.892-5.845,12.879-9.677,9.434-7.389,12.658-9.962,5.24-4.147,5.361-4.008" transform="translate(169.806 87.112)" fill="#fafafa"/>
            <path id="Trazado_800118" data-name="Trazado 800118" d="M151.2,61.3c.231.27-7.312,7.1-16.847,15.244S116.9,91.079,116.666,90.809s7.31-7.1,16.847-15.246S150.968,61.028,151.2,61.3" transform="translate(172.499 90.625)" fill="#fafafa"/>
            <path id="Trazado_800119" data-name="Trazado 800119" d="M92.041,83.849c-.084.139-2.015-.828-4.791-2.92a83.467,83.467,0,0,1-9.91-9.181c-3.611-3.82-6.816-7.329-9.094-9.915s-3.619-4.243-3.49-4.365,1.708,1.316,4.154,3.738,5.76,5.84,9.367,9.652,6.953,7.136,9.548,9.362,4.32,3.465,4.216,3.629" transform="translate(95.738 84.964)" fill="#fafafa"/>
            <path id="Trazado_800120" data-name="Trazado 800120" d="M91.978,88.716c-.112.131-1.98-1.227-4.846-3.614s-6.717-5.817-10.777-9.8-7.562-7.775-10-10.6-3.832-4.667-3.7-4.779,1.772,1.5,4.372,4.159,6.189,6.325,10.234,10.3,7.775,7.49,10.477,10.043,4.36,4.154,4.241,4.3" transform="translate(92.629 88.593)" fill="#fafafa"/>
            <path id="Trazado_800121" data-name="Trazado 800121" d="M91.319,90.943c-.139.124-1.812-1.514-4.5-4.172s-6.4-6.308-10.614-10.229-8.13-7.359-10.975-9.843-4.6-4.033-4.486-4.179,2.062,1.16,5.066,3.475,7.034,5.661,11.275,9.6,7.872,7.718,10.4,10.544,3.961,4.687,3.834,4.8" transform="translate(89.815 92.431)" fill="#fafafa"/>
            <path id="Trazado_800122" data-name="Trazado 800122" d="M186.235,113.268c-.01.357-25.012.02-55.841-.754s-55.821-1.688-55.811-2.045,25.007-.02,55.846.754,55.816,1.688,55.807,2.045" transform="translate(110.28 163.134)" fill="#455a64"/>
          </g>
        </g>
      </g>
    </g>
  </g>
</svg>
