<svg xmlns="http://www.w3.org/2000/svg" width="73.915" height="70.539" viewBox="0 0 73.915 70.539">
  <g id="Grupo_1065057" data-name="Grupo 1065057" transform="translate(-354.947 -1523.431)">
    <path id="Trazado_799749" data-name="Trazado 799749" d="M57.973,16.774l.025-.1a18.264,18.264,0,0,0,.373-8.031c-1.361-6.6-8.182-10.86-14.406-7.425C36.827,5.158,32.135,12.4,22.952,11.1c-7.008-.993-12.32-6.556-19.082-.834C-3.362,16.384.686,25.876,6.685,31.152c6.632,5.833,16.154,9.413,24.985,8.282A32.7,32.7,0,0,0,55.9,22.3a26.433,26.433,0,0,0,2.07-5.525" transform="translate(385.754 1523.431) rotate(51)" fill="#ffc202"/>
    <path id="Trazado_799750" data-name="Trazado 799750" d="M67.684,19.583l.029-.117a21.323,21.323,0,0,0,.436-9.376C66.561,2.384,58.6-2.59,51.33,1.421,43,6.021,37.518,14.475,26.8,12.957,18.614,11.8,12.412,5.3,4.518,11.983-3.925,19.127.8,30.209,7.8,36.369c7.743,6.81,18.86,10.99,29.17,9.669a38.177,38.177,0,0,0,28.293-20,30.86,30.86,0,0,0,2.416-6.451" transform="translate(360.371 1540.626)" fill="#00dafd"/>
  </g>
</svg>
