<svg xmlns="http://www.w3.org/2000/svg" xmlns:xlink="http://www.w3.org/1999/xlink" width="400" height="508.29" viewBox="0 0 400 508.29">
  <defs>
    <clipPath id="clip-path">
      <rect id="Rectángulo_374856" data-name="Rectángulo 374856" width="295" height="256.891" fill="none"/>
    </clipPath>
    <clipPath id="clip-path-2">
      <rect id="Rectángulo_374855" data-name="Rectángulo 374855" width="295" height="522.391" fill="none"/>
    </clipPath>
    <clipPath id="clip-path-3">
      <rect id="Rectángulo_374852" data-name="Rectángulo 374852" width="26.251" height="28.354" fill="none"/>
    </clipPath>
    <clipPath id="clip-path-4">
      <rect id="Rectángulo_374853" data-name="Rectángulo 374853" width="10" height="8.235" fill="none"/>
    </clipPath>
    <clipPath id="clip-path-5">
      <rect id="Rectángulo_374854" data-name="Rectángulo 374854" width="46.639" height="4.753" fill="none"/>
    </clipPath>
    <clipPath id="clip-path-6">
      <rect id="Rectángulo_374868" data-name="Rectángulo 374868" width="369.285" height="265.29" fill="none"/>
    </clipPath>
    <clipPath id="clip-path-7">
      <rect id="Rectángulo_374862" data-name="Rectángulo 374862" width="611.285" height="271.29" fill="none"/>
    </clipPath>
    <clipPath id="clip-path-8">
      <rect id="Rectángulo_374857" data-name="Rectángulo 374857" width="108.265" height="75.038" transform="translate(50.575 160.92)" fill="none"/>
    </clipPath>
    <clipPath id="clip-path-9">
      <rect id="Rectángulo_374858" data-name="Rectángulo 374858" width="109.995" height="75.049" transform="translate(430.778 163.081)" fill="none"/>
    </clipPath>
    <clipPath id="clip-path-10">
      <rect id="Rectángulo_374859" data-name="Rectángulo 374859" width="11.07" height="18.151" transform="translate(7.502 196.172)" fill="none"/>
    </clipPath>
    <clipPath id="clip-path-11">
      <rect id="Rectángulo_374860" data-name="Rectángulo 374860" width="129.184" height="84.63" transform="translate(418.237 152.714)" fill="none"/>
    </clipPath>
    <clipPath id="clip-path-12">
      <rect id="Rectángulo_374861" data-name="Rectángulo 374861" width="134.225" height="84.523" transform="translate(38.903 146.818)" fill="none"/>
    </clipPath>
  </defs>
  <g id="Grupo_1066187" data-name="Grupo 1066187" transform="translate(-600 -5103)">
    <rect id="Rectángulo_374843" data-name="Rectángulo 374843" width="400" height="508" rx="20" transform="translate(600 5103)" fill="#ffc202"/>
    <rect id="Rectángulo_374850" data-name="Rectángulo 374850" width="322" height="201" rx="20" transform="translate(639 5145)" fill="#fff"/>
    <path id="Trazado_802388" data-name="Trazado 802388" d="M5.555,20.217a4.368,4.368,0,0,1-2.342-1.446,4.2,4.2,0,0,1-.787-2.659V14.363q0-2.136-1.863-2.136V10.953q1.863,0,1.863-2.127V7a4.19,4.19,0,0,1,.787-2.6A4.373,4.373,0,0,1,5.555,2.964l.334,1.011q-1.837.589-1.837,3.067V8.817a2.871,2.871,0,0,1-1.468,2.777,2.906,2.906,0,0,1,1.468,2.8v1.811q.026,2.417,1.837,3ZM17.438,4.7l-.264,3.146H16.2L16.207,3.5h1.23Zm2.373,0-.264,3.146h-.976L18.58,3.5h1.23ZM23.353,7.49l.053,1.2a3.465,3.465,0,0,1,2.848-1.371q3.015,0,3.041,3.4V17H27.668V10.707a2.189,2.189,0,0,0-.47-1.521,1.884,1.884,0,0,0-1.437-.492,2.347,2.347,0,0,0-1.389.422,2.865,2.865,0,0,0-.932,1.107V17H21.814V7.49ZM37.617,17a3.416,3.416,0,0,1-.229-1,3.628,3.628,0,0,1-2.707,1.178,3.357,3.357,0,0,1-2.307-.8,2.573,2.573,0,0,1-.9-2.017A2.688,2.688,0,0,1,32.6,12.056a5.325,5.325,0,0,1,3.177-.822h1.582v-.747a1.826,1.826,0,0,0-.51-1.358,2.049,2.049,0,0,0-1.5-.505,2.371,2.371,0,0,0-1.459.439,1.3,1.3,0,0,0-.589,1.063H31.667a2.244,2.244,0,0,1,.505-1.375A3.449,3.449,0,0,1,33.543,7.7a4.613,4.613,0,0,1,1.9-.387,3.759,3.759,0,0,1,2.575.822,2.964,2.964,0,0,1,.967,2.263v4.377a5.351,5.351,0,0,0,.334,2.083V17Zm-2.7-1.239a2.858,2.858,0,0,0,1.45-.4,2.392,2.392,0,0,0,.993-1.028V12.386H36.088q-2.988,0-2.988,1.749a1.48,1.48,0,0,0,.51,1.2A1.959,1.959,0,0,0,34.919,15.761ZM43.066,7.49l.044,1.055a3.512,3.512,0,0,1,2.821-1.23,2.719,2.719,0,0,1,2.716,1.529,3.6,3.6,0,0,1,1.235-1.107,3.647,3.647,0,0,1,1.8-.422q3.129,0,3.182,3.313V17H53.235V10.725A2.184,2.184,0,0,0,52.77,9.2a2.051,2.051,0,0,0-1.564-.505,2.156,2.156,0,0,0-1.5.541,2.193,2.193,0,0,0-.694,1.455V17H47.373V10.769a1.814,1.814,0,0,0-2.03-2.074,2.175,2.175,0,0,0-2.188,1.362V17H41.528V7.49ZM61.26,17.176a4.155,4.155,0,0,1-3.146-1.27,4.714,4.714,0,0,1-1.213-3.4v-.3a5.707,5.707,0,0,1,.541-2.527,4.217,4.217,0,0,1,1.512-1.74,3.8,3.8,0,0,1,2.1-.628A3.562,3.562,0,0,1,63.94,8.536a5.289,5.289,0,0,1,1.028,3.5v.677H58.526a3.38,3.38,0,0,0,.822,2.272,2.583,2.583,0,0,0,2,.866,2.832,2.832,0,0,0,1.459-.352,3.666,3.666,0,0,0,1.046-.932l.993.773A3.993,3.993,0,0,1,61.26,17.176Zm-.2-8.525a2.169,2.169,0,0,0-1.652.716,3.482,3.482,0,0,0-.826,2.008h4.764v-.123a3.1,3.1,0,0,0-.668-1.92A2.042,2.042,0,0,0,61.058,8.65ZM67.931,4.7l-.264,3.146h-.976L66.7,3.5h1.23Zm2.373,0L70.04,7.842h-.976L69.073,3.5H70.3Zm2.127,11.452a1.018,1.018,0,0,1,.25-.7.954.954,0,0,1,.751-.281.983.983,0,0,1,.76.281,1,1,0,0,1,.259.7.944.944,0,0,1-.259.677,1,1,0,0,1-.76.272.9.9,0,0,1-1-.949Zm.009-7.761a1.018,1.018,0,0,1,.25-.7.954.954,0,0,1,.751-.281.983.983,0,0,1,.76.281,1,1,0,0,1,.259.7.944.944,0,0,1-.259.677,1,1,0,0,1-.76.272.9.9,0,0,1-1-.949ZM78.047,4.7l-.264,3.146h-.976L76.816,3.5h1.23Zm2.373,0-.264,3.146h-.976L79.189,3.5h1.23Zm7.8-.492h1.7v9.062a3.753,3.753,0,0,1-1.1,2.874,4.117,4.117,0,0,1-2.94,1.037A4.232,4.232,0,0,1,82.9,16.2a3.523,3.523,0,0,1-1.063-2.733h1.688a2.346,2.346,0,0,0,.6,1.714,2.332,2.332,0,0,0,1.745.615,2.263,2.263,0,0,0,1.692-.659,2.554,2.554,0,0,0,.655-1.846ZM92.1,12.157a5.617,5.617,0,0,1,.549-2.514,4.1,4.1,0,0,1,1.529-1.723,4.163,4.163,0,0,1,2.237-.606,4.01,4.01,0,0,1,3.142,1.345,5.174,5.174,0,0,1,1.2,3.577v.114a5.666,5.666,0,0,1-.532,2.492,4.038,4.038,0,0,1-1.521,1.718,4.211,4.211,0,0,1-2.272.615A4,4,0,0,1,93.3,15.831a5.147,5.147,0,0,1-1.2-3.56Zm1.635.193a4.068,4.068,0,0,0,.734,2.54,2.487,2.487,0,0,0,3.933-.013,4.449,4.449,0,0,0,.729-2.72,4.061,4.061,0,0,0-.743-2.536,2.361,2.361,0,0,0-1.973-.971,2.335,2.335,0,0,0-1.942.958A4.416,4.416,0,0,0,93.735,12.351Zm10.688-3.709a3.457,3.457,0,0,1,2.813-1.327q3.015,0,3.041,3.4V17H108.65V10.707a2.189,2.189,0,0,0-.47-1.521,1.884,1.884,0,0,0-1.437-.492,2.347,2.347,0,0,0-1.389.422,2.865,2.865,0,0,0-.932,1.107V17H102.8V3.5h1.626Zm9.826-1.151.053,1.2a3.465,3.465,0,0,1,2.848-1.371q3.015,0,3.041,3.4V17h-1.626V10.707a2.189,2.189,0,0,0-.47-1.521,1.884,1.884,0,0,0-1.437-.492,2.347,2.347,0,0,0-1.389.422,2.865,2.865,0,0,0-.932,1.107V17h-1.626V7.49ZM122.933,4.7l-.264,3.146h-.976L121.7,3.5h1.23Zm2.373,0-.264,3.146h-.976l.009-4.342h1.23Zm2.127,14.854-.923-.633a4.241,4.241,0,0,0,.861-2.373V15.075h1.591V16.35a4,4,0,0,1-.435,1.775A4.156,4.156,0,0,1,127.433,19.549ZM20.259,28.7,20,31.842H19.02l.009-4.342h1.23Zm2.373,0-.264,3.146h-.976L21.4,27.5h1.23ZM30.243,41a3.416,3.416,0,0,1-.229-1,3.628,3.628,0,0,1-2.707,1.178A3.357,3.357,0,0,1,25,40.38a2.573,2.573,0,0,1-.9-2.017,2.688,2.688,0,0,1,1.129-2.307,5.325,5.325,0,0,1,3.177-.822h1.582v-.747a1.826,1.826,0,0,0-.51-1.358,2.049,2.049,0,0,0-1.5-.505,2.371,2.371,0,0,0-1.459.439,1.3,1.3,0,0,0-.589,1.063H24.293a2.244,2.244,0,0,1,.505-1.375,3.449,3.449,0,0,1,1.371-1.05,4.613,4.613,0,0,1,1.9-.387,3.759,3.759,0,0,1,2.575.822,2.964,2.964,0,0,1,.967,2.263v4.377a5.351,5.351,0,0,0,.334,2.083V41Zm-2.7-1.239a2.858,2.858,0,0,0,1.45-.4,2.392,2.392,0,0,0,.993-1.028V36.386H28.714q-2.988,0-2.988,1.749a1.48,1.48,0,0,0,.51,1.2A1.959,1.959,0,0,0,27.545,39.761Zm6.231-3.595A5.589,5.589,0,0,1,34.8,32.628a3.545,3.545,0,0,1,5.44-.083l.079-1.055H41.81v9.281a3.869,3.869,0,0,1-1.094,2.909,4.038,4.038,0,0,1-2.94,1.063,4.891,4.891,0,0,1-2.013-.439,3.465,3.465,0,0,1-1.5-1.2l.844-.976a3.18,3.18,0,0,0,2.558,1.292,2.491,2.491,0,0,0,1.85-.668,2.553,2.553,0,0,0,.664-1.881v-.817a3.342,3.342,0,0,1-2.663,1.125,3.248,3.248,0,0,1-2.7-1.345A5.876,5.876,0,0,1,33.776,36.166Zm1.635.185a4.264,4.264,0,0,0,.659,2.527,2.142,2.142,0,0,0,1.846.918,2.382,2.382,0,0,0,2.259-1.4V34.057a2.41,2.41,0,0,0-2.241-1.362,2.161,2.161,0,0,0-1.854.923A4.644,4.644,0,0,0,35.411,36.351Zm12.8,4.825a4.155,4.155,0,0,1-3.146-1.27,4.714,4.714,0,0,1-1.213-3.4v-.3a5.707,5.707,0,0,1,.541-2.527,4.217,4.217,0,0,1,1.512-1.74,3.8,3.8,0,0,1,2.1-.628,3.562,3.562,0,0,1,2.883,1.222,5.289,5.289,0,0,1,1.028,3.5v.677H45.475a3.38,3.38,0,0,0,.822,2.272,2.583,2.583,0,0,0,2,.866,2.832,2.832,0,0,0,1.459-.352,3.666,3.666,0,0,0,1.046-.932l.993.773A3.993,3.993,0,0,1,48.208,41.176Zm-.2-8.525a2.169,2.169,0,0,0-1.652.716,3.482,3.482,0,0,0-.826,2.008h4.764v-.123a3.1,3.1,0,0,0-.668-1.92A2.042,2.042,0,0,0,48.006,32.65ZM54.879,28.7l-.264,3.146H53.64l.009-4.342h1.23Zm2.373,0-.264,3.146h-.976l.009-4.342h1.23Zm2.127,11.452a1.018,1.018,0,0,1,.25-.7.954.954,0,0,1,.751-.281.983.983,0,0,1,.76.281,1,1,0,0,1,.259.7.944.944,0,0,1-.259.677,1,1,0,0,1-.76.272.9.9,0,0,1-1-.949Zm.009-7.761a1.018,1.018,0,0,1,.25-.7.954.954,0,0,1,.751-.281.983.983,0,0,1,.76.281,1,1,0,0,1,.259.7.944.944,0,0,1-.259.677,1,1,0,0,1-.76.272.9.9,0,0,1-1-.949Zm6.6,1.424H67.21a2.685,2.685,0,0,0,1.811-.606,2.026,2.026,0,0,0,.659-1.591,1.985,1.985,0,0,0-2.241-2.25,2.331,2.331,0,0,0-1.683.6,2.107,2.107,0,0,0-.628,1.6H63.5a3.264,3.264,0,0,1,1.112-2.527,4.05,4.05,0,0,1,2.826-1.006,4,4,0,0,1,2.839.958,3.461,3.461,0,0,1,1.028,2.663,2.809,2.809,0,0,1-.541,1.617,3.264,3.264,0,0,1-1.472,1.169,3.145,3.145,0,0,1,1.63,1.107,3.076,3.076,0,0,1,.576,1.89,3.491,3.491,0,0,1-1.125,2.733,4.213,4.213,0,0,1-2.927,1.011,4.324,4.324,0,0,1-2.931-.976,3.236,3.236,0,0,1-1.129-2.575h1.635a2.092,2.092,0,0,0,.659,1.617,2.507,2.507,0,0,0,1.767.606,2.46,2.46,0,0,0,1.8-.615,2.371,2.371,0,0,0,.624-1.767,2.151,2.151,0,0,0-.686-1.714,2.987,2.987,0,0,0-1.978-.615H65.988Zm15.768,1.731a7.436,7.436,0,0,1-.976,4.245,4.054,4.054,0,0,1-6.082.031,7.058,7.058,0,0,1-1.02-4.056V33.591a7.271,7.271,0,0,1,.976-4.192,4.127,4.127,0,0,1,6.1-.048,7.017,7.017,0,0,1,1,4.083ZM80.13,33.318a5.958,5.958,0,0,0-.58-3.01,2,2,0,0,0-1.837-.945,1.97,1.97,0,0,0-1.819.94A5.817,5.817,0,0,0,75.3,33.2v2.6a6.053,6.053,0,0,0,.6,3.063,1.993,1.993,0,0,0,1.824.989,1.966,1.966,0,0,0,1.789-.932,5.834,5.834,0,0,0,.611-2.936Zm3.823,10.23-.923-.633a4.241,4.241,0,0,0,.861-2.373V39.075h1.591V40.35a4,4,0,0,1-.435,1.775A4.156,4.156,0,0,1,83.953,43.549ZM20.259,52.7,20,55.842H19.02l.009-4.342h1.23Zm2.373,0-.264,3.146h-.976L21.4,51.5h1.23Zm5.476,11.153a2.342,2.342,0,0,0,1.521-.527A1.855,1.855,0,0,0,30.349,62h1.538a2.949,2.949,0,0,1-.562,1.556,3.7,3.7,0,0,1-1.384,1.178,3.994,3.994,0,0,1-1.833.439,3.918,3.918,0,0,1-3.089-1.3,5.163,5.163,0,0,1-1.147-3.546v-.272a5.725,5.725,0,0,1,.51-2.47,3.883,3.883,0,0,1,1.463-1.679,4.157,4.157,0,0,1,2.254-.6,3.814,3.814,0,0,1,2.659.958,3.424,3.424,0,0,1,1.129,2.487H30.349a2.241,2.241,0,0,0-.7-1.516A2.174,2.174,0,0,0,28.1,56.65a2.276,2.276,0,0,0-1.92.892,4.19,4.19,0,0,0-.681,2.58v.308a4.106,4.106,0,0,0,.677,2.531A2.287,2.287,0,0,0,28.107,63.849ZM39.586,65a3.416,3.416,0,0,1-.229-1,3.628,3.628,0,0,1-2.707,1.178,3.357,3.357,0,0,1-2.307-.8,2.573,2.573,0,0,1-.9-2.017,2.688,2.688,0,0,1,1.129-2.307,5.325,5.325,0,0,1,3.177-.822h1.582v-.747a1.826,1.826,0,0,0-.51-1.358,2.049,2.049,0,0,0-1.5-.505,2.371,2.371,0,0,0-1.459.439,1.3,1.3,0,0,0-.589,1.063H33.636a2.244,2.244,0,0,1,.505-1.375,3.449,3.449,0,0,1,1.371-1.05,4.613,4.613,0,0,1,1.9-.387,3.759,3.759,0,0,1,2.575.822,2.964,2.964,0,0,1,.967,2.263v4.377a5.351,5.351,0,0,0,.334,2.083V65Zm-2.7-1.239a2.858,2.858,0,0,0,1.45-.4,2.392,2.392,0,0,0,.993-1.028V60.386H38.057q-2.988,0-2.988,1.749a1.48,1.48,0,0,0,.51,1.2A1.959,1.959,0,0,0,36.888,63.761ZM48.1,56.949a4.873,4.873,0,0,0-.8-.062,2.143,2.143,0,0,0-2.171,1.362V65H43.506V55.49h1.582l.026,1.1a2.532,2.532,0,0,1,2.268-1.274,1.661,1.661,0,0,1,.721.123Zm7.031,5.528a1.2,1.2,0,0,0-.5-1.024,4.78,4.78,0,0,0-1.731-.628,8.186,8.186,0,0,1-1.96-.633,2.788,2.788,0,0,1-1.072-.879,2.1,2.1,0,0,1-.347-1.213,2.467,2.467,0,0,1,.989-1.978,3.861,3.861,0,0,1,2.527-.809,3.974,3.974,0,0,1,2.624.835,2.652,2.652,0,0,1,1.006,2.136H55.037a1.468,1.468,0,0,0-.567-1.151,2.124,2.124,0,0,0-1.428-.483,2.223,2.223,0,0,0-1.389.387,1.217,1.217,0,0,0-.5,1.011.986.986,0,0,0,.466.888,5.731,5.731,0,0,0,1.683.571,8.77,8.77,0,0,1,1.973.65,2.878,2.878,0,0,1,1.121.91,2.237,2.237,0,0,1,.365,1.3,2.434,2.434,0,0,1-1.02,2.043,4.277,4.277,0,0,1-2.646.769,4.789,4.789,0,0,1-2.021-.4A3.288,3.288,0,0,1,49.7,63.642a2.722,2.722,0,0,1-.5-1.569h1.626a1.683,1.683,0,0,0,.655,1.3,2.54,2.54,0,0,0,1.613.479,2.622,2.622,0,0,0,1.481-.374A1.148,1.148,0,0,0,55.134,62.478ZM60.082,52.7l-.264,3.146h-.976l.009-4.342h1.23Zm2.373,0-.264,3.146h-.976l.009-4.342h1.23Zm2.127,11.452a1.018,1.018,0,0,1,.25-.7.954.954,0,0,1,.751-.281.983.983,0,0,1,.76.281,1,1,0,0,1,.259.7.944.944,0,0,1-.259.677,1,1,0,0,1-.76.272.9.9,0,0,1-1-.949Zm.009-7.761a1.018,1.018,0,0,1,.25-.7.954.954,0,0,1,.751-.281.983.983,0,0,1,.76.281,1,1,0,0,1,.259.7.944.944,0,0,1-.259.677,1,1,0,0,1-.76.272.9.9,0,0,1-1-.949Zm7.77-4.676H70.682v14.7H72.36v1.336H69.047V50.375H72.36ZM78.188,76.7l-.264,3.146h-.976l.009-4.342h1.23Zm2.373,0L80.3,79.842h-.976L79.33,75.5h1.23Zm9.492,6.653h-5.37V89H83V76.2h7.928v1.38h-6.24v4.386h5.37Zm2.021.809a5.617,5.617,0,0,1,.549-2.514,4.1,4.1,0,0,1,1.529-1.723,4.163,4.163,0,0,1,2.237-.606,4.01,4.01,0,0,1,3.142,1.345,5.174,5.174,0,0,1,1.2,3.577v.114a5.666,5.666,0,0,1-.532,2.492,4.038,4.038,0,0,1-1.521,1.718,4.211,4.211,0,0,1-2.272.615,4,4,0,0,1-3.133-1.345,5.147,5.147,0,0,1-1.2-3.56Zm1.635.193a4.068,4.068,0,0,0,.734,2.54,2.487,2.487,0,0,0,3.933-.013,4.449,4.449,0,0,0,.729-2.72,4.061,4.061,0,0,0-.743-2.536,2.361,2.361,0,0,0-1.973-.971,2.335,2.335,0,0,0-1.942.958A4.416,4.416,0,0,0,93.709,84.351Zm13.658-3.4a4.873,4.873,0,0,0-.8-.062A2.143,2.143,0,0,0,104.4,82.25V89h-1.626V79.49h1.582l.026,1.1a2.532,2.532,0,0,1,2.268-1.274,1.661,1.661,0,0,1,.721.123Zm.932,3.217a5.571,5.571,0,0,1,1.037-3.52,3.529,3.529,0,0,1,5.361-.189V75.5h1.626V89h-1.494l-.079-1.02a3.311,3.311,0,0,1-2.716,1.2,3.248,3.248,0,0,1-2.694-1.354,5.634,5.634,0,0,1-1.042-3.533Zm1.626.185a4.218,4.218,0,0,0,.668,2.531,2.159,2.159,0,0,0,1.846.914,2.372,2.372,0,0,0,2.259-1.389V82.039a2.39,2.39,0,0,0-2.241-1.345,2.17,2.17,0,0,0-1.863.923A4.644,4.644,0,0,0,109.925,84.351ZM120.05,76.7l-.264,3.146h-.976l.009-4.342h1.23Zm2.373,0-.264,3.146h-.976l.009-4.342h1.23Zm2.127,14.854-.923-.633a4.241,4.241,0,0,0,.861-2.373V87.075h1.591V88.35a4,4,0,0,1-.435,1.775A4.156,4.156,0,0,1,124.55,91.549ZM2.435,100.7l-.264,3.146H1.2L1.2,99.5h1.23Zm2.373,0-.264,3.146H3.568L3.577,99.5h1.23ZM7.242,113V100.2h4.184a4.856,4.856,0,0,1,3.133.861,3.1,3.1,0,0,1,1.05,2.549,2.6,2.6,0,0,1-.51,1.586,3.3,3.3,0,0,1-1.389,1.068,2.968,2.968,0,0,1,1.639,1.1,3.166,3.166,0,0,1,.6,1.938,3.423,3.423,0,0,1-1.116,2.707,4.616,4.616,0,0,1-3.155.984Zm1.688-5.985v4.605h2.786a2.683,2.683,0,0,0,1.859-.611,2.145,2.145,0,0,0,.681-1.683q0-2.312-2.514-2.312Zm0-1.354h2.549a2.672,2.672,0,0,0,1.771-.555,1.86,1.86,0,0,0,.664-1.506,1.829,1.829,0,0,0-.615-1.537,3.021,3.021,0,0,0-1.872-.48H8.93Zm11.7-5.458,4.184,10.441L29,100.2h2.188V113H29.5v-4.983l.158-5.379L25.453,113H24.161l-4.192-10.336.167,5.353V113H18.448V100.2Zm16.295,8.763.246,1.688.36-1.521,2.531-8.93h1.424l2.47,8.93.352,1.547.272-1.723,1.986-8.754h1.7l-3.1,12.8H43.62l-2.637-9.325-.2-.976-.2.976L37.846,113H36.308l-3.094-12.8H34.9ZM51.082,100.7l-.264,3.146h-.976l.009-4.342h1.23Zm2.373,0-.264,3.146h-.976l.009-4.342h1.23Zm2.127,14.854-.923-.633a4.241,4.241,0,0,0,.861-2.373v-1.468h1.591v1.274a4,4,0,0,1-.435,1.775A4.156,4.156,0,0,1,55.582,115.549ZM64.828,100.7l-.264,3.146h-.976L63.6,99.5h1.23Zm2.373,0-.264,3.146h-.976l.009-4.342H67.2Zm9.492,6.653h-5.37V113H69.636V100.2h7.928v1.38h-6.24v4.386h5.37ZM81.1,113H79.471v-9.51H81.1Zm-1.758-12.032a.971.971,0,0,1,.242-.668.907.907,0,0,1,.716-.272.922.922,0,0,1,.721.272.96.96,0,0,1,.246.668.929.929,0,0,1-.246.659.938.938,0,0,1-.721.264.924.924,0,0,1-.716-.264A.938.938,0,0,1,79.339,100.968ZM89.569,113a3.416,3.416,0,0,1-.229-1,3.628,3.628,0,0,1-2.707,1.178,3.357,3.357,0,0,1-2.307-.8,2.573,2.573,0,0,1-.9-2.017,2.688,2.688,0,0,1,1.129-2.307,5.325,5.325,0,0,1,3.177-.822h1.582v-.747a1.826,1.826,0,0,0-.51-1.358,2.049,2.049,0,0,0-1.5-.505,2.371,2.371,0,0,0-1.459.439,1.3,1.3,0,0,0-.589,1.063H83.619a2.244,2.244,0,0,1,.505-1.375A3.449,3.449,0,0,1,85.5,103.7a4.613,4.613,0,0,1,1.9-.387,3.759,3.759,0,0,1,2.575.822,2.964,2.964,0,0,1,.967,2.263v4.377a5.351,5.351,0,0,0,.334,2.083V113Zm-2.7-1.239a2.858,2.858,0,0,0,1.45-.4,2.392,2.392,0,0,0,.993-1.028v-1.951H88.04q-2.988,0-2.988,1.749a1.48,1.48,0,0,0,.51,1.2A1.959,1.959,0,0,0,86.871,111.761ZM95.7,101.188v2.3h1.775v1.257H95.7v5.9a1.32,1.32,0,0,0,.237.858,1,1,0,0,0,.809.286,3.937,3.937,0,0,0,.773-.105V113a4.742,4.742,0,0,1-1.248.175,2.025,2.025,0,0,1-1.644-.659,2.832,2.832,0,0,1-.554-1.872v-5.9H92.338V103.49h1.731v-2.3Zm4.878-.492-.264,3.146h-.976l.009-4.342h1.23Zm2.373,0-.264,3.146h-.976l.009-4.342h1.23ZM66.92,122.375h3.322v17.367H66.92v-1.336h1.7v-14.7h-1.7ZM.167,163.206q1.784-.571,1.846-2.909v-1.934A2.767,2.767,0,0,1,3.6,155.595a2.747,2.747,0,0,1-1.591-2.769v-1.784q0-2.479-1.837-3.067l.334-1.011a4.394,4.394,0,0,1,2.338,1.428,4.131,4.131,0,0,1,.791,2.615v1.846q0,2.1,1.863,2.1v1.274q-1.863,0-1.863,2.136v1.775a4.109,4.109,0,0,1-.8,2.646A4.448,4.448,0,0,1,.51,164.217Z" transform="translate(796 5163)" fill="#12263f"/>
    <g id="Grupo_1065826" data-name="Grupo 1065826" transform="translate(600 5276.109)">
      <g id="Grupo_1065792" data-name="Grupo 1065792" clip-path="url(#clip-path)">
        <g id="Grupo_1065791" data-name="Grupo 1065791">
          <g id="Grupo_1065790" data-name="Grupo 1065790" clip-path="url(#clip-path-2)">
            <path id="Trazado_800059" data-name="Trazado 800059" d="M99.814,89.555h0A13.446,13.446,0,0,0,113.1,75.91l-.056-15.68s11.019-1.751,11.157-13.022-1.775-37.15-1.775-37.15A37.59,37.59,0,0,0,83.954,15l2.6,61.926A13.419,13.419,0,0,0,99.814,89.555" transform="translate(10.039 6.589)" fill="#b78876"/>
            <path id="Trazado_800060" data-name="Trazado 800060" d="M104.127,36.078A25.164,25.164,0,0,1,89.763,31.9s3.395,8.11,14.389,7.1Z" transform="translate(18.977 30.58)" fill="#aa6550"/>
            <path id="Trazado_800061" data-name="Trazado 800061" d="M111.452,17.816c-.188-.082-7.571-2.29-7.33,5.415s7.753,5.868,7.76,5.647-.431-11.062-.431-11.062" transform="translate(-16.237 16.739)" fill="#b78876"/>
            <path id="Trazado_800062" data-name="Trazado 800062" d="M108.818,24.8c-.034-.024-.128.1-.347.21a1.292,1.292,0,0,1-.98.053c-.806-.272-1.516-1.543-1.595-2.932A4.5,4.5,0,0,1,106.2,20.2a1.547,1.547,0,0,1,.955-1.064.663.663,0,0,1,.785.345c.109.212.065.366.105.378.021.02.157-.133.088-.45a.858.858,0,0,0-.312-.472.967.967,0,0,0-.731-.172A1.858,1.858,0,0,0,105.758,20a4.667,4.667,0,0,0-.387,2.164c.1,1.549.919,2.977,2.018,3.263a1.373,1.373,0,0,0,1.193-.243c.228-.2.262-.37.236-.384" transform="translate(-15.565 17.973)" fill="#aa6550"/>
            <path id="Trazado_800063" data-name="Trazado 800063" d="M90.113,18.13A1.593,1.593,0,0,1,88.6,19.754,1.516,1.516,0,0,1,86.975,18.3a1.6,1.6,0,0,1,1.515-1.626,1.519,1.519,0,0,1,1.624,1.453" transform="translate(38.357 15.984)" fill="#263238"/>
            <path id="Trazado_800064" data-name="Trazado 800064" d="M92.18,17.423c-.2.21-1.386-.693-3.081-.687-1.691-.02-2.933.87-3.117.658-.09-.094.109-.472.649-.875a4.256,4.256,0,0,1,2.5-.787,4.079,4.079,0,0,1,2.451.811c.521.407.7.787.6.881" transform="translate(38.205 15.079)" fill="#263238"/>
            <path id="Trazado_800065" data-name="Trazado 800065" d="M98.773,18.13a1.594,1.594,0,0,1-1.516,1.624A1.517,1.517,0,0,1,95.635,18.3a1.6,1.6,0,0,1,1.515-1.626,1.519,1.519,0,0,1,1.624,1.453" transform="translate(13.115 15.984)" fill="#263238"/>
            <path id="Trazado_800066" data-name="Trazado 800066" d="M100.872,17.588c-.2.21-1.388-.693-3.081-.687-1.691-.022-2.933.87-3.117.658-.09-.094.105-.472.649-.875a4.254,4.254,0,0,1,2.495-.787,4.08,4.08,0,0,1,2.453.811c.519.407.7.787.6.881" transform="translate(12.87 15.237)" fill="#263238"/>
            <path id="Trazado_800067" data-name="Trazado 800067" d="M90,30.381a11.052,11.052,0,0,1,2.75-.507c.433-.045.842-.133.915-.435a2.292,2.292,0,0,0-.289-1.312q-.609-1.6-1.279-3.367c-1.775-4.795-3.06-8.737-2.87-8.81S91,19.707,92.78,24.5q.64,1.772,1.225,3.386a2.624,2.624,0,0,1,.224,1.737,1.1,1.1,0,0,1-.712.646,2.892,2.892,0,0,1-.733.1,10.83,10.83,0,0,1-2.788,0" transform="translate(29.89 15.289)" fill="#263238"/>
            <path id="Trazado_800068" data-name="Trazado 800068" d="M91.516,23.929c.276-.016.28,1.863,1.852,3.2s3.531,1.126,3.544,1.391c.025.118-.437.364-1.264.388a4.526,4.526,0,0,1-2.958-1.054,4.112,4.112,0,0,1-1.434-2.683c-.071-.785.134-1.252.26-1.24" transform="translate(23.386 22.937)" fill="#263238"/>
            <path id="Trazado_800069" data-name="Trazado 800069" d="M102.16,13.929c-.167.47-1.857.247-3.845.494-1.991.2-3.592.8-3.856.376-.117-.2.161-.644.81-1.1a6.606,6.606,0,0,1,5.867-.664c.73.3,1.1.672,1.024.9" transform="translate(12.018 12.108)" fill="#263238"/>
            <path id="Trazado_800070" data-name="Trazado 800070" d="M92.041,14.913c-.3.394-1.465-.016-2.866-.033-1.4-.071-2.591.264-2.864-.147-.119-.2.067-.6.586-.968a4.075,4.075,0,0,1,4.618.147c.5.4.659.809.527,1" transform="translate(37.721 12.575)" fill="#263238"/>
            <path id="Trazado_800071" data-name="Trazado 800071" d="M131.54,9.533a4.206,4.206,0,0,0-1.5-3.717A2.838,2.838,0,0,0,126.3,6.1a3.433,3.433,0,0,0-2.893-4.176c-1.8-.118-3.33,1.271-5.066,1.759a8.012,8.012,0,0,1-5.145-.607c-1.629-.672-3.154-1.6-4.8-2.217A13.971,13.971,0,0,0,97.679,1.3,14.456,14.456,0,0,0,90.37,9.323a6.186,6.186,0,0,0-6.633,2.57,10.691,10.691,0,0,0-1.572,7.394,23.893,23.893,0,0,0,1.26,5.059c0,.145-.015.286-.011.431.113,6.2.8,13.477,3.383,13.516,4.505.071,3.431-8.612,3.431-8.612C95.758,27.5,93.7,19.022,95.08,17.737s4.276-4.272,15.85,1.778c4.5,2.35,10.472,2.278,13.734,1.52.1-.022.193-.035.287-.059.021-.006.048-.01.067-.016a.819.819,0,0,0,.1-.039,10.267,10.267,0,0,0,2.97-1.287,5.978,5.978,0,0,0,2.447-2.783,3.341,3.341,0,0,0-.632-3.527,7.317,7.317,0,0,0,1.641-3.792" transform="translate(6.296 0)" fill="#263238"/>
            <path id="Trazado_800072" data-name="Trazado 800072" d="M121.078,47.972c.281.474,3.412,6.51,3.412,6.51S121.995,44.6,121.9,44.241c-.808-3.228,1.145-2.893,1.717-1.739.59,1.193,4.124,10.917,4.124,10.917-3.318-12.709-2.28-13.827-1.348-14.027s3.858,11.418,3.858,11.418a10.81,10.81,0,0,1,3-3.353c3-2.111,8,0,8.241,1.442s-1.543,1.849-1.543,1.849a4.524,4.524,0,0,0-7.218,4.193c.393,3.668,4.936,3.159,5.5.548,1.243-5.731,3.171-3.868,3.171-3.868l-1.932,12.639,2.045,6.356,11.172,31L174.054,78.86s11.423,25.828,11.693,26.693c.18.584-10.713,12.173-17.874,19.707a19.97,19.97,0,0,1-14.782,6.256A20.324,20.324,0,0,1,133.7,115.562l-8.448-44.524L121.3,56.446s-1.426-5.927-1.765-7.313c-.45-1.831.806-2.407,1.547-1.161" transform="translate(-119.435 37.757)" fill="#b78876"/>
            <path id="Trazado_800073" data-name="Trazado 800073" d="M33.523,111.339c-6.372,1.148-13.7-3.541-17.608-8.812L0,81.079,18.7,64.018,35.459,85.423l62.925-3.414,14.862-8.52a5.117,5.117,0,0,1,3.356-.619l20.453,5.9L117.864,84.8,84.378,97.694Z" transform="translate(157.945 61.365)" fill="#b78876"/>
            <path id="Trazado_800074" data-name="Trazado 800074" d="M156.194,249.231l-2.637,11.328s-18.113,24.063-23.7,22.886c-3.661-.772.837-7.049,7.728-25.326l1.446-7.548Z" transform="translate(-107.337 238.904)" fill="#e8505b"/>
            <path id="Trazado_800075" data-name="Trazado 800075" d="M129.751,275.68a1,1,0,0,0,.144.341,2.031,2.031,0,0,0,.76.727,2.934,2.934,0,0,0,1.612.362,4.233,4.233,0,0,0,2.051-.77,88.67,88.67,0,0,0,9.127-8.7,118.355,118.355,0,0,0,8.1-9.7c.965-1.3,1.721-2.372,2.231-3.122l.574-.87a1.36,1.36,0,0,0,.182-.319,1.5,1.5,0,0,0-.239.276l-.63.828c-.676.891-1.446,1.9-2.317,3.048-1.982,2.548-4.8,6.011-8.155,9.611a102.941,102.941,0,0,1-9.007,8.737,3.289,3.289,0,0,1-3.46.5,2.419,2.419,0,0,1-.969-.942" transform="translate(-107.966 243.115)" fill="#263238"/>
            <path id="Trazado_800076" data-name="Trazado 800076" d="M137.287,261.03c.01.063.572-.053,1.465.076a8.528,8.528,0,0,1,3.259,1.265,6.749,6.749,0,0,1,2.445,2.5c.429.807.548,1.385.607,1.367a3.244,3.244,0,0,0-.381-1.485,6.334,6.334,0,0,0-2.483-2.689,7.624,7.624,0,0,0-3.42-1.21,2.779,2.779,0,0,0-1.492.178" transform="translate(-112.937 250.03)" fill="#263238"/>
            <path id="Trazado_800077" data-name="Trazado 800077" d="M129.947,263.636c.061-.018-.19-.813-.333-2.125a8.889,8.889,0,0,1,.91-4.963,8.1,8.1,0,0,1,3.46-3.574,14.109,14.109,0,0,1,1.963-.733,1.567,1.567,0,0,0-.573.031,5.909,5.909,0,0,0-1.5.468,7.854,7.854,0,0,0-3.669,3.641,8.605,8.605,0,0,0-.842,5.163,10.135,10.135,0,0,0,.362,1.551,1.716,1.716,0,0,0,.222.541" transform="translate(-88.449 241.776)" fill="#263238"/>
            <path id="Trazado_800078" data-name="Trazado 800078" d="M130.772,250.212a11.612,11.612,0,0,0-1,3.549c-.331,2.009-.687,3.6-.609,3.627a11.879,11.879,0,0,0,.959-3.561c.337-2,.741-3.582.653-3.616" transform="translate(-83.067 239.844)" fill="#263238"/>
            <path id="Trazado_800079" data-name="Trazado 800079" d="M136.129,254.659c.008.108,1.034.076,2.246.368s2.122.768,2.175.676a3.946,3.946,0,0,0-2.1-1.03,3.9,3.9,0,0,0-2.324-.014" transform="translate(-106.2 243.963)" fill="#263238"/>
            <path id="Trazado_800080" data-name="Trazado 800080" d="M136.712,255.675c.015.108.873.016,1.878.268,1.009.237,1.735.713,1.8.625a2.749,2.749,0,0,0-1.714-.979,2.693,2.693,0,0,0-1.961.086" transform="translate(-107.155 244.885)" fill="#263238"/>
            <path id="Trazado_800081" data-name="Trazado 800081" d="M137.432,257a9.554,9.554,0,0,1,1.951.072,9.5,9.5,0,0,1,1.792.8,2.375,2.375,0,0,0-1.712-1.152,2.33,2.33,0,0,0-2.032.282" transform="translate(-109.323 245.998)" fill="#263238"/>
            <path id="Trazado_800082" data-name="Trazado 800082" d="M134.332,256.459a1.842,1.842,0,0,0,.607-.069,12.2,12.2,0,0,0,1.6-.443,14.205,14.205,0,0,0,3.5-1.818,1.872,1.872,0,0,0,.906-1.424,1.071,1.071,0,0,0-1.382-.885,2.86,2.86,0,0,0-1.262.866,23.08,23.08,0,0,0-1.664,1.855c-.444.554-.775,1.024-.994,1.357a1.989,1.989,0,0,0-.3.541c.046.033.563-.674,1.49-1.729.463-.527,1.034-1.14,1.7-1.782a2.623,2.623,0,0,1,1.112-.758c.41-.108.94.119.948.556s-.387.838-.754,1.116c-.4.29-.808.554-1.2.787a16.369,16.369,0,0,1-2.183,1.075c-1.289.515-2.137.7-2.123.754" transform="translate(-103.157 241.348)" fill="#263238"/>
            <path id="Trazado_800083" data-name="Trazado 800083" d="M140.624,257.041a1.755,1.755,0,0,0,.021-.568c-.011-.362-.034-.889-.115-1.539a8.146,8.146,0,0,0-.569-2.237,4.768,4.768,0,0,0-.712-1.187,1.2,1.2,0,0,0-1.449-.47,1.447,1.447,0,0,0-.5,1.477,5.2,5.2,0,0,0,.4,1.332,6.832,6.832,0,0,0,1.292,1.9,8.218,8.218,0,0,0,1.155,1.007,1.511,1.511,0,0,0,.483.284c.038-.051-.615-.511-1.451-1.465A7.085,7.085,0,0,1,138,253.713a5.128,5.128,0,0,1-.35-1.24c-.052-.419,0-.934.325-1.114.329-.2.743.07,1.019.39a4.518,4.518,0,0,1,.674,1.087,8.814,8.814,0,0,1,.618,2.137,18.168,18.168,0,0,0,.343,2.068" transform="translate(-108.497 240.533)" fill="#263238"/>
            <g id="Grupo_1065783" data-name="Grupo 1065783" transform="translate(21.246 494.018)" opacity="0.4">
              <g id="Grupo_1065782" data-name="Grupo 1065782">
                <g id="Grupo_1065781" data-name="Grupo 1065781" clip-path="url(#clip-path-3)">
                  <path id="Trazado_800084" data-name="Trazado 800084" d="M154.24,257.679l1.275-5.445s-4.438.84-5.589,4.238a14.532,14.532,0,0,0-.865,5.815l-9.648,10.629s-2.42-4.838-6.8-3.676c0,0-3.448,7.76-3.343,9.7.117,2.137,2.319,1.708,3.1,1.344a39.052,39.052,0,0,0,8.637-6.973c5.112-5.425,10.759-12.3,13.233-15.637" transform="translate(-129.264 -252.235)"/>
                </g>
              </g>
            </g>
            <path id="Trazado_800085" data-name="Trazado 800085" d="M99.734,259.715l.084-15.108-27.666-.343-.352,22.1,1.716.133c7.628.529,38.825,2.137,43.946.617,5.714-1.7-17.728-7.4-17.728-7.4" transform="translate(39.163 234.143)" fill="#e8505b"/>
            <g id="Grupo_1065786" data-name="Grupo 1065786" transform="translate(110.998 492.176)" opacity="0.4">
              <g id="Grupo_1065785" data-name="Grupo 1065785">
                <g id="Grupo_1065784" data-name="Grupo 1065784" clip-path="url(#clip-path-4)">
                  <path id="Trazado_800086" data-name="Trazado 800086" d="M100.878,259.529a9.855,9.855,0,0,0-3.458-6.077,9.184,9.184,0,0,0-6.443-2.137l-.1,7.909Z" transform="translate(-90.879 -251.294)"/>
                </g>
              </g>
            </g>
            <g id="Grupo_1065789" data-name="Grupo 1065789" transform="translate(110.964 497.066)" opacity="0.4">
              <g id="Grupo_1065788" data-name="Grupo 1065788" transform="translate(0)">
                <g id="Grupo_1065787" data-name="Grupo 1065787" clip-path="url(#clip-path-5)">
                  <path id="Trazado_800087" data-name="Trazado 800087" d="M111.141,253.791s8.21,2.532,7.165,3.907-32.629.966-46.547-.464l.052-.631,36.839.8s.879-3.565,2.491-3.614" transform="translate(-71.76 -253.79)"/>
                </g>
              </g>
            </g>
            <path id="Trazado_800088" data-name="Trazado 800088" d="M71.8,255.221a2.553,2.553,0,0,0,.475.059l1.365.1,5.026.288c4.243.212,10.112.423,16.6.513s12.359.039,16.608-.057l5.03-.147c.507-.025.957-.045,1.367-.065a2.559,2.559,0,0,0,.477-.047,2.533,2.533,0,0,0-.479-.023H116.9l-5.032.041c-4.249.031-10.117.043-16.6-.045s-12.346-.264-16.591-.413l-5.03-.178-1.367-.037a2.424,2.424,0,0,0-.479.01" transform="translate(38.784 244.634)" fill="#263238"/>
            <path id="Trazado_800089" data-name="Trazado 800089" d="M75.485,258.013a11.617,11.617,0,0,1,.971-2.442,11.347,11.347,0,0,1,1.739-1.947,3.725,3.725,0,0,0-2.024,1.763,3.873,3.873,0,0,0-.685,2.626" transform="translate(72.358 243.106)" fill="#263238"/>
            <path id="Trazado_800090" data-name="Trazado 800090" d="M80.319,254.788c.077.051.475-.429.887-1.075s.682-1.208.605-1.261-.475.429-.886,1.075-.682,1.21-.605,1.261" transform="translate(59.413 241.988)" fill="#263238"/>
            <path id="Trazado_800091" data-name="Trazado 800091" d="M81.345,253.779c.061.07.5-.221.984-.652s.823-.84.762-.911-.5.219-.984.652-.823.84-.762.911" transform="translate(56.162 241.755)" fill="#263238"/>
            <path id="Trazado_800092" data-name="Trazado 800092" d="M81.467,251.7a6.143,6.143,0,0,0,2.889.07,6.209,6.209,0,0,0-2.889-.07" transform="translate(54.658 241.142)" fill="#263238"/>
            <path id="Trazado_800093" data-name="Trazado 800093" d="M81.511,250.684a4,4,0,0,0,3.27.3,8.723,8.723,0,0,0-1.635-.137,8.767,8.767,0,0,0-1.635-.159" transform="translate(54.15 240.271)" fill="#263238"/>
            <path id="Trazado_800094" data-name="Trazado 800094" d="M77.853,253.611a4.965,4.965,0,0,0,1.777.012,10.268,10.268,0,0,0,1.9-.4,5.229,5.229,0,0,0,1.089-.443.988.988,0,0,0,.446-.56.723.723,0,0,0-.26-.731,3.216,3.216,0,0,0-4.044.922,3.326,3.326,0,0,0-.6,1.207,1.044,1.044,0,0,0-.052.492,5.225,5.225,0,0,1,.829-1.541,3.186,3.186,0,0,1,1.532-.989,2.7,2.7,0,0,1,2.116.174c.28.217.167.556-.149.742a5.2,5.2,0,0,1-1.005.425,11.937,11.937,0,0,1-1.836.462c-1.068.18-1.746.172-1.746.229" transform="translate(62.848 240.707)" fill="#263238"/>
            <path id="Trazado_800095" data-name="Trazado 800095" d="M82.51,254.171a1.825,1.825,0,0,0,.22-1.259,3.018,3.018,0,0,0-.469-1.336,1.778,1.778,0,0,0-1.467-.946.724.724,0,0,0-.559.832,2.036,2.036,0,0,0,.291.817,5.5,5.5,0,0,0,.827,1.11,2.58,2.58,0,0,0,1.007.75c.033-.045-.35-.331-.833-.913a6.43,6.43,0,0,1-.729-1.1c-.241-.388-.4-1.081.048-1.158.446-.037.894.421,1.162.787a3.062,3.062,0,0,1,.488,1.189,6.817,6.817,0,0,1,.013,1.226" transform="translate(58.651 240.245)" fill="#263238"/>
            <path id="Trazado_800096" data-name="Trazado 800096" d="M90.886,251.349c.006.065.793-.067,2.043.1a8.819,8.819,0,0,1,4.434,1.939,9.118,9.118,0,0,1,2.736,4.064c.408,1.218.438,2.033.5,2.027a1.737,1.737,0,0,0,.008-.572,7.651,7.651,0,0,0-.283-1.53,8.766,8.766,0,0,0-2.75-4.256,8.43,8.43,0,0,0-4.622-1.914,7.067,7.067,0,0,0-1.522.02,1.537,1.537,0,0,0-.546.121" transform="translate(20.357 240.77)" fill="#263238"/>
            <path id="Trazado_800097" data-name="Trazado 800097" d="M94.723,245.272a50.938,50.938,0,0,0-.312,5.809,50.623,50.623,0,0,0,.023,5.819,50.41,50.41,0,0,0,.312-5.809,50.62,50.62,0,0,0-.023-5.819" transform="translate(19.534 235.109)" fill="#263238"/>
            <path id="Trazado_800098" data-name="Trazado 800098" d="M84.818,254.129a15.344,15.344,0,0,0,4.032.462,15.4,15.4,0,0,0,4.052-.278c-.008-.1-1.817-.01-4.044-.065s-4.029-.217-4.04-.119" transform="translate(39.696 243.57)" fill="#263238"/>
            <path id="Trazado_800099" data-name="Trazado 800099" d="M91.481,254.078c-.069.069.144.394.322.821s.276.8.371.8.147-.445-.063-.936-.569-.75-.63-.682" transform="translate(27.61 243.54)" fill="#263238"/>
            <path id="Trazado_800100" data-name="Trazado 800100" d="M92.395,252.738c-.067.067.107.362.391.664s.565.49.632.425-.107-.362-.391-.664-.565-.492-.632-.425" transform="translate(24.686 242.254)" fill="#263238"/>
            <path id="Trazado_800101" data-name="Trazado 800101" d="M93.622,252.181c.017.1.387.1.791.249s.7.378.768.313-.153-.456-.657-.636-.929-.014-.9.074" transform="translate(20.549 241.583)" fill="#263238"/>
            <path id="Trazado_800102" data-name="Trazado 800102" d="M95.1,251.836c-.034.088.123.235.35.329s.442.1.477.012-.123-.235-.35-.329-.442-.1-.477-.012" transform="translate(17.002 241.341)" fill="#263238"/>
            <path id="Trazado_800103" data-name="Trazado 800103" d="M75.617,395.295l54.7-296.337,76.045,11.847L200.96,392.492l-43.081.924,7.155-245.741-48.458,247.62Z" transform="translate(-56.151 94.858)" fill="#455a64"/>
            <path id="Trazado_800104" data-name="Trazado 800104" d="M86.361,184.4l86.922-3.32-2.472-81.138,11.394,13.289,23.231-20.577L179.876,57.025A41.213,41.213,0,0,0,152.2,40.283c-3.243-.452-5.71-.672-7.312-.877a46.054,46.054,0,0,1-28.359-.018,37.916,37.916,0,0,0-11.743,2.3A48.254,48.254,0,0,0,86.051,54.1l0-.006L57.533,93.523,81.909,115.1,95.8,102.6Z" transform="translate(-20.596 37.756)" fill="#263238"/>
            <path id="Trazado_800105" data-name="Trazado 800105" d="M75.2,54.671c-.276.01-.006,13.508.6,30.142s1.323,30.119,1.6,30.107.006-13.5-.6-30.144-1.323-30.115-1.6-30.105" transform="translate(73.72 52.406)" fill="#455a64"/>
            <path id="Trazado_800106" data-name="Trazado 800106" d="M116.522,57.388c-.274-.027-1.237,7.777-2.148,17.431s-1.43,17.5-1.156,17.529,1.237-7.776,2.148-17.431,1.43-17.5,1.157-17.529" transform="translate(-38.233 55.01)" fill="#455a64"/>
            <path id="Trazado_800107" data-name="Trazado 800107" d="M89.116,39.879c-.17.221.488,1.038,1.469,1.823s1.913,1.24,2.083,1.018S92.18,41.683,91.2,40.9s-1.913-1.24-2.083-1.018" transform="translate(31.725 38.173)" fill="#455a64"/>
            <path id="Trazado_800108" data-name="Trazado 800108" d="M92.457,40.309c-.245.139-.061.946.193,1.888s.523,1.726.8,1.712.456-.922.157-1.99-.917-1.747-1.153-1.61" transform="translate(24.431 38.622)" fill="#455a64"/>
            <path id="Trazado_800109" data-name="Trazado 800109" d="M95.742,40.593c-.276-.014-.534.748-.58,1.7s.14,1.739.415,1.753.534-.748.58-1.7-.14-1.739-.415-1.753" transform="translate(16.643 38.911)" fill="#455a64"/>
            <path id="Trazado_800110" data-name="Trazado 800110" d="M99.318,40.372c-.28,0-.515.819-.777,1.794s-.454,1.812-.209,1.953.881-.572,1.172-1.686.084-2.06-.186-2.06" transform="translate(7.29 38.699)" fill="#455a64"/>
            <path id="Trazado_800111" data-name="Trazado 800111" d="M103.729,40.015c-.264-.1-.71.494-1.227,1.185s-.94,1.3-.775,1.532.961-.086,1.572-.917.687-1.712.431-1.8" transform="translate(-3.576 38.347)" fill="#455a64"/>
            <path id="Trazado_800112" data-name="Trazado 800112" d="M105.94,39.553c-.149-.237-.806-.072-1.467.368s-1.074.985-.925,1.222.808.072,1.469-.368,1.072-.987.923-1.222" transform="translate(-9.178 37.81)" fill="#455a64"/>
            <path id="Trazado_800113" data-name="Trazado 800113" d="M76.115,67.468c0,.282,16.3.521,36.395.535s36.4-.2,36.4-.484-16.294-.521-36.4-.537-36.4.2-36.4.486" transform="translate(0.351 64.206)" fill="#fafafa"/>
            <path id="Trazado_800114" data-name="Trazado 800114" d="M76.442,70.279c0,.282,16.3.521,36.395.535s36.4-.2,36.4-.484-16.294-.523-36.4-.537-36.4.2-36.4.486" transform="translate(-0.602 66.901)" fill="#fafafa"/>
            <path id="Trazado_800115" data-name="Trazado 800115" d="M75.72,72.986c0,.282,16.742.662,37.4.848s37.4.112,37.408-.17-16.738-.662-37.4-.848-37.4-.112-37.4.17" transform="translate(-0.506 69.7)" fill="#fafafa"/>
            <path id="Trazado_800116" data-name="Trazado 800116" d="M114.567,56.405c-.092.1,1.086,1.449,3.117,3.5s4.93,4.8,8.258,7.676,6.46,5.343,8.779,7.049,3.818,2.67,3.9,2.56-1.264-1.283-3.466-3.132l-8.564-7.256-8.425-7.427c-2.148-1.912-3.5-3.077-3.6-2.973" transform="translate(-62.975 54.062)" fill="#fafafa"/>
            <path id="Trazado_800117" data-name="Trazado 800117" d="M114.843,58.92c-.088.1,1.306,1.539,3.688,3.717s5.759,5.086,9.623,8.13,7.483,5.635,10.154,7.429,4.385,2.8,4.459,2.691-1.5-1.342-4.055-3.283-6.1-4.618-9.949-7.646-7.287-5.838-9.778-7.871-4.048-3.277-4.142-3.167" transform="translate(-67.655 56.473)" fill="#fafafa"/>
            <path id="Trazado_800118" data-name="Trazado 800118" d="M116.665,61.3c-.178.213,5.648,5.607,13.014,12.045s13.483,11.487,13.661,11.273-5.646-5.607-13.014-12.047S116.843,61.083,116.665,61.3" transform="translate(-71.717 58.75)" fill="#fafafa"/>
            <path id="Trazado_800119" data-name="Trazado 800119" d="M64.751,78.312c.065.11,1.557-.654,3.7-2.307a65.055,65.055,0,0,0,7.655-7.255c2.79-3.018,5.265-5.791,7.025-7.834s2.8-3.353,2.7-3.449-1.319,1.04-3.209,2.954-4.45,4.614-7.236,7.627-5.371,5.639-7.375,7.4a34.9,34.9,0,0,0-3.257,2.867" transform="translate(85.192 55.08)" fill="#fafafa"/>
            <path id="Trazado_800120" data-name="Trazado 800120" d="M62.649,82.673c.086.1,1.53-.969,3.743-2.856s5.189-4.6,8.325-7.746,5.842-6.144,7.724-8.375,2.96-3.688,2.861-3.776-1.369,1.189-3.378,3.286-4.781,5-7.906,8.136-6.006,5.919-8.093,7.936-3.368,3.283-3.276,3.394" transform="translate(89.745 57.433)" fill="#fafafa"/>
            <path id="Trazado_800121" data-name="Trazado 800121" d="M60.748,84.978c.107.1,1.4-1.2,3.473-3.3s4.944-4.985,8.2-8.083,6.28-5.815,8.478-7.777,3.554-3.187,3.466-3.3-1.593.917-3.914,2.746-5.434,4.473-8.71,7.587-6.081,6.1-8.03,8.332-3.06,3.7-2.962,3.794" transform="translate(94.329 59.921)" fill="#fafafa"/>
            <path id="Trazado_800122" data-name="Trazado 800122" d="M74.582,112.651c.008.282,19.321.016,43.137-.6s43.121-1.334,43.114-1.616-19.318-.016-43.14.6-43.117,1.334-43.11,1.616" transform="translate(-8.635 105.756)" fill="#455a64"/>
          </g>
        </g>
      </g>
    </g>
    <g id="Grupo_1065825" data-name="Grupo 1065825" transform="translate(630.715 5346)">
      <g id="Grupo_1065824" data-name="Grupo 1065824" clip-path="url(#clip-path-6)">
        <g id="Grupo_1065810" data-name="Grupo 1065810">
          <g id="Grupo_1065809" data-name="Grupo 1065809" clip-path="url(#clip-path-7)">
            <path id="Trazado_800123" data-name="Trazado 800123" d="M603.579,161.406h0a28.786,28.786,0,0,1,1.184,37.838,41.5,41.5,0,0,1-14.823,11.247L540.8,232.631,506.087,238,51.824,235.118l-28.463-5.569A28.91,28.91,0,0,1,0,200.758l.285-19.776a7,7,0,0,1,4.946-6.594l2.015-.619s1.684-19.391,13.384-23.783c42.631-18.371,70.859-24.269,142.224-27.251l60.275-36.029s24.33-15.55,47.008-17.585,73.984-2.067,97.5-.713C395.256,70,430.29,82.561,449.828,92.249c15.3,7.587,52.131,26.339,52.131,26.339l20.834,3.492c3.133.147,60.669,3.656,67.28,4.669a13.219,13.219,0,0,1,10.466,8.987c1.651,5.464,3.04,25.515,3.04,25.515" fill="#e8505b"/>
            <path id="Trazado_800124" data-name="Trazado 800124" d="M427.69,93.3c-9.819-4.91-36.161-11.681-50.89-14.443s-44.666-3.142-56.633-2.835-45.2.875-62.715,5.852c-9.012,2.56-23.491,10.057-32.031,16.34-2.963,2.18-15.837,12.268-18.715,14.559l-22.3,20.812,273.986-8.648s1.578-9.547-3.35-15.051S427.69,93.3,427.69,93.3" fill="#263238"/>
            <path id="Trazado_800125" data-name="Trazado 800125" d="M21.272,172.593l-13.86-.2c.539-3.736,2.371-13.677,8.293-19.243l18.351.263a4.315,4.315,0,0,1,3.614,6.576l-3.339,5.428a15.076,15.076,0,0,1-13.059,7.176" fill="#fafafa"/>
            <path id="Trazado_800126" data-name="Trazado 800126" d="M22.951,171.761c1.441-6.107,3.257-14.126,8.405-18.387l2.7.039a4.315,4.315,0,0,1,3.614,6.576l-3.339,5.428a15.058,15.058,0,0,1-11.566,7.1c.062-.253.125-.5.186-.756" fill="#e0e0e0"/>
            <g id="Grupo_1065796" data-name="Grupo 1065796" opacity="0.7">
              <g id="Grupo_1065795" data-name="Grupo 1065795">
                <g id="Grupo_1065794" data-name="Grupo 1065794" clip-path="url(#clip-path-8)">
                  <path id="Trazado_800127" data-name="Trazado 800127" d="M157.438,235.958a68.364,68.364,0,0,0,.944-21.679c-3.584-30.769-23.737-52.913-54.172-53.352-26.487-.382-48.37,16.169-52.84,46.822a78.854,78.854,0,0,0,.922,27.5Z"/>
                </g>
              </g>
            </g>
            <g id="Grupo_1065799" data-name="Grupo 1065799" opacity="0.7">
              <g id="Grupo_1065798" data-name="Grupo 1065798">
                <g id="Grupo_1065797" data-name="Grupo 1065797" clip-path="url(#clip-path-9)">
                  <path id="Trazado_800128" data-name="Trazado 800128" d="M540.773,232.759c-.043-1.134-.138-2.288-.154-3.493-.542-38.833-26.588-65.733-57.574-66.18a51.4,51.4,0,0,0-52.078,50.6c-.125,8.639-.541,16.776.482,23.944l74.612.5Z"/>
                </g>
              </g>
            </g>
            <path id="Trazado_800129" data-name="Trazado 800129" d="M437.574,213.781A44.736,44.736,0,1,0,482.951,169.7a44.737,44.737,0,0,0-45.377,44.086" fill="#263238"/>
            <path id="Trazado_800130" data-name="Trazado 800130" d="M437.582,213.665c0,.039-.007.076-.008.115a44.737,44.737,0,0,0,89.464,1.291c0-.039-.005-.077-.005-.116Z" fill="#263238"/>
            <path id="Trazado_800131" data-name="Trazado 800131" d="M450.9,213.973a31.408,31.408,0,1,0,31.857-30.952A31.407,31.407,0,0,0,450.9,213.973" fill="#fafafa"/>
            <path id="Trazado_800132" data-name="Trazado 800132" d="M482.759,183.021A31.408,31.408,0,0,0,450.9,213.973l62.81.906a31.408,31.408,0,0,0-30.952-31.858" fill="#e0e0e0"/>
            <path id="Trazado_800133" data-name="Trazado 800133" d="M463.176,214.15A19.132,19.132,0,1,0,482.582,195.3a19.132,19.132,0,0,0-19.406,18.854" fill="#263238"/>
            <path id="Trazado_800134" data-name="Trazado 800134" d="M60.379,214.935a44.736,44.736,0,1,0,45.377-44.086,44.736,44.736,0,0,0-45.377,44.086" fill="#263238"/>
            <path id="Trazado_800135" data-name="Trazado 800135" d="M60.386,214.82c0,.039-.007.076-.008.115a44.737,44.737,0,0,0,89.464,1.291c0-.039,0-.077,0-.116Z" fill="#263238"/>
            <path id="Trazado_800136" data-name="Trazado 800136" d="M73.706,215.127a31.408,31.408,0,1,0,31.857-30.952,31.408,31.408,0,0,0-31.857,30.952" fill="#fafafa"/>
            <path id="Trazado_800137" data-name="Trazado 800137" d="M105.563,184.175a31.407,31.407,0,0,0-31.857,30.952l62.809.906a31.408,31.408,0,0,0-30.952-31.858" fill="#e0e0e0"/>
            <path id="Trazado_800138" data-name="Trazado 800138" d="M85.98,215.3a19.132,19.132,0,1,0,19.406-18.854A19.132,19.132,0,0,0,85.98,215.3" fill="#263238"/>
            <g id="Grupo_1065802" data-name="Grupo 1065802" opacity="0.4">
              <g id="Grupo_1065801" data-name="Grupo 1065801">
                <g id="Grupo_1065800" data-name="Grupo 1065800" clip-path="url(#clip-path-10)">
                  <path id="Trazado_800139" data-name="Trazado 800139" d="M18.571,205.327c-.072,5.012-2.608,9.039-5.664,9s-5.475-4.143-5.4-9.155,2.609-9.039,5.664-9,5.475,4.143,5.4,9.155"/>
                </g>
              </g>
            </g>
            <path id="Trazado_800140" data-name="Trazado 800140" d="M603.579,161.406a4.4,4.4,0,0,1-.863.074l-2.474.086c-2.15.056-5.259.12-9.1.277-3.839.13-8.408.366-13.466.776a113.664,113.664,0,0,0-16.292,2.4,41.393,41.393,0,0,0-8.015,2.767,33.824,33.824,0,0,0-6.6,4.331c-4,3.106-7.02,6.563-9.764,9.266A40.079,40.079,0,0,1,530,187.216a19.077,19.077,0,0,1-2.184,1.183,4.344,4.344,0,0,1-.8.329c-.031-.064,1.066-.539,2.85-1.721a43.307,43.307,0,0,0,6.828-5.941c2.685-2.725,5.69-6.242,9.716-9.407a34.013,34.013,0,0,1,6.689-4.435,41.489,41.489,0,0,1,8.138-2.825,109.554,109.554,0,0,1,16.4-2.367c5.076-.379,9.655-.568,13.5-.641,3.846-.1,6.958-.1,9.109-.073l2.476.033a4.427,4.427,0,0,1,.864.055" fill="#263238"/>
            <g id="Grupo_1065805" data-name="Grupo 1065805" opacity="0.5">
              <g id="Grupo_1065804" data-name="Grupo 1065804">
                <g id="Grupo_1065803" data-name="Grupo 1065803" clip-path="url(#clip-path-11)">
                  <path id="Trazado_800141" data-name="Trazado 800141" d="M539.334,233.553s.178-.128.54-.349a14.543,14.543,0,0,0,1.513-1.113,15.472,15.472,0,0,0,4.137-5.828,23.692,23.692,0,0,0,1.446-11.208,78.482,78.482,0,0,0-2.965-14.846,77.521,77.521,0,0,0-7.2-16.854,64.522,64.522,0,0,0-13.3-16.206,54.9,54.9,0,0,0-20.114-11.3,62.685,62.685,0,0,0-24.711-2.108,83.935,83.935,0,0,0-24.11,6.27,52.239,52.239,0,0,0-29.976,30.847,87.479,87.479,0,0,0-4.664,17.741c-.435,2.777-.767,5.436-.994,7.959a50.664,50.664,0,0,0-.3,7.131c.142,4.442,1.594,8.236,3.866,10.41a10.01,10.01,0,0,0,6.3,3.117,10.181,10.181,0,0,0,2.5-.228s-.2.071-.619.18a7.65,7.65,0,0,1-1.886.176,10.036,10.036,0,0,1-6.473-3.069c-2.351-2.193-3.874-6.077-4.047-10.569a50.667,50.667,0,0,1,.25-7.184c.212-2.533.53-5.2.953-7.994a87.227,87.227,0,0,1,4.616-17.861,64.768,64.768,0,0,1,4.445-9.293,51,51,0,0,1,6.52-8.767,55.94,55.94,0,0,1,19.257-13.172,84.311,84.311,0,0,1,24.293-6.33,63.127,63.127,0,0,1,24.959,2.146,55.348,55.348,0,0,1,20.318,11.456,64.849,64.849,0,0,1,13.374,16.384,80.79,80.79,0,0,1,10.062,31.94,23.758,23.758,0,0,1-1.574,11.332,15.272,15.272,0,0,1-4.283,5.829,9.682,9.682,0,0,1-2.135,1.363" fill="#fff"/>
                </g>
              </g>
            </g>
            <path id="Trazado_800142" data-name="Trazado 800142" d="M52.3,207.736a21.5,21.5,0,0,1-1.445-1.706A32.615,32.615,0,0,0,46.52,201.8,42.479,42.479,0,0,0,28.5,193.572a83.419,83.419,0,0,0-19.966-1.279c-2.571.1-4.651.22-6.089.3a15.488,15.488,0,0,1-2.24.059,2,2,0,0,1,.571-.112l1.649-.2c1.433-.152,3.511-.344,6.087-.5a77.154,77.154,0,0,1,20.12,1.105,41.2,41.2,0,0,1,18.171,8.508,28.624,28.624,0,0,1,4.244,4.418c.459.56.743,1.049.961,1.359a1.988,1.988,0,0,1,.291.5" fill="#263238"/>
            <path id="Trazado_800143" data-name="Trazado 800143" d="M52.034,174.438c0,.177-10.683.166-23.851-.024s-23.847-.487-23.845-.664,10.681-.166,23.854.025,23.844.487,23.842.663" fill="#263238"/>
            <g id="Grupo_1065808" data-name="Grupo 1065808" opacity="0.5">
              <g id="Grupo_1065807" data-name="Grupo 1065807">
                <g id="Grupo_1065806" data-name="Grupo 1065806" clip-path="url(#clip-path-12)">
                  <path id="Trazado_800144" data-name="Trazado 800144" d="M173.077,231.341s-.023-.208-.037-.612c-.01-.431-.025-1.027-.044-1.795,0-.789-.048-1.764-.117-2.916-.045-1.152-.14-2.479-.288-3.97a102.412,102.412,0,0,0-5.435-24.7,107.589,107.589,0,0,0-7.1-15.972,84.853,84.853,0,0,0-11.339-16.494,49.211,49.211,0,0,0-17.9-12.661,63.535,63.535,0,0,0-23.136-4.76,74.2,74.2,0,0,0-12.017.866,75.568,75.568,0,0,0-11.351,2.848,68.9,68.9,0,0,0-10.345,4.533l-1.222.645-1.176.712-2.33,1.415-2.215,1.535-1.1.762-1.041.823a63.1,63.1,0,0,0-13.686,14.527,69.115,69.115,0,0,0-7.913,15.527,71.821,71.821,0,0,0-3.471,13.977c-.234,2.111-.49,4.074-.534,5.9-.137,1.818-.091,3.481-.077,4.978-.03,1.5.16,2.82.21,3.971s.2,2.117.305,2.9c.1.762.169,1.354.222,1.781.047.4.055.611.055.611s-.051-.2-.119-.6c-.069-.426-.164-1.015-.286-1.774-.121-.781-.293-1.745-.366-2.9s-.28-2.477-.27-3.981c-.033-1.5-.1-3.172.021-5,.027-1.831.266-3.8.485-5.928a71.321,71.321,0,0,1,3.4-14.082,69.162,69.162,0,0,1,7.9-15.673A63.383,63.383,0,0,1,64.52,161.137l1.049-.833,1.105-.771,2.233-1.554,2.348-1.433,1.185-.72,1.232-.653A69.289,69.289,0,0,1,84.1,150.585,75.992,75.992,0,0,1,95.556,147.7a74.653,74.653,0,0,1,12.13-.877,64,64,0,0,1,23.368,4.822,49.713,49.713,0,0,1,18.1,12.842,84.941,84.941,0,0,1,11.368,16.638,106.917,106.917,0,0,1,7.065,16.075,100.043,100.043,0,0,1,5.256,24.826,74.331,74.331,0,0,1,.238,9.314" fill="#fff"/>
                </g>
              </g>
            </g>
            <path id="Trazado_800145" data-name="Trazado 800145" d="M522.868,122.693a2.507,2.507,0,0,1-.045.655c-.065.5-.146,1.111-.245,1.858-.214,1.612-.55,3.943-.764,6.835a38.071,38.071,0,0,0,.462,10.1,21.385,21.385,0,0,0,5.628,10.788,30.172,30.172,0,0,0,10.284,6.748,53.933,53.933,0,0,0,9.754,2.827c2.846.571,5.175.918,6.78,1.183l1.848.309a2.526,2.526,0,0,1,.639.15,2.517,2.517,0,0,1-.656-.022l-1.865-.191c-1.617-.189-3.959-.468-6.831-.985a51.41,51.41,0,0,1-9.89-2.725,30.174,30.174,0,0,1-10.523-6.851,21.712,21.712,0,0,1-5.745-11.116A36.987,36.987,0,0,1,521.364,132c.273-2.909.678-5.235.969-6.837.145-.8.271-1.421.363-1.84a2.538,2.538,0,0,1,.172-.634" fill="#263238"/>
            <path id="Trazado_800146" data-name="Trazado 800146" d="M295.594,147.176a1.748,1.748,0,0,1,.552-.054,8.67,8.67,0,0,1,1.591.084,3.1,3.1,0,0,1,2.172,1.319,3.331,3.331,0,0,1,.264,3.345,4.99,4.99,0,0,1-3.231,2.507,14.473,14.473,0,0,1-4.658.23l-10.519-.6a8.508,8.508,0,0,1-2.812-.528,3.52,3.52,0,0,1-2.03-2.027,3.038,3.038,0,0,1,.525-2.728,4.308,4.308,0,0,1,2.12-1.547,14.566,14.566,0,0,1,4.649-.47c1.445,0,2.789.046,4.013.1l5.793.248a15.97,15.97,0,0,1,2.126.115,1.806,1.806,0,0,1-.549.071c-.36.026-.893.049-1.579.063-1.371.033-3.357,0-5.8-.046-1.224-.02-2.563-.036-4-.017a14.483,14.483,0,0,0-4.451.493,3.709,3.709,0,0,0-1.825,1.35,2.43,2.43,0,0,0-.427,2.174A2.906,2.906,0,0,0,279.2,152.9a8.008,8.008,0,0,0,2.6.476l10.514.648a14.269,14.269,0,0,0,4.486-.154,4.549,4.549,0,0,0,2.962-2.194,2.953,2.953,0,0,0-.156-2.948,2.856,2.856,0,0,0-1.922-1.273c-1.323-.243-2.1-.205-2.1-.274" fill="#263238"/>
            <path id="Trazado_800147" data-name="Trazado 800147" d="M437.065,146.008a1.786,1.786,0,0,1,.552-.054,8.67,8.67,0,0,1,1.591.084,3.1,3.1,0,0,1,2.172,1.319,3.331,3.331,0,0,1,.264,3.345,4.993,4.993,0,0,1-3.231,2.507,14.473,14.473,0,0,1-4.658.23l-10.519-.6a8.508,8.508,0,0,1-2.812-.528,3.52,3.52,0,0,1-2.03-2.027,3.039,3.039,0,0,1,.525-2.728,4.3,4.3,0,0,1,2.12-1.547,14.565,14.565,0,0,1,4.649-.47c1.445,0,2.789.046,4.013.1l5.793.249a15.971,15.971,0,0,1,2.126.115,1.806,1.806,0,0,1-.549.071c-.36.026-.893.049-1.579.063-1.371.034-3.357,0-5.8-.046-1.223-.021-2.562-.036-4-.017a14.483,14.483,0,0,0-4.451.493,3.713,3.713,0,0,0-1.825,1.349,2.432,2.432,0,0,0-.427,2.175,2.906,2.906,0,0,0,1.683,1.639,8.009,8.009,0,0,0,2.605.476l10.514.648a14.269,14.269,0,0,0,4.486-.154,4.546,4.546,0,0,0,2.962-2.194,2.953,2.953,0,0,0-.156-2.948,2.853,2.853,0,0,0-1.922-1.273c-1.323-.243-2.1-.205-2.1-.274" fill="#263238"/>
            <path id="Trazado_800148" data-name="Trazado 800148" d="M458.393,124.935s-.041.192-.14.565l-.451,1.662-1.793,6.467c-1.59,5.668-3.914,13.958-6.868,24.493l-.017.062-.058.027a55.162,55.162,0,0,0-13.758,9.177,57.121,57.121,0,0,0-6.406,6.818,67.028,67.028,0,0,0-5.605,8.309,82.558,82.558,0,0,0-8.031,20.343,98.48,98.48,0,0,0-3.1,23.923v.237h-.231l-100.32.029L182.216,227h-.185l-.023-.184c-3.247-26.529-5.3-48.373-6.535-63.575-.621-7.6-1.047-13.543-1.324-17.582-.131-2.013-.23-3.555-.3-4.6s-.081-1.576-.081-1.576.059.533.143,1.571.2,2.59.359,4.6c.331,4.046.816,9.978,1.438,17.571,1.306,15.194,3.419,37.026,6.713,63.544l-.207-.183,129.4-.051,100.32.029-.23.237a98.7,98.7,0,0,1,3.145-24.04,82.8,82.8,0,0,1,8.11-20.428,67.364,67.364,0,0,1,5.657-8.344,57.268,57.268,0,0,1,6.463-6.841,55.286,55.286,0,0,1,13.863-9.183l-.076.089c3.009-10.521,5.376-18.8,6.994-24.458l1.864-6.447c.213-.721.375-1.27.487-1.651s.177-.555.177-.555" fill="#263238"/>
            <path id="Trazado_800149" data-name="Trazado 800149" d="M314.178,130a.9.9,0,0,1-.009.252c-.021.2-.046.435-.078.731q-.127,1.024-.348,2.8c-.164,1.215-.355,2.7-.533,4.437s-.434,3.7-.607,5.886c-.2,2.183-.416,4.574-.567,7.148-.2,2.57-.3,5.322-.433,8.217-.192,5.792-.243,12.166-.031,18.85.24,6.687.722,13.043,1.3,18.81.328,2.88.614,5.62.987,8.171.325,2.557.7,4.928,1.049,7.093.321,2.169.7,4.116,1,5.831s.586,3.189.831,4.391c.227,1.171.407,2.1.537,2.773.052.293.093.531.127.724a.9.9,0,0,1,.026.251.945.945,0,0,1-.078-.239c-.047-.191-.105-.425-.177-.713q-.231-1.007-.633-2.755c-.276-1.2-.6-2.663-.918-4.377s-.737-3.657-1.081-5.825c-.372-2.164-.77-4.536-1.114-7.1-.392-2.553-.7-5.295-1.036-8.179-.61-5.775-1.107-12.144-1.347-18.843-.213-6.7-.147-13.085.071-18.887.146-2.9.263-5.656.482-8.229.17-2.576.407-4.969.632-7.153.2-2.187.473-4.154.684-5.885s.426-3.218.621-4.43c.188-1.179.337-2.112.446-2.791.052-.293.094-.531.129-.724a.875.875,0,0,1,.061-.244" fill="#263238"/>
            <path id="Trazado_800150" data-name="Trazado 800150" d="M174.954,127.153c-3.209,2.4-7.976,3-11.9,2.2s-7.013-2.627-9.025-6.092l8.805-.394Z" fill="#263238"/>
            <path id="Trazado_800151" data-name="Trazado 800151" d="M162.832,122.864s8.875,5.409,11.456,4.672,43.974-33.456,68.951-46.091a29.634,29.634,0,0,0-7.588-1.722S224.028,85.6,209.533,94.329c-11.028,6.638-22.251,13.6-27.5,16.8l-19.2,11.732" fill="#455a64"/>
            <path id="Trazado_800152" data-name="Trazado 800152" d="M191.226,129.806a1.878,1.878,0,0,1-.287.185l-.869.507-3.4,1.929-12.824,7.189-.039.022-.047,0c-8.037-.289-18.359-.5-30.181-.017-5.909.253-12.191.676-18.736,1.344s-13.349,1.6-20.317,2.711c-12.207,1.906-23.725,4.308-34.264,6.241A232.458,232.458,0,0,1,42.018,153.3c-8.092.466-14.655.346-19.181.214-2.264-.068-4.02-.16-5.21-.234l-1.353-.086c-.305-.022-.46-.047-.46-.047s.157-.011.463-.006l1.355.034c1.191.04,2.948.1,5.21.136,4.524.07,11.079.133,19.154-.378a238.794,238.794,0,0,0,28.186-3.492c10.515-1.956,22.05-4.376,34.266-6.284,6.976-1.111,13.792-2.029,20.347-2.7s12.851-1.071,18.769-1.307c11.842-.451,22.174-.19,30.213.159l-.085.02,12.9-7.057,3.438-1.855.89-.468a1.851,1.851,0,0,1,.309-.145" fill="#263238"/>
            <path id="Trazado_800153" data-name="Trazado 800153" d="M200.663,130.836c62.879-2.808,189.716-5.144,252.6-7.952,0,0,2.075-6.906-3.844-11.223-2.16-1.574-15.215-11.449-30.462-17.266a234.266,234.266,0,0,0-58.087-13.566c-11.2-.916-31.687-1.739-31.687-1.739s-37.511,1.5-47.98,2.442A108.281,108.281,0,0,0,243.24,91.865c-13.11,6.489-35.918,25.593-35.918,25.593l-16.037,13.378Z" fill="#455a64"/>
            <path id="Trazado_800154" data-name="Trazado 800154" d="M316.375,77.225,304.24,129.118l22.006-.7,4.378-51.192Z" fill="#263238"/>
            <path id="Trazado_800155" data-name="Trazado 800155" d="M411.514,89.788l-2.139,35.152h3.059l2.07-34.053Z" fill="#263238"/>
            <path id="Trazado_800156" data-name="Trazado 800156" d="M203.036,118.933c.965,1.295,6.554,13.855,6.554,13.855L188.352,131.4Z" fill="#263238"/>
            <path id="Trazado_800157" data-name="Trazado 800157" d="M222.964,131.537l-16.191.451c-2.136-.031-3.814-3.825-3.747-8.474.06-4.157,1.505-7.671,3.4-8.274l15.372-4.879Z" fill="#e8505b"/>
            <path id="Trazado_800158" data-name="Trazado 800158" d="M323.266,76.632c.142.022-1.573,11.849-3.829,26.413s-4.2,26.358-4.345,26.336,1.572-11.847,3.83-26.416,4.2-26.355,4.344-26.333" fill="#455a64"/>
            <path id="Trazado_800159" data-name="Trazado 800159" d="M203.668,118.168a18.935,18.935,0,0,1-2.477,5.341,18.95,18.95,0,0,1-3.612,4.649c-.119-.1,1.5-2.165,3.168-4.92s2.779-5.131,2.921-5.07" fill="#455a64"/>
            <path id="Trazado_800160" data-name="Trazado 800160" d="M293.417,86.663a1.7,1.7,0,0,1-.234.428c-.205.319-.453.7-.753,1.17-.715,1.074-1.673,2.512-2.835,4.259-2.4,3.589-5.715,8.551-9.321,14.065s-6.823,10.542-9.147,14.182l-2.764,4.3-.769,1.16a1.761,1.761,0,0,1-.3.386,1.73,1.73,0,0,1,.209-.441l.686-1.211c.605-1.046,1.5-2.547,2.624-4.393,2.245-3.692,5.416-8.752,9.024-14.272s6.972-10.451,9.453-13.988c1.24-1.769,2.256-3.192,2.972-4.166l.834-1.115c.2-.251.305-.378.32-.368" fill="#ebebeb"/>
            <path id="Trazado_800161" data-name="Trazado 800161" d="M284.185,94.52a75.925,75.925,0,0,1-4.946,7.381,76.084,76.084,0,0,1-5.37,7.08,75.93,75.93,0,0,1,4.946-7.382,76.148,76.148,0,0,1,5.37-7.079" fill="#ebebeb"/>
            <path id="Trazado_800162" data-name="Trazado 800162" d="M603.384,158.64s-5.216.33-9.151-1.361a12.081,12.081,0,0,1-6.269-16.217c.018-.038.036-.075.055-.113a11.3,11.3,0,0,1,9.91-6.4h2.182a13.871,13.871,0,0,1,1.421,5.2c.591,4.776,1.479,12.008,1.852,18.891" fill="#f5f5f5"/>
            <path id="Trazado_800163" data-name="Trazado 800163" d="M372.4,88.348c.121.077-4.68,7.848-10.722,17.355s-11.041,17.154-11.162,17.077,4.678-7.846,10.723-17.356,11.04-17.153,11.161-17.076" fill="#ebebeb"/>
            <path id="Trazado_800164" data-name="Trazado 800164" d="M370.772,98.16a47.272,47.272,0,0,1-3.581,6.03,47.249,47.249,0,0,1-4.018,5.749,47.319,47.319,0,0,1,3.581-6.031,47.374,47.374,0,0,1,4.018-5.748" fill="#ebebeb"/>
            <path id="Trazado_800165" data-name="Trazado 800165" d="M219.251,113.376a27.618,27.618,0,0,1-6.1,2.321,27.6,27.6,0,0,1-6.388,1.328c-.03-.147,2.8-.818,6.242-1.828s6.19-1.961,6.244-1.821" fill="#ebebeb"/>
            <path id="Trazado_800166" data-name="Trazado 800166" d="M306.3,135.351c0,.144-26.389.26-58.935.26s-58.941-.116-58.941-.26,26.384-.26,58.941-.26,58.935.116,58.935.26" fill="#ebebeb"/>
            <path id="Trazado_800167" data-name="Trazado 800167" d="M297.638,145.828a70.637,70.637,0,0,1-8.563.26,70.634,70.634,0,0,1-8.564-.26,70.632,70.632,0,0,1,8.564-.26,70.635,70.635,0,0,1,8.563.26" fill="#ebebeb"/>
            <path id="Trazado_800168" data-name="Trazado 800168" d="M106.015,157.705a3.094,3.094,0,0,1-.654.022c-.428.006-1.057-.037-1.869-.019a55.455,55.455,0,0,0-6.843.421A52.588,52.588,0,0,0,59.24,180.965a55.324,55.324,0,0,0-3.5,5.894c-.387.713-.636,1.292-.837,1.67a3.06,3.06,0,0,1-.319.572,3.163,3.163,0,0,1,.223-.615c.17-.392.391-.986.751-1.716a47.8,47.8,0,0,1,3.378-6.01,51.476,51.476,0,0,1,37.673-23,47.811,47.811,0,0,1,6.889-.257c.814.013,1.443.088,1.87.116a3.072,3.072,0,0,1,.649.083" fill="#ebebeb"/>
            <path id="Trazado_800169" data-name="Trazado 800169" d="M407.439,132.575c0,.144-17.472.26-39.02.26s-39.024-.116-39.024-.26,17.468-.26,39.024-.26,39.02.116,39.02.26" fill="#ebebeb"/>
            <path id="Trazado_800170" data-name="Trazado 800170" d="M441.658,144.293a16.6,16.6,0,0,1-2.82.018c-1.738-.041-4.137-.1-6.787-.112s-5.05.017-6.789.039a16.534,16.534,0,0,1-2.819-.048,13.958,13.958,0,0,1,2.8-.319c1.738-.117,4.146-.207,6.806-.193s5.065.13,6.8.265a14.028,14.028,0,0,1,2.8.35" fill="#ebebeb"/>
          </g>
        </g>
      </g>
    </g>
  </g>
</svg>
