<svg xmlns="http://www.w3.org/2000/svg" xmlns:xlink="http://www.w3.org/1999/xlink" width="400" height="508.29" viewBox="0 0 400 508.29">
  <defs>
    <clipPath id="clip-path">
      <rect id="Rectángulo_374868" data-name="Rectángulo 374868" width="400" height="265.29" fill="none"/>
    </clipPath>
    <clipPath id="clip-path-2">
      <rect id="Rectángulo_374862" data-name="Rectángulo 374862" width="611.285" height="271.29" fill="none"/>
    </clipPath>
    <clipPath id="clip-path-3">
      <rect id="Rectángulo_374857" data-name="Rectángulo 374857" width="108.265" height="75.038" transform="translate(50.575 160.92)" fill="none"/>
    </clipPath>
    <clipPath id="clip-path-4">
      <rect id="Rectángulo_374858" data-name="Rectángulo 374858" width="109.995" height="75.049" transform="translate(430.778 163.081)" fill="none"/>
    </clipPath>
    <clipPath id="clip-path-5">
      <rect id="Rectángulo_374859" data-name="Rectángulo 374859" width="11.07" height="18.151" transform="translate(7.502 196.172)" fill="none"/>
    </clipPath>
    <clipPath id="clip-path-6">
      <rect id="Rectángulo_374860" data-name="Rectángulo 374860" width="129.184" height="84.63" transform="translate(418.237 152.714)" fill="none"/>
    </clipPath>
    <clipPath id="clip-path-7">
      <rect id="Rectángulo_374861" data-name="Rectángulo 374861" width="134.225" height="84.523" transform="translate(38.903 146.818)" fill="none"/>
    </clipPath>
  </defs>
  <g id="Grupo_1066188" data-name="Grupo 1066188" transform="translate(-1020 -5103)">
    <rect id="Rectángulo_374844" data-name="Rectángulo 374844" width="400" height="508" rx="20" transform="translate(1020 5103)" fill="#00dafd"/>
    <rect id="Rectángulo_374851" data-name="Rectángulo 374851" width="356" height="315" rx="20" transform="translate(1042 5145)" fill="#fff"/>
    <path id="Trazado_802389" data-name="Trazado 802389" d="M5.555,20.217a4.368,4.368,0,0,1-2.342-1.446,4.2,4.2,0,0,1-.787-2.659V14.363q0-2.136-1.863-2.136V10.953q1.863,0,1.863-2.127V7a4.19,4.19,0,0,1,.787-2.6A4.373,4.373,0,0,1,5.555,2.964l.334,1.011q-1.837.589-1.837,3.067V8.817a2.871,2.871,0,0,1-1.468,2.777,2.906,2.906,0,0,1,1.468,2.8v1.811q.026,2.417,1.837,3ZM12.981,4.7l-.264,3.146h-.976L11.751,3.5h1.23Zm2.373,0-.264,3.146h-.976L14.124,3.5h1.23ZM18.9,7.49l.053,1.2A3.465,3.465,0,0,1,21.8,7.314q3.015,0,3.041,3.4V17H23.212V10.707a2.189,2.189,0,0,0-.47-1.521A1.884,1.884,0,0,0,21.3,8.694a2.347,2.347,0,0,0-1.389.422,2.865,2.865,0,0,0-.932,1.107V17H17.358V7.49ZM33.161,17a3.416,3.416,0,0,1-.229-1,3.628,3.628,0,0,1-2.707,1.178,3.357,3.357,0,0,1-2.307-.8,2.573,2.573,0,0,1-.9-2.017,2.688,2.688,0,0,1,1.129-2.307,5.325,5.325,0,0,1,3.177-.822h1.582v-.747a1.826,1.826,0,0,0-.51-1.358,2.049,2.049,0,0,0-1.5-.505,2.371,2.371,0,0,0-1.459.439,1.3,1.3,0,0,0-.589,1.063H27.211a2.244,2.244,0,0,1,.505-1.375A3.449,3.449,0,0,1,29.087,7.7a4.613,4.613,0,0,1,1.9-.387,3.759,3.759,0,0,1,2.575.822,2.964,2.964,0,0,1,.967,2.263v4.377a5.351,5.351,0,0,0,.334,2.083V17Zm-2.7-1.239a2.858,2.858,0,0,0,1.45-.4,2.392,2.392,0,0,0,.993-1.028V12.386H31.632q-2.988,0-2.988,1.749a1.48,1.48,0,0,0,.51,1.2A1.959,1.959,0,0,0,30.463,15.761ZM38.61,7.49l.044,1.055a3.512,3.512,0,0,1,2.821-1.23,2.719,2.719,0,0,1,2.716,1.529,3.6,3.6,0,0,1,1.235-1.107,3.647,3.647,0,0,1,1.8-.422q3.129,0,3.182,3.313V17H48.779V10.725A2.184,2.184,0,0,0,48.313,9.2a2.051,2.051,0,0,0-1.564-.505,2.156,2.156,0,0,0-1.5.541,2.193,2.193,0,0,0-.694,1.455V17H42.917V10.769a1.814,1.814,0,0,0-2.03-2.074A2.175,2.175,0,0,0,38.7,10.057V17H37.072V7.49ZM56.8,17.176a4.155,4.155,0,0,1-3.146-1.27,4.714,4.714,0,0,1-1.213-3.4v-.3a5.707,5.707,0,0,1,.541-2.527A4.217,4.217,0,0,1,54.5,7.943a3.8,3.8,0,0,1,2.1-.628,3.562,3.562,0,0,1,2.883,1.222,5.289,5.289,0,0,1,1.028,3.5v.677H54.07a3.38,3.38,0,0,0,.822,2.272,2.583,2.583,0,0,0,2,.866,2.832,2.832,0,0,0,1.459-.352,3.666,3.666,0,0,0,1.046-.932l.993.773A3.993,3.993,0,0,1,56.8,17.176ZM56.6,8.65a2.169,2.169,0,0,0-1.652.716,3.482,3.482,0,0,0-.826,2.008h4.764v-.123a3.1,3.1,0,0,0-.668-1.92A2.042,2.042,0,0,0,56.6,8.65ZM63.475,4.7l-.264,3.146h-.976L62.244,3.5h1.23Zm2.373,0-.264,3.146h-.976L64.617,3.5h1.23Zm2.127,11.452a1.018,1.018,0,0,1,.25-.7.954.954,0,0,1,.751-.281.983.983,0,0,1,.76.281,1,1,0,0,1,.259.7.944.944,0,0,1-.259.677,1,1,0,0,1-.76.272.9.9,0,0,1-1-.949Zm.009-7.761a1.018,1.018,0,0,1,.25-.7.954.954,0,0,1,.751-.281.983.983,0,0,1,.76.281,1,1,0,0,1,.259.7.944.944,0,0,1-.259.677,1,1,0,0,1-.76.272.9.9,0,0,1-1-.949ZM73.591,4.7l-.264,3.146h-.976L72.36,3.5h1.23Zm2.373,0L75.7,7.842h-.976L74.733,3.5h1.23Zm7.8-.492h1.7v9.062a3.753,3.753,0,0,1-1.1,2.874,4.117,4.117,0,0,1-2.94,1.037,4.232,4.232,0,0,1-2.971-.976,3.523,3.523,0,0,1-1.063-2.733h1.688a2.346,2.346,0,0,0,.6,1.714,2.332,2.332,0,0,0,1.745.615,2.263,2.263,0,0,0,1.692-.659,2.554,2.554,0,0,0,.655-1.846Zm3.885,7.954a5.617,5.617,0,0,1,.549-2.514,4.1,4.1,0,0,1,1.529-1.723,4.163,4.163,0,0,1,2.237-.606A4.01,4.01,0,0,1,95.1,8.659a5.174,5.174,0,0,1,1.2,3.577v.114a5.666,5.666,0,0,1-.532,2.492,4.038,4.038,0,0,1-1.521,1.718,4.211,4.211,0,0,1-2.272.615,4,4,0,0,1-3.133-1.345,5.147,5.147,0,0,1-1.2-3.56Zm1.635.193a4.068,4.068,0,0,0,.734,2.54,2.487,2.487,0,0,0,3.933-.013,4.449,4.449,0,0,0,.729-2.72,4.061,4.061,0,0,0-.743-2.536A2.361,2.361,0,0,0,91.96,8.65a2.335,2.335,0,0,0-1.942.958A4.416,4.416,0,0,0,89.279,12.351ZM99.967,8.642a3.457,3.457,0,0,1,2.813-1.327q3.015,0,3.041,3.4V17h-1.626V10.707a2.189,2.189,0,0,0-.47-1.521,1.884,1.884,0,0,0-1.437-.492,2.347,2.347,0,0,0-1.389.422,2.865,2.865,0,0,0-.932,1.107V17H98.341V3.5h1.626Zm9.826-1.151.053,1.2a3.465,3.465,0,0,1,2.848-1.371q3.015,0,3.041,3.4V17h-1.626V10.707a2.189,2.189,0,0,0-.47-1.521,1.884,1.884,0,0,0-1.437-.492,2.347,2.347,0,0,0-1.389.422,2.865,2.865,0,0,0-.932,1.107V17h-1.626V7.49ZM118.477,4.7l-.264,3.146h-.976l.009-4.342h1.23Zm2.373,0-.264,3.146h-.976l.009-4.342h1.23Zm2.127,14.854-.923-.633a4.241,4.241,0,0,0,.861-2.373V15.075h1.591V16.35a4,4,0,0,1-.435,1.775A4.156,4.156,0,0,1,122.977,19.549ZM132.223,4.7l-.264,3.146h-.976l.009-4.342h1.23Zm2.373,0-.264,3.146h-.976l.009-4.342h1.23ZM142.207,17a3.416,3.416,0,0,1-.229-1,3.628,3.628,0,0,1-2.707,1.178,3.357,3.357,0,0,1-2.307-.8,2.573,2.573,0,0,1-.9-2.017,2.688,2.688,0,0,1,1.129-2.307,5.325,5.325,0,0,1,3.177-.822h1.582v-.747a1.826,1.826,0,0,0-.51-1.358,2.049,2.049,0,0,0-1.5-.505,2.371,2.371,0,0,0-1.459.439,1.3,1.3,0,0,0-.589,1.063h-1.635a2.244,2.244,0,0,1,.505-1.375,3.449,3.449,0,0,1,1.371-1.05,4.613,4.613,0,0,1,1.9-.387,3.759,3.759,0,0,1,2.575.822,2.964,2.964,0,0,1,.967,2.263v4.377a5.351,5.351,0,0,0,.334,2.083V17Zm-2.7-1.239a2.858,2.858,0,0,0,1.45-.4,2.392,2.392,0,0,0,.993-1.028V12.386h-1.274q-2.988,0-2.988,1.749a1.48,1.48,0,0,0,.51,1.2A1.959,1.959,0,0,0,139.509,15.761Zm6.231-3.595a5.589,5.589,0,0,1,1.028-3.538,3.545,3.545,0,0,1,5.44-.083l.079-1.055h1.485v9.281a3.869,3.869,0,0,1-1.094,2.909,4.038,4.038,0,0,1-2.94,1.063,4.891,4.891,0,0,1-2.013-.439,3.465,3.465,0,0,1-1.5-1.2l.844-.976a3.18,3.18,0,0,0,2.558,1.292,2.491,2.491,0,0,0,1.85-.668,2.553,2.553,0,0,0,.664-1.881v-.817a3.342,3.342,0,0,1-2.663,1.125,3.248,3.248,0,0,1-2.7-1.345A5.876,5.876,0,0,1,145.74,12.166Zm1.635.185a4.264,4.264,0,0,0,.659,2.527,2.142,2.142,0,0,0,1.846.918,2.382,2.382,0,0,0,2.259-1.4V10.057A2.41,2.41,0,0,0,149.9,8.694a2.161,2.161,0,0,0-1.854.923A4.644,4.644,0,0,0,147.375,12.351Zm12.8,4.825a4.155,4.155,0,0,1-3.146-1.27,4.714,4.714,0,0,1-1.213-3.4v-.3a5.707,5.707,0,0,1,.541-2.527,4.217,4.217,0,0,1,1.512-1.74,3.8,3.8,0,0,1,2.1-.628,3.562,3.562,0,0,1,2.883,1.222,5.289,5.289,0,0,1,1.028,3.5v.677h-6.442a3.38,3.38,0,0,0,.822,2.272,2.583,2.583,0,0,0,2,.866,2.832,2.832,0,0,0,1.459-.352,3.666,3.666,0,0,0,1.046-.932l.993.773A3.993,3.993,0,0,1,160.172,17.176Zm-.2-8.525a2.169,2.169,0,0,0-1.652.716,3.482,3.482,0,0,0-.826,2.008h4.764v-.123a3.1,3.1,0,0,0-.668-1.92A2.042,2.042,0,0,0,159.97,8.65ZM166.843,4.7l-.264,3.146H165.6l.009-4.342h1.23Zm2.373,0-.264,3.146h-.976l.009-4.342h1.23Zm2.127,11.452a1.018,1.018,0,0,1,.25-.7.954.954,0,0,1,.751-.281.983.983,0,0,1,.76.281,1,1,0,0,1,.259.7.944.944,0,0,1-.259.677,1,1,0,0,1-.76.272.9.9,0,0,1-1-.949Zm.009-7.761a1.018,1.018,0,0,1,.25-.7.954.954,0,0,1,.751-.281.983.983,0,0,1,.76.281,1,1,0,0,1,.259.7.944.944,0,0,1-.259.677,1,1,0,0,1-.76.272.9.9,0,0,1-1-.949Zm6.6,1.424h1.222a2.685,2.685,0,0,0,1.811-.606,2.026,2.026,0,0,0,.659-1.591,1.985,1.985,0,0,0-2.241-2.25,2.331,2.331,0,0,0-1.683.6,2.107,2.107,0,0,0-.628,1.6h-1.626a3.264,3.264,0,0,1,1.112-2.527A4.05,4.05,0,0,1,179.4,4.027a4,4,0,0,1,2.839.958,3.461,3.461,0,0,1,1.028,2.663,2.809,2.809,0,0,1-.541,1.617,3.264,3.264,0,0,1-1.472,1.169,3.145,3.145,0,0,1,1.63,1.107,3.076,3.076,0,0,1,.576,1.89,3.491,3.491,0,0,1-1.125,2.733,4.213,4.213,0,0,1-2.927,1.011,4.324,4.324,0,0,1-2.931-.976,3.236,3.236,0,0,1-1.129-2.575h1.635a2.092,2.092,0,0,0,.659,1.617,2.507,2.507,0,0,0,1.767.606,2.46,2.46,0,0,0,1.8-.615,2.371,2.371,0,0,0,.624-1.767,2.151,2.151,0,0,0-.686-1.714,2.987,2.987,0,0,0-1.978-.615h-1.222Zm15.768,1.731a7.436,7.436,0,0,1-.976,4.245,4.054,4.054,0,0,1-6.082.031,7.058,7.058,0,0,1-1.02-4.056V9.591a7.271,7.271,0,0,1,.976-4.192,4.127,4.127,0,0,1,6.1-.048,7.017,7.017,0,0,1,1,4.083Zm-1.626-2.224a5.958,5.958,0,0,0-.58-3.01,2,2,0,0,0-1.837-.945,1.97,1.97,0,0,0-1.819.94,5.817,5.817,0,0,0-.589,2.892v2.6a6.053,6.053,0,0,0,.6,3.063,1.993,1.993,0,0,0,1.824.989,1.966,1.966,0,0,0,1.789-.932,5.834,5.834,0,0,0,.611-2.936Zm3.823,10.23-.923-.633a4.241,4.241,0,0,0,.861-2.373V15.075h1.591V16.35a4,4,0,0,1-.435,1.775A4.156,4.156,0,0,1,195.917,19.549ZM2.435,28.7l-.264,3.146H1.2L1.2,27.5h1.23Zm2.373,0-.264,3.146H3.568L3.577,27.5h1.23Zm5.476,11.153a2.342,2.342,0,0,0,1.521-.527A1.855,1.855,0,0,0,12.524,38h1.538a2.949,2.949,0,0,1-.562,1.556,3.7,3.7,0,0,1-1.384,1.178,3.994,3.994,0,0,1-1.833.439,3.918,3.918,0,0,1-3.089-1.3,5.163,5.163,0,0,1-1.147-3.546v-.272a5.725,5.725,0,0,1,.51-2.47A3.883,3.883,0,0,1,8.02,31.912a4.157,4.157,0,0,1,2.254-.6,3.814,3.814,0,0,1,2.659.958,3.424,3.424,0,0,1,1.129,2.487H12.524a2.241,2.241,0,0,0-.7-1.516,2.174,2.174,0,0,0-1.551-.593,2.276,2.276,0,0,0-1.92.892,4.19,4.19,0,0,0-.681,2.58v.308a4.106,4.106,0,0,0,.677,2.531A2.287,2.287,0,0,0,10.283,39.849ZM21.762,41a3.416,3.416,0,0,1-.229-1,3.628,3.628,0,0,1-2.707,1.178,3.357,3.357,0,0,1-2.307-.8,2.573,2.573,0,0,1-.9-2.017,2.688,2.688,0,0,1,1.129-2.307,5.325,5.325,0,0,1,3.177-.822h1.582v-.747A1.826,1.826,0,0,0,21,33.129a2.049,2.049,0,0,0-1.5-.505,2.371,2.371,0,0,0-1.459.439,1.3,1.3,0,0,0-.589,1.063H15.812a2.244,2.244,0,0,1,.505-1.375,3.449,3.449,0,0,1,1.371-1.05,4.613,4.613,0,0,1,1.9-.387,3.759,3.759,0,0,1,2.575.822,2.964,2.964,0,0,1,.967,2.263v4.377a5.351,5.351,0,0,0,.334,2.083V41Zm-2.7-1.239a2.858,2.858,0,0,0,1.45-.4,2.392,2.392,0,0,0,.993-1.028V36.386H20.232q-2.988,0-2.988,1.749a1.48,1.48,0,0,0,.51,1.2A1.959,1.959,0,0,0,19.063,39.761Zm11.215-6.812a4.873,4.873,0,0,0-.8-.062,2.143,2.143,0,0,0-2.171,1.362V41H25.682V31.49h1.582l.026,1.1a2.532,2.532,0,0,1,2.268-1.274,1.661,1.661,0,0,1,.721.123Zm7.031,5.528a1.2,1.2,0,0,0-.5-1.024,4.78,4.78,0,0,0-1.731-.628,8.186,8.186,0,0,1-1.96-.633,2.788,2.788,0,0,1-1.072-.879A2.1,2.1,0,0,1,31.7,34.1a2.467,2.467,0,0,1,.989-1.978,3.861,3.861,0,0,1,2.527-.809,3.974,3.974,0,0,1,2.624.835,2.652,2.652,0,0,1,1.006,2.136H37.213a1.468,1.468,0,0,0-.567-1.151,2.124,2.124,0,0,0-1.428-.483,2.223,2.223,0,0,0-1.389.387,1.217,1.217,0,0,0-.5,1.011.986.986,0,0,0,.466.888,5.731,5.731,0,0,0,1.683.571,8.77,8.77,0,0,1,1.973.65,2.878,2.878,0,0,1,1.121.91,2.237,2.237,0,0,1,.365,1.3,2.434,2.434,0,0,1-1.02,2.043,4.277,4.277,0,0,1-2.646.769,4.789,4.789,0,0,1-2.021-.4,3.288,3.288,0,0,1-1.375-1.129,2.722,2.722,0,0,1-.5-1.569H33a1.683,1.683,0,0,0,.655,1.3,2.54,2.54,0,0,0,1.613.479,2.622,2.622,0,0,0,1.481-.374A1.148,1.148,0,0,0,37.31,38.478ZM42.258,28.7l-.264,3.146h-.976l.009-4.342h1.23Zm2.373,0-.264,3.146h-.976L43.4,27.5h1.23Zm2.127,11.452a1.018,1.018,0,0,1,.25-.7.954.954,0,0,1,.751-.281.983.983,0,0,1,.76.281,1,1,0,0,1,.259.7.944.944,0,0,1-.259.677,1,1,0,0,1-.76.272.9.9,0,0,1-1-.949Zm.009-7.761a1.018,1.018,0,0,1,.25-.7.954.954,0,0,1,.751-.281.983.983,0,0,1,.76.281,1,1,0,0,1,.259.7.944.944,0,0,1-.259.677,1,1,0,0,1-.76.272.9.9,0,0,1-1-.949ZM9.053,51.711H7.374v14.7H9.053v1.336H5.739V50.375H9.053Zm5.414,40.506a4.368,4.368,0,0,1-2.342-1.446,4.2,4.2,0,0,1-.787-2.659V86.363q0-2.136-1.863-2.136V82.953q1.863,0,1.863-2.127V79a4.19,4.19,0,0,1,.787-2.6,4.373,4.373,0,0,1,2.342-1.437l.334,1.011q-1.837.589-1.837,3.067v1.775A2.871,2.871,0,0,1,11.5,83.595a2.906,2.906,0,0,1,1.468,2.8v1.811q.026,2.417,1.837,3ZM21.894,76.7l-.264,3.146h-.976l.009-4.342h1.23Zm2.373,0L24,79.842h-.976l.009-4.342h1.23Zm3.542,2.795.053,1.2a3.465,3.465,0,0,1,2.848-1.371q3.015,0,3.041,3.4V89H32.124V82.707a2.189,2.189,0,0,0-.47-1.521,1.884,1.884,0,0,0-1.437-.492,2.347,2.347,0,0,0-1.389.422,2.865,2.865,0,0,0-.932,1.107V89H26.271V79.49ZM42.073,89a3.416,3.416,0,0,1-.229-1,3.628,3.628,0,0,1-2.707,1.178,3.357,3.357,0,0,1-2.307-.8,2.573,2.573,0,0,1-.9-2.017,2.688,2.688,0,0,1,1.129-2.307,5.325,5.325,0,0,1,3.177-.822h1.582v-.747a1.826,1.826,0,0,0-.51-1.358,2.049,2.049,0,0,0-1.5-.505,2.371,2.371,0,0,0-1.459.439,1.3,1.3,0,0,0-.589,1.063H36.123a2.244,2.244,0,0,1,.505-1.375A3.449,3.449,0,0,1,38,79.7a4.613,4.613,0,0,1,1.9-.387,3.759,3.759,0,0,1,2.575.822,2.964,2.964,0,0,1,.967,2.263v4.377a5.351,5.351,0,0,0,.334,2.083V89Zm-2.7-1.239a2.858,2.858,0,0,0,1.45-.4,2.392,2.392,0,0,0,.993-1.028V84.386H40.544q-2.988,0-2.988,1.749a1.48,1.48,0,0,0,.51,1.2A1.959,1.959,0,0,0,39.375,87.761Zm8.147-8.271.044,1.055a3.512,3.512,0,0,1,2.821-1.23A2.719,2.719,0,0,1,53.1,80.844a3.6,3.6,0,0,1,1.235-1.107,3.647,3.647,0,0,1,1.8-.422q3.129,0,3.182,3.313V89H57.691V82.725a2.184,2.184,0,0,0-.466-1.525,2.051,2.051,0,0,0-1.564-.505,2.156,2.156,0,0,0-1.5.541,2.193,2.193,0,0,0-.694,1.455V89H51.829V82.769a1.814,1.814,0,0,0-2.03-2.074,2.175,2.175,0,0,0-2.188,1.362V89H45.984V79.49Zm18.193,9.686a4.155,4.155,0,0,1-3.146-1.27,4.714,4.714,0,0,1-1.213-3.4v-.3a5.707,5.707,0,0,1,.541-2.527,4.217,4.217,0,0,1,1.512-1.74,3.8,3.8,0,0,1,2.1-.628A3.562,3.562,0,0,1,68.4,80.536a5.289,5.289,0,0,1,1.028,3.5v.677H62.982a3.38,3.38,0,0,0,.822,2.272,2.583,2.583,0,0,0,2,.866,2.832,2.832,0,0,0,1.459-.352,3.666,3.666,0,0,0,1.046-.932l.993.773A3.993,3.993,0,0,1,65.716,89.176Zm-.2-8.525a2.169,2.169,0,0,0-1.652.716,3.482,3.482,0,0,0-.826,2.008H67.8v-.123a3.1,3.1,0,0,0-.668-1.92A2.042,2.042,0,0,0,65.514,80.65ZM72.387,76.7l-.264,3.146h-.976l.009-4.342h1.23Zm2.373,0L74.5,79.842h-.976l.009-4.342h1.23Zm2.127,11.452a1.018,1.018,0,0,1,.25-.7.954.954,0,0,1,.751-.281.983.983,0,0,1,.76.281,1,1,0,0,1,.259.7.944.944,0,0,1-.259.677,1,1,0,0,1-.76.272.9.9,0,0,1-1-.949Zm.009-7.761a1.018,1.018,0,0,1,.25-.7A.954.954,0,0,1,77.9,79.4a.983.983,0,0,1,.76.281,1,1,0,0,1,.259.7.944.944,0,0,1-.259.677,1,1,0,0,1-.76.272.9.9,0,0,1-1-.949ZM82.5,76.7l-.264,3.146h-.976l.009-4.342H82.5Zm2.373,0-.264,3.146h-.976l.009-4.342h1.23Zm9.492,6.653H89V89H87.311V76.2h7.928v1.38H89v4.386h5.37Zm2.021.809a5.617,5.617,0,0,1,.549-2.514,4.1,4.1,0,0,1,1.529-1.723,4.163,4.163,0,0,1,2.237-.606,4.01,4.01,0,0,1,3.142,1.345,5.174,5.174,0,0,1,1.2,3.577v.114a5.666,5.666,0,0,1-.532,2.492,4.038,4.038,0,0,1-1.521,1.718,4.211,4.211,0,0,1-2.272.615,4,4,0,0,1-3.133-1.345,5.147,5.147,0,0,1-1.2-3.56Zm1.635.193a4.068,4.068,0,0,0,.734,2.54,2.487,2.487,0,0,0,3.933-.013,4.449,4.449,0,0,0,.729-2.72,4.061,4.061,0,0,0-.743-2.536,2.361,2.361,0,0,0-1.973-.971,2.335,2.335,0,0,0-1.942.958A4.416,4.416,0,0,0,98.024,84.351Zm13.658-3.4a4.873,4.873,0,0,0-.8-.062,2.143,2.143,0,0,0-2.171,1.362V89h-1.626V79.49h1.582l.026,1.1a2.532,2.532,0,0,1,2.268-1.274,1.661,1.661,0,0,1,.721.123Zm.932,3.217a5.571,5.571,0,0,1,1.037-3.52,3.529,3.529,0,0,1,5.361-.189V75.5h1.626V89h-1.494l-.079-1.02a3.311,3.311,0,0,1-2.716,1.2,3.248,3.248,0,0,1-2.694-1.354,5.634,5.634,0,0,1-1.042-3.533Zm1.626.185a4.218,4.218,0,0,0,.668,2.531,2.159,2.159,0,0,0,1.846.914,2.372,2.372,0,0,0,2.259-1.389V82.039a2.39,2.39,0,0,0-2.241-1.345,2.17,2.17,0,0,0-1.863.923A4.644,4.644,0,0,0,114.24,84.351ZM124.365,76.7l-.264,3.146h-.976l.009-4.342h1.23Zm2.373,0-.264,3.146H125.5l.009-4.342h1.23Zm2.127,14.854-.923-.633a4.241,4.241,0,0,0,.861-2.373V87.075h1.591V88.35a4,4,0,0,1-.435,1.775A4.156,4.156,0,0,1,128.865,91.549ZM138.111,76.7l-.264,3.146h-.976l.009-4.342h1.23Zm2.373,0-.264,3.146h-.976l.009-4.342h1.23Zm3.533,2.795.044,1.055a3.512,3.512,0,0,1,2.821-1.23,2.719,2.719,0,0,1,2.716,1.529,3.6,3.6,0,0,1,1.235-1.107,3.647,3.647,0,0,1,1.8-.422q3.129,0,3.182,3.313V89h-1.626V82.725a2.184,2.184,0,0,0-.466-1.525,2.051,2.051,0,0,0-1.564-.505,2.156,2.156,0,0,0-1.5.541,2.193,2.193,0,0,0-.694,1.455V89h-1.635V82.769a1.814,1.814,0,0,0-2.03-2.074,2.175,2.175,0,0,0-2.188,1.362V89h-1.626V79.49Zm13.816,4.667a5.617,5.617,0,0,1,.549-2.514,4.1,4.1,0,0,1,1.529-1.723,4.163,4.163,0,0,1,2.237-.606,4.01,4.01,0,0,1,3.142,1.345,5.174,5.174,0,0,1,1.2,3.577v.114a5.666,5.666,0,0,1-.532,2.492,4.038,4.038,0,0,1-1.521,1.718,4.211,4.211,0,0,1-2.272.615,4,4,0,0,1-3.133-1.345,5.147,5.147,0,0,1-1.2-3.56Zm1.635.193a4.068,4.068,0,0,0,.734,2.54,2.487,2.487,0,0,0,3.933-.013,4.449,4.449,0,0,0,.729-2.72,4.061,4.061,0,0,0-.743-2.536,2.361,2.361,0,0,0-1.973-.971,2.335,2.335,0,0,0-1.942.958A4.416,4.416,0,0,0,159.469,84.351Zm8.666-.185a5.571,5.571,0,0,1,1.037-3.52,3.529,3.529,0,0,1,5.361-.189V75.5h1.626V89h-1.494l-.079-1.02a3.311,3.311,0,0,1-2.716,1.2,3.248,3.248,0,0,1-2.694-1.354,5.634,5.634,0,0,1-1.042-3.533Zm1.626.185a4.218,4.218,0,0,0,.668,2.531,2.159,2.159,0,0,0,1.846.914,2.372,2.372,0,0,0,2.259-1.389V82.039a2.39,2.39,0,0,0-2.241-1.345,2.17,2.17,0,0,0-1.863.923A4.644,4.644,0,0,0,169.761,84.351Zm12.867,4.825a4.155,4.155,0,0,1-3.146-1.27,4.714,4.714,0,0,1-1.213-3.4v-.3a5.707,5.707,0,0,1,.541-2.527,4.217,4.217,0,0,1,1.512-1.74,3.8,3.8,0,0,1,2.1-.628,3.562,3.562,0,0,1,2.883,1.222,5.289,5.289,0,0,1,1.028,3.5v.677h-6.442a3.38,3.38,0,0,0,.822,2.272,2.583,2.583,0,0,0,2,.866,2.832,2.832,0,0,0,1.459-.352,3.666,3.666,0,0,0,1.046-.932l.993.773A3.993,3.993,0,0,1,182.628,89.176Zm-.2-8.525a2.169,2.169,0,0,0-1.652.716,3.482,3.482,0,0,0-.826,2.008h4.764v-.123a3.1,3.1,0,0,0-.668-1.92A2.042,2.042,0,0,0,182.426,80.65ZM189.984,89h-1.626V75.5h1.626Zm8.139-2.522a1.2,1.2,0,0,0-.5-1.024,4.78,4.78,0,0,0-1.731-.628,8.186,8.186,0,0,1-1.96-.633,2.788,2.788,0,0,1-1.072-.879,2.1,2.1,0,0,1-.347-1.213,2.467,2.467,0,0,1,.989-1.978,3.861,3.861,0,0,1,2.527-.809,3.974,3.974,0,0,1,2.624.835,2.652,2.652,0,0,1,1.006,2.136h-1.635a1.468,1.468,0,0,0-.567-1.151,2.124,2.124,0,0,0-1.428-.483,2.223,2.223,0,0,0-1.389.387,1.217,1.217,0,0,0-.5,1.011.986.986,0,0,0,.466.888,5.731,5.731,0,0,0,1.683.571,8.77,8.77,0,0,1,1.973.65,2.878,2.878,0,0,1,1.121.91,2.237,2.237,0,0,1,.365,1.3,2.434,2.434,0,0,1-1.02,2.043,4.277,4.277,0,0,1-2.646.769,4.789,4.789,0,0,1-2.021-.4,3.288,3.288,0,0,1-1.375-1.129,2.722,2.722,0,0,1-.5-1.569h1.626a1.683,1.683,0,0,0,.655,1.3,2.54,2.54,0,0,0,1.613.479,2.622,2.622,0,0,0,1.481-.374A1.148,1.148,0,0,0,198.123,86.478Zm4.948-9.782-.264,3.146h-.976l.009-4.342h1.23Zm2.373,0-.264,3.146h-.976l.009-4.342h1.23Zm2.127,11.452a1.018,1.018,0,0,1,.25-.7.954.954,0,0,1,.751-.281.983.983,0,0,1,.76.281,1,1,0,0,1,.259.7.944.944,0,0,1-.259.677,1,1,0,0,1-.76.272.9.9,0,0,1-1-.949Zm.009-7.761a1.018,1.018,0,0,1,.25-.7.954.954,0,0,1,.751-.281.983.983,0,0,1,.76.281,1,1,0,0,1,.259.7.944.944,0,0,1-.259.677,1,1,0,0,1-.76.272.9.9,0,0,1-1-.949Zm7.77-4.676h-1.679v14.7h1.679v1.336h-3.313V74.375h3.313Zm7.066.984-.264,3.146h-.976l.009-4.342h1.23Zm2.373,0-.264,3.146h-.976l.009-4.342h1.23Zm9.492,6.653h-5.37V89h-1.687V76.2h7.928v1.38h-6.24v4.386h5.37Zm4.4,5.651h-1.626V79.49h1.626Zm-1.758-12.032a.971.971,0,0,1,.242-.668.907.907,0,0,1,.716-.272.922.922,0,0,1,.721.272.96.96,0,0,1,.246.668.929.929,0,0,1-.246.659.938.938,0,0,1-.721.264.924.924,0,0,1-.716-.264A.938.938,0,0,1,236.927,76.968Zm8.306,12.208a4.155,4.155,0,0,1-3.146-1.27,4.714,4.714,0,0,1-1.213-3.4v-.3a5.707,5.707,0,0,1,.541-2.527,4.217,4.217,0,0,1,1.512-1.74,3.8,3.8,0,0,1,2.1-.628,3.562,3.562,0,0,1,2.883,1.222,5.289,5.289,0,0,1,1.028,3.5v.677H242.5a3.38,3.38,0,0,0,.822,2.272,2.583,2.583,0,0,0,2,.866,2.832,2.832,0,0,0,1.459-.352,3.666,3.666,0,0,0,1.046-.932l.993.773A3.993,3.993,0,0,1,245.232,89.176Zm-.2-8.525a2.169,2.169,0,0,0-1.652.716,3.482,3.482,0,0,0-.826,2.008h4.764v-.123a3.1,3.1,0,0,0-.668-1.92A2.042,2.042,0,0,0,245.03,80.65Zm11.329,5.827a1.2,1.2,0,0,0-.5-1.024,4.78,4.78,0,0,0-1.731-.628,8.186,8.186,0,0,1-1.96-.633,2.788,2.788,0,0,1-1.072-.879,2.1,2.1,0,0,1-.347-1.213,2.467,2.467,0,0,1,.989-1.978,3.861,3.861,0,0,1,2.527-.809,3.974,3.974,0,0,1,2.624.835,2.652,2.652,0,0,1,1.006,2.136h-1.635a1.468,1.468,0,0,0-.567-1.151,2.124,2.124,0,0,0-1.428-.483,2.223,2.223,0,0,0-1.389.387,1.217,1.217,0,0,0-.5,1.011.986.986,0,0,0,.466.888,5.731,5.731,0,0,0,1.683.571,8.77,8.77,0,0,1,1.973.65,2.878,2.878,0,0,1,1.121.91,2.237,2.237,0,0,1,.365,1.3,2.434,2.434,0,0,1-1.02,2.043,4.277,4.277,0,0,1-2.646.769,4.789,4.789,0,0,1-2.021-.4,3.288,3.288,0,0,1-1.375-1.129,2.722,2.722,0,0,1-.5-1.569h1.626a1.683,1.683,0,0,0,.655,1.3,2.54,2.54,0,0,0,1.613.479,2.622,2.622,0,0,0,1.481-.374A1.148,1.148,0,0,0,256.359,86.478Zm5.95-9.29v2.3h1.775v1.257H262.31v5.9a1.32,1.32,0,0,0,.237.858,1,1,0,0,0,.809.286,3.937,3.937,0,0,0,.773-.105V89a4.742,4.742,0,0,1-1.248.175,2.025,2.025,0,0,1-1.644-.659,2.832,2.832,0,0,1-.554-1.872v-5.9h-1.731V79.49h1.731v-2.3ZM271.854,89a3.416,3.416,0,0,1-.229-1,3.628,3.628,0,0,1-2.707,1.178,3.357,3.357,0,0,1-2.307-.8,2.573,2.573,0,0,1-.9-2.017,2.688,2.688,0,0,1,1.129-2.307,5.325,5.325,0,0,1,3.177-.822H271.6v-.747a1.826,1.826,0,0,0-.51-1.358,2.049,2.049,0,0,0-1.5-.505,2.371,2.371,0,0,0-1.459.439,1.3,1.3,0,0,0-.589,1.063H265.9a2.244,2.244,0,0,1,.505-1.375,3.449,3.449,0,0,1,1.371-1.05,4.613,4.613,0,0,1,1.9-.387,3.759,3.759,0,0,1,2.575.822,2.964,2.964,0,0,1,.967,2.263v4.377a5.351,5.351,0,0,0,.334,2.083V89Zm-2.7-1.239a2.858,2.858,0,0,0,1.45-.4,2.392,2.392,0,0,0,.993-1.028V84.386h-1.274q-2.988,0-2.988,1.749a1.48,1.48,0,0,0,.51,1.2A1.959,1.959,0,0,0,269.156,87.761ZM276.39,76.7l-.264,3.146h-.976l.009-4.342h1.23Zm2.373,0-.264,3.146h-.976l.009-4.342h1.23Zm2.127,14.854-.923-.633a4.241,4.241,0,0,0,.861-2.373V87.075h1.591V88.35a4,4,0,0,1-.435,1.775A4.156,4.156,0,0,1,280.89,91.549ZM2.435,100.7l-.264,3.146H1.2L1.2,99.5h1.23Zm2.373,0-.264,3.146H3.568L3.577,99.5h1.23Zm9.492,6.653H8.93V113H7.242V100.2H15.17v1.38H8.93v4.386H14.3Zm2.021.809a5.617,5.617,0,0,1,.549-2.514,4.1,4.1,0,0,1,1.529-1.723,4.163,4.163,0,0,1,2.237-.606,4.01,4.01,0,0,1,3.142,1.345,5.174,5.174,0,0,1,1.2,3.577v.114a5.666,5.666,0,0,1-.532,2.492,4.038,4.038,0,0,1-1.521,1.718,4.211,4.211,0,0,1-2.272.615,4,4,0,0,1-3.133-1.345,5.147,5.147,0,0,1-1.2-3.56Zm1.635.193a4.068,4.068,0,0,0,.734,2.54,2.487,2.487,0,0,0,3.933-.013,4.449,4.449,0,0,0,.729-2.72,4.061,4.061,0,0,0-.743-2.536,2.361,2.361,0,0,0-1.973-.971,2.335,2.335,0,0,0-1.942.958A4.416,4.416,0,0,0,17.956,108.351Zm12.876,3.5a2.342,2.342,0,0,0,1.521-.527A1.855,1.855,0,0,0,33.073,110h1.538a2.949,2.949,0,0,1-.562,1.556,3.7,3.7,0,0,1-1.384,1.178,3.994,3.994,0,0,1-1.833.439,3.918,3.918,0,0,1-3.089-1.3,5.163,5.163,0,0,1-1.147-3.546v-.272a5.725,5.725,0,0,1,.51-2.47,3.883,3.883,0,0,1,1.463-1.679,4.157,4.157,0,0,1,2.254-.6,3.814,3.814,0,0,1,2.659.958,3.424,3.424,0,0,1,1.129,2.487H33.073a2.241,2.241,0,0,0-.7-1.516,2.174,2.174,0,0,0-1.551-.593,2.276,2.276,0,0,0-1.92.892,4.19,4.19,0,0,0-.681,2.58v.308a4.106,4.106,0,0,0,.677,2.531A2.287,2.287,0,0,0,30.832,111.849Zm11.479.211a3.454,3.454,0,0,1-2.786,1.116,2.956,2.956,0,0,1-2.316-.883,3.823,3.823,0,0,1-.8-2.615V103.49H38.03v6.144q0,2.162,1.758,2.162a2.434,2.434,0,0,0,2.479-1.389V103.49h1.626V113H42.346Zm9.589-1.582a1.2,1.2,0,0,0-.5-1.024,4.78,4.78,0,0,0-1.731-.628,8.186,8.186,0,0,1-1.96-.633,2.788,2.788,0,0,1-1.072-.879,2.1,2.1,0,0,1-.347-1.213,2.467,2.467,0,0,1,.989-1.978,3.861,3.861,0,0,1,2.527-.809,3.974,3.974,0,0,1,2.624.835,2.652,2.652,0,0,1,1.006,2.136H51.8a1.468,1.468,0,0,0-.567-1.151,2.124,2.124,0,0,0-1.428-.483,2.223,2.223,0,0,0-1.389.387,1.217,1.217,0,0,0-.5,1.011.986.986,0,0,0,.466.888,5.731,5.731,0,0,0,1.683.571,8.77,8.77,0,0,1,1.973.65,2.878,2.878,0,0,1,1.121.91,2.237,2.237,0,0,1,.365,1.3,2.434,2.434,0,0,1-1.02,2.043,4.277,4.277,0,0,1-2.646.769,4.789,4.789,0,0,1-2.021-.4,3.288,3.288,0,0,1-1.375-1.129,2.722,2.722,0,0,1-.5-1.569h1.626a1.683,1.683,0,0,0,.655,1.3,2.54,2.54,0,0,0,1.613.479,2.622,2.622,0,0,0,1.481-.374A1.148,1.148,0,0,0,51.9,110.478Zm4.948-9.782-.264,3.146h-.976l.009-4.342h1.23Zm2.373,0-.264,3.146h-.976L57.99,99.5h1.23Zm2.127,14.854-.923-.633a4.241,4.241,0,0,0,.861-2.373v-1.468h1.591v1.274a4,4,0,0,1-.435,1.775A4.156,4.156,0,0,1,61.348,115.549ZM70.594,100.7l-.264,3.146h-.976l.009-4.342h1.23Zm2.373,0-.264,3.146h-.976l.009-4.342h1.23Zm4.614-.492,4.184,10.441L85.948,100.2h2.188V113H86.449v-4.983l.158-5.379L82.406,113H81.114l-4.192-10.336.167,5.353V113H75.4V100.2ZM96.732,112.06a3.454,3.454,0,0,1-2.786,1.116,2.956,2.956,0,0,1-2.316-.883,3.823,3.823,0,0,1-.8-2.615V103.49h1.626v6.144q0,2.162,1.758,2.162a2.434,2.434,0,0,0,2.479-1.389V103.49h1.626V113H96.768Zm9.589-1.582a1.2,1.2,0,0,0-.5-1.024,4.78,4.78,0,0,0-1.731-.628,8.186,8.186,0,0,1-1.96-.633,2.788,2.788,0,0,1-1.072-.879,2.1,2.1,0,0,1-.347-1.213,2.467,2.467,0,0,1,.989-1.978,3.861,3.861,0,0,1,2.527-.809,3.974,3.974,0,0,1,2.624.835,2.652,2.652,0,0,1,1.006,2.136h-1.635a1.468,1.468,0,0,0-.567-1.151,2.124,2.124,0,0,0-1.428-.483,2.223,2.223,0,0,0-1.389.387,1.217,1.217,0,0,0-.5,1.011.986.986,0,0,0,.466.888,5.731,5.731,0,0,0,1.683.571,8.77,8.77,0,0,1,1.973.65,2.878,2.878,0,0,1,1.121.91,2.237,2.237,0,0,1,.365,1.3,2.434,2.434,0,0,1-1.02,2.043,4.277,4.277,0,0,1-2.646.769,4.789,4.789,0,0,1-2.021-.4,3.288,3.288,0,0,1-1.375-1.129,2.722,2.722,0,0,1-.5-1.569h1.626a1.683,1.683,0,0,0,.655,1.3,2.54,2.54,0,0,0,1.613.479,2.622,2.622,0,0,0,1.481-.374A1.148,1.148,0,0,0,106.321,110.478Zm5.95-9.29v2.3h1.775v1.257h-1.775v5.9a1.32,1.32,0,0,0,.237.858,1,1,0,0,0,.809.286,3.937,3.937,0,0,0,.773-.105V113a4.742,4.742,0,0,1-1.248.175,2.025,2.025,0,0,1-1.644-.659,2.832,2.832,0,0,1-.554-1.872v-5.9h-1.731V103.49h1.731v-2.3ZM121.816,113a3.416,3.416,0,0,1-.229-1,3.628,3.628,0,0,1-2.707,1.178,3.357,3.357,0,0,1-2.307-.8,2.573,2.573,0,0,1-.9-2.017,2.688,2.688,0,0,1,1.129-2.307,5.325,5.325,0,0,1,3.177-.822h1.582v-.747a1.826,1.826,0,0,0-.51-1.358,2.049,2.049,0,0,0-1.5-.505,2.371,2.371,0,0,0-1.459.439,1.3,1.3,0,0,0-.589,1.063h-1.635a2.244,2.244,0,0,1,.505-1.375,3.449,3.449,0,0,1,1.371-1.05,4.613,4.613,0,0,1,1.9-.387,3.759,3.759,0,0,1,2.575.822,2.964,2.964,0,0,1,.967,2.263v4.377a5.351,5.351,0,0,0,.334,2.083V113Zm-2.7-1.239a2.858,2.858,0,0,0,1.45-.4,2.392,2.392,0,0,0,.993-1.028v-1.951h-1.274q-2.988,0-2.988,1.749a1.48,1.48,0,0,0,.51,1.2A1.959,1.959,0,0,0,119.118,111.761Zm8.156-8.271.053,1.2a3.465,3.465,0,0,1,2.848-1.371q3.015,0,3.041,3.4V113H131.59v-6.293a2.189,2.189,0,0,0-.47-1.521,1.884,1.884,0,0,0-1.437-.492,2.347,2.347,0,0,0-1.389.422,2.865,2.865,0,0,0-.932,1.107V113h-1.626v-9.51Zm8.007,4.676a5.589,5.589,0,0,1,1.028-3.538,3.545,3.545,0,0,1,5.44-.083l.079-1.055h1.485v9.281a3.869,3.869,0,0,1-1.094,2.909,4.038,4.038,0,0,1-2.94,1.063,4.891,4.891,0,0,1-2.013-.439,3.465,3.465,0,0,1-1.5-1.2l.844-.976a3.18,3.18,0,0,0,2.558,1.292,2.491,2.491,0,0,0,1.85-.668,2.553,2.553,0,0,0,.664-1.881v-.817a3.342,3.342,0,0,1-2.663,1.125,3.248,3.248,0,0,1-2.7-1.345A5.876,5.876,0,0,1,135.281,108.166Zm1.635.185a4.264,4.264,0,0,0,.659,2.527,2.142,2.142,0,0,0,1.846.918,2.382,2.382,0,0,0,2.259-1.4v-4.342a2.41,2.41,0,0,0-2.241-1.362,2.161,2.161,0,0,0-1.854.923A4.644,4.644,0,0,0,136.916,108.351Zm10.055-7.655-.264,3.146h-.976l.009-4.342h1.23Zm2.373,0-.264,3.146H148.1l.009-4.342h1.23Zm5.484-2.32h3.322v17.367h-3.322v-1.336h1.7v-14.7h-1.7Zm9.316,16.831q1.784-.571,1.846-2.909v-1.934a2.767,2.767,0,0,1,1.591-2.769,2.747,2.747,0,0,1-1.591-2.769v-1.784q0-2.479-1.837-3.067l.334-1.011a4.394,4.394,0,0,1,2.338,1.428,4.131,4.131,0,0,1,.791,2.615v1.846q0,2.1,1.863,2.1v1.274q-1.863,0-1.863,2.136v1.775a4.109,4.109,0,0,1-.8,2.646,4.448,4.448,0,0,1-2.333,1.433Zm7.1.343-.923-.633a4.241,4.241,0,0,0,.861-2.373v-1.468h1.591v1.274a4,4,0,0,1-.435,1.775A4.156,4.156,0,0,1,171.246,115.549ZM14.467,140.217a4.368,4.368,0,0,1-2.342-1.446,4.2,4.2,0,0,1-.787-2.659v-1.749q0-2.136-1.863-2.136v-1.274q1.863,0,1.863-2.127V127a4.19,4.19,0,0,1,.787-2.6,4.373,4.373,0,0,1,2.342-1.437l.334,1.011q-1.837.589-1.837,3.067v1.775a2.871,2.871,0,0,1-1.468,2.777,2.906,2.906,0,0,1,1.468,2.8v1.811q.026,2.417,1.837,3ZM21.894,124.7l-.264,3.146h-.976l.009-4.342h1.23Zm2.373,0L24,127.842h-.976l.009-4.342h1.23Zm3.542,2.795.053,1.2a3.465,3.465,0,0,1,2.848-1.371q3.015,0,3.041,3.4V137H32.124v-6.293a2.189,2.189,0,0,0-.47-1.521,1.884,1.884,0,0,0-1.437-.492,2.347,2.347,0,0,0-1.389.422,2.865,2.865,0,0,0-.932,1.107V137H26.271v-9.51ZM42.073,137a3.416,3.416,0,0,1-.229-1,3.628,3.628,0,0,1-2.707,1.178,3.357,3.357,0,0,1-2.307-.8,2.573,2.573,0,0,1-.9-2.017,2.688,2.688,0,0,1,1.129-2.307,5.325,5.325,0,0,1,3.177-.822h1.582v-.747a1.826,1.826,0,0,0-.51-1.358,2.049,2.049,0,0,0-1.5-.505,2.371,2.371,0,0,0-1.459.439,1.3,1.3,0,0,0-.589,1.063H36.123a2.244,2.244,0,0,1,.505-1.375A3.449,3.449,0,0,1,38,127.7a4.613,4.613,0,0,1,1.9-.387,3.759,3.759,0,0,1,2.575.822,2.964,2.964,0,0,1,.967,2.263v4.377a5.351,5.351,0,0,0,.334,2.083V137Zm-2.7-1.239a2.858,2.858,0,0,0,1.45-.4,2.392,2.392,0,0,0,.993-1.028v-1.951H40.544q-2.988,0-2.988,1.749a1.48,1.48,0,0,0,.51,1.2A1.959,1.959,0,0,0,39.375,135.761Zm8.147-8.271.044,1.055a3.512,3.512,0,0,1,2.821-1.23,2.719,2.719,0,0,1,2.716,1.529,3.6,3.6,0,0,1,1.235-1.107,3.647,3.647,0,0,1,1.8-.422q3.129,0,3.182,3.313V137H57.691v-6.275a2.184,2.184,0,0,0-.466-1.525,2.051,2.051,0,0,0-1.564-.505,2.156,2.156,0,0,0-1.5.541,2.193,2.193,0,0,0-.694,1.455V137H51.829v-6.231a1.814,1.814,0,0,0-2.03-2.074,2.175,2.175,0,0,0-2.188,1.362V137H45.984v-9.51Zm18.193,9.686a4.155,4.155,0,0,1-3.146-1.27,4.714,4.714,0,0,1-1.213-3.4v-.3a5.707,5.707,0,0,1,.541-2.527,4.217,4.217,0,0,1,1.512-1.74,3.8,3.8,0,0,1,2.1-.628,3.562,3.562,0,0,1,2.883,1.222,5.289,5.289,0,0,1,1.028,3.5v.677H62.982a3.38,3.38,0,0,0,.822,2.272,2.583,2.583,0,0,0,2,.866,2.832,2.832,0,0,0,1.459-.352,3.666,3.666,0,0,0,1.046-.932l.993.773A3.993,3.993,0,0,1,65.716,137.176Zm-.2-8.525a2.169,2.169,0,0,0-1.652.716,3.482,3.482,0,0,0-.826,2.008H67.8v-.123a3.1,3.1,0,0,0-.668-1.92A2.042,2.042,0,0,0,65.514,128.65Zm6.873-3.955-.264,3.146h-.976l.009-4.342h1.23Zm2.373,0-.264,3.146h-.976l.009-4.342h1.23Zm2.127,11.452a1.018,1.018,0,0,1,.25-.7.954.954,0,0,1,.751-.281.983.983,0,0,1,.76.281,1,1,0,0,1,.259.7.944.944,0,0,1-.259.677,1,1,0,0,1-.76.272.9.9,0,0,1-1-.949Zm.009-7.761a1.018,1.018,0,0,1,.25-.7.954.954,0,0,1,.751-.281.983.983,0,0,1,.76.281,1,1,0,0,1,.259.7.944.944,0,0,1-.259.677,1,1,0,0,1-.76.272.9.9,0,0,1-1-.949ZM82.5,124.7l-.264,3.146h-.976l.009-4.342H82.5Zm2.373,0-.264,3.146h-.976l.009-4.342h1.23ZM87.311,137V124.2h4.184a4.856,4.856,0,0,1,3.133.861,3.1,3.1,0,0,1,1.05,2.549,2.6,2.6,0,0,1-.51,1.586,3.3,3.3,0,0,1-1.389,1.068,2.968,2.968,0,0,1,1.639,1.1,3.166,3.166,0,0,1,.6,1.938,3.423,3.423,0,0,1-1.116,2.707,4.616,4.616,0,0,1-3.155.984ZM89,131.015v4.605h2.786a2.683,2.683,0,0,0,1.859-.611,2.145,2.145,0,0,0,.681-1.683q0-2.312-2.514-2.312Zm0-1.354h2.549a2.672,2.672,0,0,0,1.771-.555,1.86,1.86,0,0,0,.664-1.506,1.829,1.829,0,0,0-.615-1.537,3.021,3.021,0,0,0-1.872-.48H89Zm11.7-5.458,4.184,10.441,4.184-10.441h2.188V137h-1.687v-4.983l.158-5.379L105.521,137h-1.292l-4.192-10.336.167,5.353V137H98.517V124.2Zm16.295,8.763.246,1.688.36-1.521,2.531-8.93h1.424l2.47,8.93.352,1.547.272-1.723,1.986-8.754h1.7l-3.1,12.8h-1.538l-2.637-9.325-.2-.976-.2.976L117.914,137h-1.538l-3.094-12.8h1.688ZM131.15,124.7l-.264,3.146h-.976l.009-4.342h1.23Zm2.373,0-.264,3.146h-.976l.009-4.342h1.23Zm2.127,14.854-.923-.633a4.241,4.241,0,0,0,.861-2.373v-1.468h1.591v1.274a4,4,0,0,1-.435,1.775A4.156,4.156,0,0,1,135.65,139.549ZM144.9,124.7l-.264,3.146h-.976l.009-4.342h1.23Zm2.373,0-.264,3.146h-.976l.009-4.342h1.23Zm3.533,2.795.044,1.055a3.512,3.512,0,0,1,2.821-1.23,2.719,2.719,0,0,1,2.716,1.529,3.6,3.6,0,0,1,1.235-1.107,3.647,3.647,0,0,1,1.8-.422q3.129,0,3.182,3.313V137h-1.626v-6.275a2.184,2.184,0,0,0-.466-1.525,2.051,2.051,0,0,0-1.564-.505,2.156,2.156,0,0,0-1.5.541,2.193,2.193,0,0,0-.694,1.455V137h-1.635v-6.231a1.814,1.814,0,0,0-2.03-2.074,2.175,2.175,0,0,0-2.188,1.362V137h-1.626v-9.51Zm13.816,4.667a5.617,5.617,0,0,1,.549-2.514,4.1,4.1,0,0,1,1.529-1.723,4.163,4.163,0,0,1,2.237-.606,4.01,4.01,0,0,1,3.142,1.345,5.174,5.174,0,0,1,1.2,3.577v.114a5.666,5.666,0,0,1-.532,2.492,4.038,4.038,0,0,1-1.521,1.718,4.211,4.211,0,0,1-2.272.615,4,4,0,0,1-3.133-1.345,5.147,5.147,0,0,1-1.2-3.56Zm1.635.193a4.068,4.068,0,0,0,.734,2.54,2.487,2.487,0,0,0,3.933-.013,4.449,4.449,0,0,0,.729-2.72,4.061,4.061,0,0,0-.743-2.536,2.361,2.361,0,0,0-1.973-.971,2.335,2.335,0,0,0-1.942.958A4.416,4.416,0,0,0,166.254,132.351Zm8.666-.185a5.571,5.571,0,0,1,1.037-3.52,3.529,3.529,0,0,1,5.361-.189V123.5h1.626V137H181.45l-.079-1.02a3.311,3.311,0,0,1-2.716,1.2,3.248,3.248,0,0,1-2.694-1.354,5.634,5.634,0,0,1-1.042-3.533Zm1.626.185a4.218,4.218,0,0,0,.668,2.531,2.159,2.159,0,0,0,1.846.914,2.372,2.372,0,0,0,2.259-1.389v-4.368a2.39,2.39,0,0,0-2.241-1.345,2.17,2.17,0,0,0-1.863.923A4.644,4.644,0,0,0,176.546,132.351Zm12.867,4.825a4.155,4.155,0,0,1-3.146-1.27,4.714,4.714,0,0,1-1.213-3.4v-.3a5.707,5.707,0,0,1,.541-2.527,4.217,4.217,0,0,1,1.512-1.74,3.8,3.8,0,0,1,2.1-.628,3.562,3.562,0,0,1,2.883,1.222,5.289,5.289,0,0,1,1.028,3.5v.677H186.68a3.38,3.38,0,0,0,.822,2.272,2.583,2.583,0,0,0,2,.866,2.832,2.832,0,0,0,1.459-.352,3.666,3.666,0,0,0,1.046-.932l.993.773A3.993,3.993,0,0,1,189.413,137.176Zm-.2-8.525a2.169,2.169,0,0,0-1.652.716,3.482,3.482,0,0,0-.826,2.008H191.5v-.123a3.1,3.1,0,0,0-.668-1.92A2.042,2.042,0,0,0,189.211,128.65ZM196.77,137h-1.626V123.5h1.626Zm8.139-2.522a1.2,1.2,0,0,0-.5-1.024,4.78,4.78,0,0,0-1.731-.628,8.186,8.186,0,0,1-1.96-.633,2.788,2.788,0,0,1-1.072-.879,2.1,2.1,0,0,1-.347-1.213,2.467,2.467,0,0,1,.989-1.978,3.861,3.861,0,0,1,2.527-.809,3.974,3.974,0,0,1,2.624.835,2.652,2.652,0,0,1,1.006,2.136h-1.635a1.468,1.468,0,0,0-.567-1.151,2.124,2.124,0,0,0-1.428-.483,2.223,2.223,0,0,0-1.389.387,1.217,1.217,0,0,0-.5,1.011.986.986,0,0,0,.466.888,5.731,5.731,0,0,0,1.683.571,8.77,8.77,0,0,1,1.973.65,2.878,2.878,0,0,1,1.121.91,2.237,2.237,0,0,1,.365,1.3,2.434,2.434,0,0,1-1.02,2.043,4.277,4.277,0,0,1-2.646.769,4.789,4.789,0,0,1-2.021-.4,3.288,3.288,0,0,1-1.375-1.129,2.722,2.722,0,0,1-.5-1.569H200.6a1.683,1.683,0,0,0,.655,1.3,2.54,2.54,0,0,0,1.613.479,2.622,2.622,0,0,0,1.481-.374A1.148,1.148,0,0,0,204.908,134.478Zm4.948-9.782-.264,3.146h-.976l.009-4.342h1.23Zm2.373,0-.264,3.146h-.976L211,123.5h1.23Zm2.127,11.452a1.018,1.018,0,0,1,.25-.7.954.954,0,0,1,.751-.281.983.983,0,0,1,.76.281,1,1,0,0,1,.259.7.944.944,0,0,1-.259.677,1,1,0,0,1-.76.272.9.9,0,0,1-1-.949Zm.009-7.761a1.018,1.018,0,0,1,.25-.7.954.954,0,0,1,.751-.281.983.983,0,0,1,.76.281,1,1,0,0,1,.259.7.944.944,0,0,1-.259.677,1,1,0,0,1-.76.272.9.9,0,0,1-1-.949Zm7.77-4.676h-1.679v14.7h1.679v1.336h-3.313V122.375h3.313Zm7.066.984-.264,3.146h-.976l.009-4.342h1.23Zm2.373,0-.264,3.146h-.976l.009-4.342h1.23Zm4.377,5.115h1.222a2.685,2.685,0,0,0,1.811-.606,2.026,2.026,0,0,0,.659-1.591,1.985,1.985,0,0,0-2.241-2.25,2.331,2.331,0,0,0-1.683.6,2.107,2.107,0,0,0-.628,1.6h-1.626a3.264,3.264,0,0,1,1.112-2.527,4.05,4.05,0,0,1,2.826-1.006,4,4,0,0,1,2.839.958,3.461,3.461,0,0,1,1.028,2.663,2.809,2.809,0,0,1-.541,1.617,3.264,3.264,0,0,1-1.472,1.169,3.145,3.145,0,0,1,1.63,1.107,3.076,3.076,0,0,1,.576,1.89,3.491,3.491,0,0,1-1.125,2.733,4.213,4.213,0,0,1-2.927,1.011,4.324,4.324,0,0,1-2.931-.976,3.236,3.236,0,0,1-1.129-2.575h1.635a2.092,2.092,0,0,0,.659,1.617,2.507,2.507,0,0,0,1.767.606,2.46,2.46,0,0,0,1.8-.615,2.371,2.371,0,0,0,.624-1.767,2.151,2.151,0,0,0-.686-1.714,2.987,2.987,0,0,0-1.978-.615h-1.222ZM252.079,137h-8.385v-1.169l4.43-4.922a10.524,10.524,0,0,0,1.358-1.815,3.029,3.029,0,0,0,.374-1.446,2.3,2.3,0,0,0-.606-1.644,2.12,2.12,0,0,0-1.617-.642,2.511,2.511,0,0,0-1.885.69,2.635,2.635,0,0,0-.672,1.92h-1.626a3.774,3.774,0,0,1,1.138-2.856,4.219,4.219,0,0,1,3.045-1.09,4.054,4.054,0,0,1,2.821.936,3.193,3.193,0,0,1,1.037,2.492q0,1.89-2.408,4.5l-3.428,3.718h6.425Zm9.747-5.458a7.436,7.436,0,0,1-.976,4.245,4.054,4.054,0,0,1-6.082.031,7.058,7.058,0,0,1-1.02-4.056v-2.171a7.271,7.271,0,0,1,.976-4.192,4.127,4.127,0,0,1,6.1-.048,7.017,7.017,0,0,1,1,4.083Zm-1.626-2.224a5.958,5.958,0,0,0-.58-3.01,2,2,0,0,0-1.837-.945,1.97,1.97,0,0,0-1.819.94,5.817,5.817,0,0,0-.589,2.892v2.6a6.053,6.053,0,0,0,.6,3.063,1.993,1.993,0,0,0,1.824.989,1.966,1.966,0,0,0,1.789-.932,5.834,5.834,0,0,0,.611-2.936Zm5.08-4.623-.264,3.146h-.976l.009-4.342h1.23Zm2.373,0-.264,3.146h-.976l.009-4.342h1.23Zm2.127,14.854-.923-.633a4.241,4.241,0,0,0,.861-2.373v-1.468h1.591v1.274a4,4,0,0,1-.435,1.775A4.156,4.156,0,0,1,269.78,139.549Zm9.246-14.854-.264,3.146h-.976l.009-4.342h1.23Zm2.373,0-.264,3.146h-.976l.009-4.342h1.23Zm6.609,4.412,3.067-4.9h1.986l-4.043,6.346,4.14,6.451h-2l-3.146-4.992L284.845,137h-2L287,130.549l-4.052-6.346h1.978Zm9.053.7h1.222a2.685,2.685,0,0,0,1.811-.606,2.026,2.026,0,0,0,.659-1.591,1.985,1.985,0,0,0-2.241-2.25,2.331,2.331,0,0,0-1.683.6,2.107,2.107,0,0,0-.628,1.6h-1.626a3.264,3.264,0,0,1,1.112-2.527,4.05,4.05,0,0,1,2.826-1.006,4,4,0,0,1,2.839.958,3.461,3.461,0,0,1,1.028,2.663,2.809,2.809,0,0,1-.541,1.617,3.264,3.264,0,0,1-1.472,1.169,3.145,3.145,0,0,1,1.63,1.107,3.076,3.076,0,0,1,.576,1.89,3.491,3.491,0,0,1-1.125,2.733,4.213,4.213,0,0,1-2.927,1.011,4.324,4.324,0,0,1-2.931-.976,3.236,3.236,0,0,1-1.129-2.575h1.635a2.092,2.092,0,0,0,.659,1.617,2.507,2.507,0,0,0,1.767.606,2.46,2.46,0,0,0,1.8-.615,2.371,2.371,0,0,0,.624-1.767,2.151,2.151,0,0,0-.686-1.714,2.987,2.987,0,0,0-1.978-.615h-1.222Zm9.114-5.115-.264,3.146h-.976l.009-4.342h1.23Zm2.373,0-.264,3.146h-.976l.009-4.342h1.23Zm2.127,14.854-.923-.633a4.241,4.241,0,0,0,.861-2.373v-1.468h1.591v1.274a4,4,0,0,1-.435,1.775A4.156,4.156,0,0,1,310.676,139.549ZM2.435,148.7l-.264,3.146H1.2L1.2,147.5h1.23Zm2.373,0-.264,3.146H3.568l.009-4.342h1.23Zm6.609,4.412,3.067-4.9h1.986l-4.043,6.346L16.567,161h-2l-3.146-4.992L8.253,161h-2l4.148-6.451L6.354,148.2H8.332Zm7.436,1.477.65-6.381H26.06v1.5H20.883L20.5,153.2a4.13,4.13,0,0,1,2.136-.554,3.531,3.531,0,0,1,2.777,1.156,4.53,4.53,0,0,1,1.028,3.125,4.372,4.372,0,0,1-1.068,3.116,3.892,3.892,0,0,1-2.984,1.138,4.045,4.045,0,0,1-2.769-.94,3.754,3.754,0,0,1-1.222-2.6h1.538a2.582,2.582,0,0,0,.782,1.657,2.432,2.432,0,0,0,1.67.558,2.194,2.194,0,0,0,1.78-.773,3.233,3.233,0,0,0,.646-2.136,2.968,2.968,0,0,0-.7-2.061,2.377,2.377,0,0,0-1.859-.778,2.681,2.681,0,0,0-1.67.466l-.431.352ZM29.584,148.7l-.264,3.146h-.976l.009-4.342h1.23Zm2.373,0-.264,3.146h-.976l.009-4.342h1.23Zm5.484-2.32h3.322v17.367H37.441v-1.336h1.7v-14.7h-1.7Zm9.316,16.831q1.784-.571,1.846-2.909v-1.934a2.767,2.767,0,0,1,1.591-2.769,2.747,2.747,0,0,1-1.591-2.769v-1.784q0-2.479-1.837-3.067l.334-1.011a4.394,4.394,0,0,1,2.338,1.428,4.131,4.131,0,0,1,.791,2.615v1.846q0,2.1,1.863,2.1v1.274q-1.863,0-1.863,2.136v1.775a4.109,4.109,0,0,1-.8,2.646,4.448,4.448,0,0,1-2.333,1.433Zm7.1.343-.923-.633a4.241,4.241,0,0,0,.861-2.373v-1.468h1.591v1.274a4,4,0,0,1-.435,1.775A4.156,4.156,0,0,1,53.859,163.549ZM14.467,188.217a4.368,4.368,0,0,1-2.342-1.446,4.2,4.2,0,0,1-.787-2.659v-1.749q0-2.136-1.863-2.136v-1.274q1.863,0,1.863-2.127V175a4.19,4.19,0,0,1,.787-2.6,4.373,4.373,0,0,1,2.342-1.437l.334,1.011q-1.837.589-1.837,3.067v1.775a2.871,2.871,0,0,1-1.468,2.777,2.906,2.906,0,0,1,1.468,2.8v1.811q.026,2.417,1.837,3ZM21.894,172.7l-.264,3.146h-.976l.009-4.342h1.23Zm2.373,0L24,175.842h-.976l.009-4.342h1.23Zm3.542,2.795.053,1.2a3.465,3.465,0,0,1,2.848-1.371q3.015,0,3.041,3.4V185H32.124v-6.293a2.189,2.189,0,0,0-.47-1.521,1.884,1.884,0,0,0-1.437-.492,2.347,2.347,0,0,0-1.389.422,2.865,2.865,0,0,0-.932,1.107V185H26.271v-9.51ZM42.073,185a3.416,3.416,0,0,1-.229-1,3.628,3.628,0,0,1-2.707,1.178,3.357,3.357,0,0,1-2.307-.8,2.573,2.573,0,0,1-.9-2.017,2.688,2.688,0,0,1,1.129-2.307,5.325,5.325,0,0,1,3.177-.822h1.582v-.747a1.826,1.826,0,0,0-.51-1.358,2.049,2.049,0,0,0-1.5-.505,2.371,2.371,0,0,0-1.459.439,1.3,1.3,0,0,0-.589,1.063H36.123a2.244,2.244,0,0,1,.505-1.375A3.449,3.449,0,0,1,38,175.7a4.613,4.613,0,0,1,1.9-.387,3.759,3.759,0,0,1,2.575.822,2.964,2.964,0,0,1,.967,2.263v4.377a5.351,5.351,0,0,0,.334,2.083V185Zm-2.7-1.239a2.858,2.858,0,0,0,1.45-.4,2.392,2.392,0,0,0,.993-1.028v-1.951H40.544q-2.988,0-2.988,1.749a1.48,1.48,0,0,0,.51,1.2A1.959,1.959,0,0,0,39.375,183.761Zm8.147-8.271.044,1.055a3.512,3.512,0,0,1,2.821-1.23,2.719,2.719,0,0,1,2.716,1.529,3.6,3.6,0,0,1,1.235-1.107,3.647,3.647,0,0,1,1.8-.422q3.129,0,3.182,3.313V185H57.691v-6.275a2.184,2.184,0,0,0-.466-1.525,2.051,2.051,0,0,0-1.564-.505,2.156,2.156,0,0,0-1.5.541,2.193,2.193,0,0,0-.694,1.455V185H51.829v-6.231a1.814,1.814,0,0,0-2.03-2.074,2.175,2.175,0,0,0-2.188,1.362V185H45.984v-9.51Zm18.193,9.686a4.155,4.155,0,0,1-3.146-1.27,4.714,4.714,0,0,1-1.213-3.4v-.3a5.707,5.707,0,0,1,.541-2.527,4.217,4.217,0,0,1,1.512-1.74,3.8,3.8,0,0,1,2.1-.628,3.562,3.562,0,0,1,2.883,1.222,5.289,5.289,0,0,1,1.028,3.5v.677H62.982a3.38,3.38,0,0,0,.822,2.272,2.583,2.583,0,0,0,2,.866,2.832,2.832,0,0,0,1.459-.352,3.666,3.666,0,0,0,1.046-.932l.993.773A3.993,3.993,0,0,1,65.716,185.176Zm-.2-8.525a2.169,2.169,0,0,0-1.652.716,3.482,3.482,0,0,0-.826,2.008H67.8v-.123a3.1,3.1,0,0,0-.668-1.92A2.042,2.042,0,0,0,65.514,176.65Zm6.873-3.955-.264,3.146h-.976l.009-4.342h1.23Zm2.373,0-.264,3.146h-.976l.009-4.342h1.23Zm2.127,11.452a1.018,1.018,0,0,1,.25-.7.954.954,0,0,1,.751-.281.983.983,0,0,1,.76.281,1,1,0,0,1,.259.7.944.944,0,0,1-.259.677,1,1,0,0,1-.76.272.9.9,0,0,1-1-.949Zm.009-7.761a1.018,1.018,0,0,1,.25-.7.954.954,0,0,1,.751-.281.983.983,0,0,1,.76.281,1,1,0,0,1,.259.7.944.944,0,0,1-.259.677,1,1,0,0,1-.76.272.9.9,0,0,1-1-.949ZM82.5,172.7l-.264,3.146h-.976l.009-4.342H82.5Zm2.373,0-.264,3.146h-.976l.009-4.342h1.23Zm9.492,6.653H89V185H87.311V172.2h7.928v1.38H89v4.386h5.37Zm4.4,5.651H97.146v-9.51h1.626Zm-1.758-12.032a.971.971,0,0,1,.242-.668.907.907,0,0,1,.716-.272.922.922,0,0,1,.721.272.96.96,0,0,1,.246.668.929.929,0,0,1-.246.659.938.938,0,0,1-.721.264.924.924,0,0,1-.716-.264A.938.938,0,0,1,97.014,172.968ZM107.244,185a3.416,3.416,0,0,1-.229-1,3.628,3.628,0,0,1-2.707,1.178,3.357,3.357,0,0,1-2.307-.8,2.573,2.573,0,0,1-.9-2.017,2.688,2.688,0,0,1,1.129-2.307,5.325,5.325,0,0,1,3.177-.822h1.582v-.747a1.826,1.826,0,0,0-.51-1.358,2.049,2.049,0,0,0-1.5-.505,2.371,2.371,0,0,0-1.459.439,1.3,1.3,0,0,0-.589,1.063h-1.635a2.244,2.244,0,0,1,.505-1.375,3.449,3.449,0,0,1,1.371-1.05,4.613,4.613,0,0,1,1.9-.387,3.759,3.759,0,0,1,2.575.822,2.964,2.964,0,0,1,.967,2.263v4.377a5.351,5.351,0,0,0,.334,2.083V185Zm-2.7-1.239a2.858,2.858,0,0,0,1.45-.4,2.392,2.392,0,0,0,.993-1.028v-1.951h-1.274q-2.988,0-2.988,1.749a1.48,1.48,0,0,0,.51,1.2A1.959,1.959,0,0,0,104.546,183.761Zm8.824-10.573v2.3h1.775v1.257H113.37v5.9a1.32,1.32,0,0,0,.237.858,1,1,0,0,0,.809.286,3.937,3.937,0,0,0,.773-.105V185a4.742,4.742,0,0,1-1.248.175,2.025,2.025,0,0,1-1.644-.659,2.832,2.832,0,0,1-.554-1.872v-5.9h-1.731V175.49h1.731v-2.3Zm4.878-.492-.264,3.146h-.976l.009-4.342h1.23Zm2.373,0-.264,3.146h-.976l.009-4.342h1.23Zm2.127,14.854-.923-.633a4.241,4.241,0,0,0,.861-2.373v-1.468h1.591v1.274a4,4,0,0,1-.435,1.775A4.156,4.156,0,0,1,122.748,187.549Zm9.246-14.854-.264,3.146h-.976l.009-4.342h1.23Zm2.373,0-.264,3.146h-.976l.009-4.342h1.23Zm3.533,2.795.044,1.055a3.512,3.512,0,0,1,2.821-1.23,2.719,2.719,0,0,1,2.716,1.529,3.6,3.6,0,0,1,1.235-1.107,3.647,3.647,0,0,1,1.8-.422q3.129,0,3.182,3.313V185h-1.626v-6.275a2.184,2.184,0,0,0-.466-1.525,2.051,2.051,0,0,0-1.564-.505,2.156,2.156,0,0,0-1.5.541,2.193,2.193,0,0,0-.694,1.455V185h-1.635v-6.231a1.814,1.814,0,0,0-2.03-2.074,2.175,2.175,0,0,0-2.188,1.362V185h-1.626v-9.51Zm13.816,4.667a5.617,5.617,0,0,1,.549-2.514,4.1,4.1,0,0,1,1.529-1.723,4.163,4.163,0,0,1,2.237-.606,4.01,4.01,0,0,1,3.142,1.345,5.174,5.174,0,0,1,1.2,3.577v.114a5.666,5.666,0,0,1-.532,2.492,4.038,4.038,0,0,1-1.521,1.718,4.211,4.211,0,0,1-2.272.615,4,4,0,0,1-3.133-1.345,5.147,5.147,0,0,1-1.2-3.56Zm1.635.193a4.068,4.068,0,0,0,.734,2.54,2.487,2.487,0,0,0,3.933-.013,4.449,4.449,0,0,0,.729-2.72,4.061,4.061,0,0,0-.743-2.536,2.361,2.361,0,0,0-1.973-.971,2.335,2.335,0,0,0-1.942.958A4.416,4.416,0,0,0,153.352,180.351Zm8.666-.185a5.571,5.571,0,0,1,1.037-3.52,3.529,3.529,0,0,1,5.361-.189V171.5h1.626V185h-1.494l-.079-1.02a3.311,3.311,0,0,1-2.716,1.2,3.248,3.248,0,0,1-2.694-1.354,5.634,5.634,0,0,1-1.042-3.533Zm1.626.185a4.218,4.218,0,0,0,.668,2.531,2.159,2.159,0,0,0,1.846.914,2.372,2.372,0,0,0,2.259-1.389v-4.368a2.39,2.39,0,0,0-2.241-1.345,2.17,2.17,0,0,0-1.863.923A4.644,4.644,0,0,0,163.644,180.351Zm12.867,4.825a4.155,4.155,0,0,1-3.146-1.27,4.714,4.714,0,0,1-1.213-3.4v-.3a5.707,5.707,0,0,1,.541-2.527,4.217,4.217,0,0,1,1.512-1.74,3.8,3.8,0,0,1,2.1-.628,3.562,3.562,0,0,1,2.883,1.222,5.289,5.289,0,0,1,1.028,3.5v.677h-6.442a3.38,3.38,0,0,0,.822,2.272,2.583,2.583,0,0,0,2,.866,2.832,2.832,0,0,0,1.459-.352,3.666,3.666,0,0,0,1.046-.932l.993.773A3.993,3.993,0,0,1,176.511,185.176Zm-.2-8.525a2.169,2.169,0,0,0-1.652.716,3.482,3.482,0,0,0-.826,2.008h4.764v-.123a3.1,3.1,0,0,0-.668-1.92A2.042,2.042,0,0,0,176.309,176.65Zm7.559,8.35h-1.626V171.5h1.626Zm8.139-2.522a1.2,1.2,0,0,0-.5-1.024,4.78,4.78,0,0,0-1.731-.628,8.186,8.186,0,0,1-1.96-.633,2.788,2.788,0,0,1-1.072-.879,2.1,2.1,0,0,1-.347-1.213,2.467,2.467,0,0,1,.989-1.978,3.861,3.861,0,0,1,2.527-.809,3.974,3.974,0,0,1,2.624.835,2.652,2.652,0,0,1,1.006,2.136h-1.635a1.468,1.468,0,0,0-.567-1.151,2.124,2.124,0,0,0-1.428-.483,2.223,2.223,0,0,0-1.389.387,1.217,1.217,0,0,0-.5,1.011.986.986,0,0,0,.466.888,5.731,5.731,0,0,0,1.683.571,8.77,8.77,0,0,1,1.973.65,2.878,2.878,0,0,1,1.121.91,2.237,2.237,0,0,1,.365,1.3,2.434,2.434,0,0,1-1.02,2.043,4.277,4.277,0,0,1-2.646.769,4.789,4.789,0,0,1-2.021-.4,3.288,3.288,0,0,1-1.375-1.129,2.722,2.722,0,0,1-.5-1.569H187.7a1.683,1.683,0,0,0,.655,1.3,2.54,2.54,0,0,0,1.613.479,2.622,2.622,0,0,0,1.481-.374A1.148,1.148,0,0,0,192.006,182.478Zm4.948-9.782-.264,3.146h-.976l.009-4.342h1.23Zm2.373,0-.264,3.146h-.976l.009-4.342h1.23Zm2.127,11.452a1.018,1.018,0,0,1,.25-.7.954.954,0,0,1,.751-.281.983.983,0,0,1,.76.281,1,1,0,0,1,.259.7.944.944,0,0,1-.259.677,1,1,0,0,1-.76.272.9.9,0,0,1-1-.949Zm.009-7.761a1.018,1.018,0,0,1,.25-.7.954.954,0,0,1,.751-.281.983.983,0,0,1,.76.281,1,1,0,0,1,.259.7.944.944,0,0,1-.259.677,1,1,0,0,1-.76.272.9.9,0,0,1-1-.949Zm7.77-4.676h-1.679v14.7h1.679v1.336h-3.313V170.375h3.313Zm7.066.984-.264,3.146h-.976l.009-4.342h1.23Zm2.373,0-.264,3.146h-.976l.009-4.342h1.23Zm2.76,5.889.65-6.381h6.557v1.5h-5.177l-.387,3.489a4.13,4.13,0,0,1,2.136-.554,3.531,3.531,0,0,1,2.777,1.156,4.53,4.53,0,0,1,1.028,3.125,4.372,4.372,0,0,1-1.068,3.116,3.892,3.892,0,0,1-2.984,1.138,4.045,4.045,0,0,1-2.769-.94,3.754,3.754,0,0,1-1.222-2.6h1.538a2.582,2.582,0,0,0,.782,1.657,2.432,2.432,0,0,0,1.67.558,2.194,2.194,0,0,0,1.78-.773,3.233,3.233,0,0,0,.646-2.136,2.968,2.968,0,0,0-.7-2.061,2.377,2.377,0,0,0-1.859-.778,2.681,2.681,0,0,0-1.67.466l-.431.352Zm17.385.958a7.436,7.436,0,0,1-.976,4.245,4.054,4.054,0,0,1-6.082.031,7.058,7.058,0,0,1-1.02-4.056v-2.171a7.271,7.271,0,0,1,.976-4.192,4.127,4.127,0,0,1,6.1-.048,7.017,7.017,0,0,1,1,4.083Zm-1.626-2.224a5.958,5.958,0,0,0-.58-3.01,2,2,0,0,0-1.837-.945,1.97,1.97,0,0,0-1.819.94,5.817,5.817,0,0,0-.589,2.892v2.6a6.053,6.053,0,0,0,.6,3.063,1.993,1.993,0,0,0,1.824.989,1.966,1.966,0,0,0,1.789-.932,5.834,5.834,0,0,0,.611-2.936Zm11.733,2.224a7.436,7.436,0,0,1-.976,4.245,4.054,4.054,0,0,1-6.082.031,7.058,7.058,0,0,1-1.02-4.056v-2.171a7.271,7.271,0,0,1,.976-4.192,4.127,4.127,0,0,1,6.1-.048,7.017,7.017,0,0,1,1,4.083Zm-1.626-2.224a5.958,5.958,0,0,0-.58-3.01,2,2,0,0,0-1.837-.945,1.97,1.97,0,0,0-1.819.94,5.817,5.817,0,0,0-.589,2.892v2.6a6.053,6.053,0,0,0,.6,3.063,1.993,1.993,0,0,0,1.824.989,1.966,1.966,0,0,0,1.789-.932,5.834,5.834,0,0,0,.611-2.936Zm5.08-4.623-.264,3.146h-.976l.009-4.342h1.23Zm2.373,0-.264,3.146h-.976l.009-4.342h1.23Zm2.127,14.854-.923-.633a4.241,4.241,0,0,0,.861-2.373v-1.468h1.591v1.274a4,4,0,0,1-.435,1.775A4.156,4.156,0,0,1,256.878,187.549ZM2.435,196.7l-.264,3.146H1.2L1.2,195.5h1.23Zm2.373,0-.264,3.146H3.568l.009-4.342h1.23ZM8.93,203.99V209H7.242V196.2h4.72a4.742,4.742,0,0,1,3.292,1.072,3.635,3.635,0,0,1,1.191,2.839,3.587,3.587,0,0,1-1.165,2.87,4.954,4.954,0,0,1-3.335,1.006Zm0-1.38h3.032a3.032,3.032,0,0,0,2.074-.638,2.334,2.334,0,0,0,.721-1.845,2.411,2.411,0,0,0-.721-1.831,2.84,2.84,0,0,0-1.978-.713H8.93ZM24.117,209a3.416,3.416,0,0,1-.229-1,3.628,3.628,0,0,1-2.707,1.178,3.357,3.357,0,0,1-2.307-.8,2.573,2.573,0,0,1-.9-2.017,2.688,2.688,0,0,1,1.129-2.307,5.325,5.325,0,0,1,3.177-.822h1.582v-.747a1.826,1.826,0,0,0-.51-1.358,2.049,2.049,0,0,0-1.5-.505,2.371,2.371,0,0,0-1.459.439,1.3,1.3,0,0,0-.589,1.063H18.167a2.244,2.244,0,0,1,.505-1.375,3.449,3.449,0,0,1,1.371-1.05,4.613,4.613,0,0,1,1.9-.387,3.759,3.759,0,0,1,2.575.822,2.964,2.964,0,0,1,.967,2.263v4.377a5.351,5.351,0,0,0,.334,2.083V209Zm-2.7-1.239a2.858,2.858,0,0,0,1.45-.4,2.392,2.392,0,0,0,.993-1.028v-1.951H22.588q-2.988,0-2.988,1.749a1.48,1.48,0,0,0,.51,1.2A1.959,1.959,0,0,0,21.419,207.761Zm8.156-8.271.053,1.2a3.465,3.465,0,0,1,2.848-1.371q3.015,0,3.041,3.4V209H33.891v-6.293a2.189,2.189,0,0,0-.47-1.521,1.884,1.884,0,0,0-1.437-.492,2.347,2.347,0,0,0-1.389.422,2.865,2.865,0,0,0-.932,1.107V209H28.037v-9.51Zm8,4.676a5.571,5.571,0,0,1,1.037-3.52,3.529,3.529,0,0,1,5.361-.189V195.5H45.6V209H44.1l-.079-1.02a3.311,3.311,0,0,1-2.716,1.2,3.248,3.248,0,0,1-2.694-1.354,5.634,5.634,0,0,1-1.042-3.533Zm1.626.185a4.218,4.218,0,0,0,.668,2.531,2.159,2.159,0,0,0,1.846.914,2.372,2.372,0,0,0,2.259-1.389v-4.368a2.39,2.39,0,0,0-2.241-1.345,2.17,2.17,0,0,0-1.863.923A4.644,4.644,0,0,0,39.2,204.351ZM53.991,209a3.416,3.416,0,0,1-.229-1,3.628,3.628,0,0,1-2.707,1.178,3.357,3.357,0,0,1-2.307-.8,2.573,2.573,0,0,1-.9-2.017,2.688,2.688,0,0,1,1.129-2.307,5.325,5.325,0,0,1,3.177-.822h1.582v-.747a1.826,1.826,0,0,0-.51-1.358,2.049,2.049,0,0,0-1.5-.505,2.371,2.371,0,0,0-1.459.439,1.3,1.3,0,0,0-.589,1.063H48.041a2.244,2.244,0,0,1,.505-1.375,3.449,3.449,0,0,1,1.371-1.05,4.613,4.613,0,0,1,1.9-.387,3.759,3.759,0,0,1,2.575.822,2.964,2.964,0,0,1,.967,2.263v4.377a5.351,5.351,0,0,0,.334,2.083V209Zm-2.7-1.239a2.858,2.858,0,0,0,1.45-.4,2.392,2.392,0,0,0,.993-1.028v-1.951H52.462q-2.988,0-2.988,1.749a1.48,1.48,0,0,0,.51,1.2A1.959,1.959,0,0,0,51.293,207.761ZM58.526,196.7l-.264,3.146h-.976L57.3,195.5h1.23Zm2.373,0-.264,3.146H59.66l.009-4.342H60.9Zm5.484-2.32h3.322v17.367H66.384v-1.336h1.7v-14.7h-1.7ZM75.7,211.206q1.784-.571,1.846-2.909v-1.934a2.767,2.767,0,0,1,1.591-2.769,2.747,2.747,0,0,1-1.591-2.769v-1.784q0-2.479-1.837-3.067l.334-1.011a4.394,4.394,0,0,1,2.338,1.428,4.131,4.131,0,0,1,.791,2.615v1.846q0,2.1,1.863,2.1v1.274q-1.863,0-1.863,2.136v1.775a4.109,4.109,0,0,1-.8,2.646,4.448,4.448,0,0,1-2.333,1.433ZM4.535,218.375H7.857v17.367H4.535v-1.336h1.7v-14.7h-1.7ZM.167,259.206q1.784-.571,1.846-2.909v-1.934A2.767,2.767,0,0,1,3.6,251.595a2.747,2.747,0,0,1-1.591-2.769v-1.784q0-2.479-1.837-3.067l.334-1.011a4.394,4.394,0,0,1,2.338,1.428,4.131,4.131,0,0,1,.791,2.615v1.846q0,2.1,1.863,2.1v1.274q-1.863,0-1.863,2.136v1.775a4.109,4.109,0,0,1-.8,2.646A4.448,4.448,0,0,1,.51,260.217Z" transform="translate(1061 5167)" fill="#12263f"/>
    <g id="Grupo_1065827" data-name="Grupo 1065827" transform="translate(1020 5346)">
      <g id="Grupo_1065824" data-name="Grupo 1065824" clip-path="url(#clip-path)">
        <g id="Grupo_1065810" data-name="Grupo 1065810">
          <g id="Grupo_1065809" data-name="Grupo 1065809" clip-path="url(#clip-path-2)">
            <path id="Trazado_800123" data-name="Trazado 800123" d="M603.579,161.406h0a28.786,28.786,0,0,1,1.184,37.838,41.5,41.5,0,0,1-14.823,11.247L540.8,232.631,506.087,238,51.824,235.118l-28.463-5.569A28.91,28.91,0,0,1,0,200.758l.285-19.776a7,7,0,0,1,4.946-6.594l2.015-.619s1.684-19.391,13.384-23.783c42.631-18.371,70.859-24.269,142.224-27.251l60.275-36.029s24.33-15.55,47.008-17.585,73.984-2.067,97.5-.713C395.256,70,430.29,82.561,449.828,92.249c15.3,7.587,52.131,26.339,52.131,26.339l20.834,3.492c3.133.147,60.669,3.656,67.28,4.669a13.219,13.219,0,0,1,10.466,8.987c1.651,5.464,3.04,25.515,3.04,25.515" fill="#e8505b"/>
            <path id="Trazado_800124" data-name="Trazado 800124" d="M427.69,93.3c-9.819-4.91-36.161-11.681-50.89-14.443s-44.666-3.142-56.633-2.835-45.2.875-62.715,5.852c-9.012,2.56-23.491,10.057-32.031,16.34-2.963,2.18-15.837,12.268-18.715,14.559l-22.3,20.812,273.986-8.648s1.578-9.547-3.35-15.051S427.69,93.3,427.69,93.3" fill="#263238"/>
            <path id="Trazado_800125" data-name="Trazado 800125" d="M21.272,172.593l-13.86-.2c.539-3.736,2.371-13.677,8.293-19.243l18.351.263a4.315,4.315,0,0,1,3.614,6.576l-3.339,5.428a15.076,15.076,0,0,1-13.059,7.176" fill="#fafafa"/>
            <path id="Trazado_800126" data-name="Trazado 800126" d="M22.951,171.761c1.441-6.107,3.257-14.126,8.405-18.387l2.7.039a4.315,4.315,0,0,1,3.614,6.576l-3.339,5.428a15.058,15.058,0,0,1-11.566,7.1c.062-.253.125-.5.186-.756" fill="#e0e0e0"/>
            <g id="Grupo_1065796" data-name="Grupo 1065796" opacity="0.7">
              <g id="Grupo_1065795" data-name="Grupo 1065795">
                <g id="Grupo_1065794" data-name="Grupo 1065794" clip-path="url(#clip-path-3)">
                  <path id="Trazado_800127" data-name="Trazado 800127" d="M157.438,235.958a68.364,68.364,0,0,0,.944-21.679c-3.584-30.769-23.737-52.913-54.172-53.352-26.487-.382-48.37,16.169-52.84,46.822a78.854,78.854,0,0,0,.922,27.5Z"/>
                </g>
              </g>
            </g>
            <g id="Grupo_1065799" data-name="Grupo 1065799" opacity="0.7">
              <g id="Grupo_1065798" data-name="Grupo 1065798">
                <g id="Grupo_1065797" data-name="Grupo 1065797" clip-path="url(#clip-path-4)">
                  <path id="Trazado_800128" data-name="Trazado 800128" d="M540.773,232.759c-.043-1.134-.138-2.288-.154-3.493-.542-38.833-26.588-65.733-57.574-66.18a51.4,51.4,0,0,0-52.078,50.6c-.125,8.639-.541,16.776.482,23.944l74.612.5Z"/>
                </g>
              </g>
            </g>
            <path id="Trazado_800129" data-name="Trazado 800129" d="M437.574,213.781A44.736,44.736,0,1,0,482.951,169.7a44.737,44.737,0,0,0-45.377,44.086" fill="#263238"/>
            <path id="Trazado_800130" data-name="Trazado 800130" d="M437.582,213.665c0,.039-.007.076-.008.115a44.737,44.737,0,0,0,89.464,1.291c0-.039-.005-.077-.005-.116Z" fill="#263238"/>
            <path id="Trazado_800131" data-name="Trazado 800131" d="M450.9,213.973a31.408,31.408,0,1,0,31.857-30.952A31.407,31.407,0,0,0,450.9,213.973" fill="#fafafa"/>
            <path id="Trazado_800132" data-name="Trazado 800132" d="M482.759,183.021A31.408,31.408,0,0,0,450.9,213.973l62.81.906a31.408,31.408,0,0,0-30.952-31.858" fill="#e0e0e0"/>
            <path id="Trazado_800133" data-name="Trazado 800133" d="M463.176,214.15A19.132,19.132,0,1,0,482.582,195.3a19.132,19.132,0,0,0-19.406,18.854" fill="#263238"/>
            <path id="Trazado_800134" data-name="Trazado 800134" d="M60.379,214.935a44.736,44.736,0,1,0,45.377-44.086,44.736,44.736,0,0,0-45.377,44.086" fill="#263238"/>
            <path id="Trazado_800135" data-name="Trazado 800135" d="M60.386,214.82c0,.039-.007.076-.008.115a44.737,44.737,0,0,0,89.464,1.291c0-.039,0-.077,0-.116Z" fill="#263238"/>
            <path id="Trazado_800136" data-name="Trazado 800136" d="M73.706,215.127a31.408,31.408,0,1,0,31.857-30.952,31.408,31.408,0,0,0-31.857,30.952" fill="#fafafa"/>
            <path id="Trazado_800137" data-name="Trazado 800137" d="M105.563,184.175a31.407,31.407,0,0,0-31.857,30.952l62.809.906a31.408,31.408,0,0,0-30.952-31.858" fill="#e0e0e0"/>
            <path id="Trazado_800138" data-name="Trazado 800138" d="M85.98,215.3a19.132,19.132,0,1,0,19.406-18.854A19.132,19.132,0,0,0,85.98,215.3" fill="#263238"/>
            <g id="Grupo_1065802" data-name="Grupo 1065802" opacity="0.4">
              <g id="Grupo_1065801" data-name="Grupo 1065801">
                <g id="Grupo_1065800" data-name="Grupo 1065800" clip-path="url(#clip-path-5)">
                  <path id="Trazado_800139" data-name="Trazado 800139" d="M18.571,205.327c-.072,5.012-2.608,9.039-5.664,9s-5.475-4.143-5.4-9.155,2.609-9.039,5.664-9,5.475,4.143,5.4,9.155"/>
                </g>
              </g>
            </g>
            <path id="Trazado_800140" data-name="Trazado 800140" d="M603.579,161.406a4.4,4.4,0,0,1-.863.074l-2.474.086c-2.15.056-5.259.12-9.1.277-3.839.13-8.408.366-13.466.776a113.664,113.664,0,0,0-16.292,2.4,41.393,41.393,0,0,0-8.015,2.767,33.824,33.824,0,0,0-6.6,4.331c-4,3.106-7.02,6.563-9.764,9.266A40.079,40.079,0,0,1,530,187.216a19.077,19.077,0,0,1-2.184,1.183,4.344,4.344,0,0,1-.8.329c-.031-.064,1.066-.539,2.85-1.721a43.307,43.307,0,0,0,6.828-5.941c2.685-2.725,5.69-6.242,9.716-9.407a34.013,34.013,0,0,1,6.689-4.435,41.489,41.489,0,0,1,8.138-2.825,109.554,109.554,0,0,1,16.4-2.367c5.076-.379,9.655-.568,13.5-.641,3.846-.1,6.958-.1,9.109-.073l2.476.033a4.427,4.427,0,0,1,.864.055" fill="#263238"/>
            <g id="Grupo_1065805" data-name="Grupo 1065805" opacity="0.5">
              <g id="Grupo_1065804" data-name="Grupo 1065804">
                <g id="Grupo_1065803" data-name="Grupo 1065803" clip-path="url(#clip-path-6)">
                  <path id="Trazado_800141" data-name="Trazado 800141" d="M539.334,233.553s.178-.128.54-.349a14.543,14.543,0,0,0,1.513-1.113,15.472,15.472,0,0,0,4.137-5.828,23.692,23.692,0,0,0,1.446-11.208,78.482,78.482,0,0,0-2.965-14.846,77.521,77.521,0,0,0-7.2-16.854,64.522,64.522,0,0,0-13.3-16.206,54.9,54.9,0,0,0-20.114-11.3,62.685,62.685,0,0,0-24.711-2.108,83.935,83.935,0,0,0-24.11,6.27,52.239,52.239,0,0,0-29.976,30.847,87.479,87.479,0,0,0-4.664,17.741c-.435,2.777-.767,5.436-.994,7.959a50.664,50.664,0,0,0-.3,7.131c.142,4.442,1.594,8.236,3.866,10.41a10.01,10.01,0,0,0,6.3,3.117,10.181,10.181,0,0,0,2.5-.228s-.2.071-.619.18a7.65,7.65,0,0,1-1.886.176,10.036,10.036,0,0,1-6.473-3.069c-2.351-2.193-3.874-6.077-4.047-10.569a50.667,50.667,0,0,1,.25-7.184c.212-2.533.53-5.2.953-7.994a87.227,87.227,0,0,1,4.616-17.861,64.768,64.768,0,0,1,4.445-9.293,51,51,0,0,1,6.52-8.767,55.94,55.94,0,0,1,19.257-13.172,84.311,84.311,0,0,1,24.293-6.33,63.127,63.127,0,0,1,24.959,2.146,55.348,55.348,0,0,1,20.318,11.456,64.849,64.849,0,0,1,13.374,16.384,80.79,80.79,0,0,1,10.062,31.94,23.758,23.758,0,0,1-1.574,11.332,15.272,15.272,0,0,1-4.283,5.829,9.682,9.682,0,0,1-2.135,1.363" fill="#fff"/>
                </g>
              </g>
            </g>
            <path id="Trazado_800142" data-name="Trazado 800142" d="M52.3,207.736a21.5,21.5,0,0,1-1.445-1.706A32.615,32.615,0,0,0,46.52,201.8,42.479,42.479,0,0,0,28.5,193.572a83.419,83.419,0,0,0-19.966-1.279c-2.571.1-4.651.22-6.089.3a15.488,15.488,0,0,1-2.24.059,2,2,0,0,1,.571-.112l1.649-.2c1.433-.152,3.511-.344,6.087-.5a77.154,77.154,0,0,1,20.12,1.105,41.2,41.2,0,0,1,18.171,8.508,28.624,28.624,0,0,1,4.244,4.418c.459.56.743,1.049.961,1.359a1.988,1.988,0,0,1,.291.5" fill="#263238"/>
            <path id="Trazado_800143" data-name="Trazado 800143" d="M52.034,174.438c0,.177-10.683.166-23.851-.024s-23.847-.487-23.845-.664,10.681-.166,23.854.025,23.844.487,23.842.663" fill="#263238"/>
            <g id="Grupo_1065808" data-name="Grupo 1065808" opacity="0.5">
              <g id="Grupo_1065807" data-name="Grupo 1065807">
                <g id="Grupo_1065806" data-name="Grupo 1065806" clip-path="url(#clip-path-7)">
                  <path id="Trazado_800144" data-name="Trazado 800144" d="M173.077,231.341s-.023-.208-.037-.612c-.01-.431-.025-1.027-.044-1.795,0-.789-.048-1.764-.117-2.916-.045-1.152-.14-2.479-.288-3.97a102.412,102.412,0,0,0-5.435-24.7,107.589,107.589,0,0,0-7.1-15.972,84.853,84.853,0,0,0-11.339-16.494,49.211,49.211,0,0,0-17.9-12.661,63.535,63.535,0,0,0-23.136-4.76,74.2,74.2,0,0,0-12.017.866,75.568,75.568,0,0,0-11.351,2.848,68.9,68.9,0,0,0-10.345,4.533l-1.222.645-1.176.712-2.33,1.415-2.215,1.535-1.1.762-1.041.823a63.1,63.1,0,0,0-13.686,14.527,69.115,69.115,0,0,0-7.913,15.527,71.821,71.821,0,0,0-3.471,13.977c-.234,2.111-.49,4.074-.534,5.9-.137,1.818-.091,3.481-.077,4.978-.03,1.5.16,2.82.21,3.971s.2,2.117.305,2.9c.1.762.169,1.354.222,1.781.047.4.055.611.055.611s-.051-.2-.119-.6c-.069-.426-.164-1.015-.286-1.774-.121-.781-.293-1.745-.366-2.9s-.28-2.477-.27-3.981c-.033-1.5-.1-3.172.021-5,.027-1.831.266-3.8.485-5.928a71.321,71.321,0,0,1,3.4-14.082,69.162,69.162,0,0,1,7.9-15.673A63.383,63.383,0,0,1,64.52,161.137l1.049-.833,1.105-.771,2.233-1.554,2.348-1.433,1.185-.72,1.232-.653A69.289,69.289,0,0,1,84.1,150.585,75.992,75.992,0,0,1,95.556,147.7a74.653,74.653,0,0,1,12.13-.877,64,64,0,0,1,23.368,4.822,49.713,49.713,0,0,1,18.1,12.842,84.941,84.941,0,0,1,11.368,16.638,106.917,106.917,0,0,1,7.065,16.075,100.043,100.043,0,0,1,5.256,24.826,74.331,74.331,0,0,1,.238,9.314" fill="#fff"/>
                </g>
              </g>
            </g>
            <path id="Trazado_800145" data-name="Trazado 800145" d="M522.868,122.693a2.507,2.507,0,0,1-.045.655c-.065.5-.146,1.111-.245,1.858-.214,1.612-.55,3.943-.764,6.835a38.071,38.071,0,0,0,.462,10.1,21.385,21.385,0,0,0,5.628,10.788,30.172,30.172,0,0,0,10.284,6.748,53.933,53.933,0,0,0,9.754,2.827c2.846.571,5.175.918,6.78,1.183l1.848.309a2.526,2.526,0,0,1,.639.15,2.517,2.517,0,0,1-.656-.022l-1.865-.191c-1.617-.189-3.959-.468-6.831-.985a51.41,51.41,0,0,1-9.89-2.725,30.174,30.174,0,0,1-10.523-6.851,21.712,21.712,0,0,1-5.745-11.116A36.987,36.987,0,0,1,521.364,132c.273-2.909.678-5.235.969-6.837.145-.8.271-1.421.363-1.84a2.538,2.538,0,0,1,.172-.634" fill="#263238"/>
            <path id="Trazado_800146" data-name="Trazado 800146" d="M295.594,147.176a1.748,1.748,0,0,1,.552-.054,8.67,8.67,0,0,1,1.591.084,3.1,3.1,0,0,1,2.172,1.319,3.331,3.331,0,0,1,.264,3.345,4.99,4.99,0,0,1-3.231,2.507,14.473,14.473,0,0,1-4.658.23l-10.519-.6a8.508,8.508,0,0,1-2.812-.528,3.52,3.52,0,0,1-2.03-2.027,3.038,3.038,0,0,1,.525-2.728,4.308,4.308,0,0,1,2.12-1.547,14.566,14.566,0,0,1,4.649-.47c1.445,0,2.789.046,4.013.1l5.793.248a15.97,15.97,0,0,1,2.126.115,1.806,1.806,0,0,1-.549.071c-.36.026-.893.049-1.579.063-1.371.033-3.357,0-5.8-.046-1.224-.02-2.563-.036-4-.017a14.483,14.483,0,0,0-4.451.493,3.709,3.709,0,0,0-1.825,1.35,2.43,2.43,0,0,0-.427,2.174A2.906,2.906,0,0,0,279.2,152.9a8.008,8.008,0,0,0,2.6.476l10.514.648a14.269,14.269,0,0,0,4.486-.154,4.549,4.549,0,0,0,2.962-2.194,2.953,2.953,0,0,0-.156-2.948,2.856,2.856,0,0,0-1.922-1.273c-1.323-.243-2.1-.205-2.1-.274" fill="#263238"/>
            <path id="Trazado_800147" data-name="Trazado 800147" d="M437.065,146.008a1.786,1.786,0,0,1,.552-.054,8.67,8.67,0,0,1,1.591.084,3.1,3.1,0,0,1,2.172,1.319,3.331,3.331,0,0,1,.264,3.345,4.993,4.993,0,0,1-3.231,2.507,14.473,14.473,0,0,1-4.658.23l-10.519-.6a8.508,8.508,0,0,1-2.812-.528,3.52,3.52,0,0,1-2.03-2.027,3.039,3.039,0,0,1,.525-2.728,4.3,4.3,0,0,1,2.12-1.547,14.565,14.565,0,0,1,4.649-.47c1.445,0,2.789.046,4.013.1l5.793.249a15.971,15.971,0,0,1,2.126.115,1.806,1.806,0,0,1-.549.071c-.36.026-.893.049-1.579.063-1.371.034-3.357,0-5.8-.046-1.223-.021-2.562-.036-4-.017a14.483,14.483,0,0,0-4.451.493,3.713,3.713,0,0,0-1.825,1.349,2.432,2.432,0,0,0-.427,2.175,2.906,2.906,0,0,0,1.683,1.639,8.009,8.009,0,0,0,2.605.476l10.514.648a14.269,14.269,0,0,0,4.486-.154,4.546,4.546,0,0,0,2.962-2.194,2.953,2.953,0,0,0-.156-2.948,2.853,2.853,0,0,0-1.922-1.273c-1.323-.243-2.1-.205-2.1-.274" fill="#263238"/>
            <path id="Trazado_800148" data-name="Trazado 800148" d="M458.393,124.935s-.041.192-.14.565l-.451,1.662-1.793,6.467c-1.59,5.668-3.914,13.958-6.868,24.493l-.017.062-.058.027a55.162,55.162,0,0,0-13.758,9.177,57.121,57.121,0,0,0-6.406,6.818,67.028,67.028,0,0,0-5.605,8.309,82.558,82.558,0,0,0-8.031,20.343,98.48,98.48,0,0,0-3.1,23.923v.237h-.231l-100.32.029L182.216,227h-.185l-.023-.184c-3.247-26.529-5.3-48.373-6.535-63.575-.621-7.6-1.047-13.543-1.324-17.582-.131-2.013-.23-3.555-.3-4.6s-.081-1.576-.081-1.576.059.533.143,1.571.2,2.59.359,4.6c.331,4.046.816,9.978,1.438,17.571,1.306,15.194,3.419,37.026,6.713,63.544l-.207-.183,129.4-.051,100.32.029-.23.237a98.7,98.7,0,0,1,3.145-24.04,82.8,82.8,0,0,1,8.11-20.428,67.364,67.364,0,0,1,5.657-8.344,57.268,57.268,0,0,1,6.463-6.841,55.286,55.286,0,0,1,13.863-9.183l-.076.089c3.009-10.521,5.376-18.8,6.994-24.458l1.864-6.447c.213-.721.375-1.27.487-1.651s.177-.555.177-.555" fill="#263238"/>
            <path id="Trazado_800149" data-name="Trazado 800149" d="M314.178,130a.9.9,0,0,1-.009.252c-.021.2-.046.435-.078.731q-.127,1.024-.348,2.8c-.164,1.215-.355,2.7-.533,4.437s-.434,3.7-.607,5.886c-.2,2.183-.416,4.574-.567,7.148-.2,2.57-.3,5.322-.433,8.217-.192,5.792-.243,12.166-.031,18.85.24,6.687.722,13.043,1.3,18.81.328,2.88.614,5.62.987,8.171.325,2.557.7,4.928,1.049,7.093.321,2.169.7,4.116,1,5.831s.586,3.189.831,4.391c.227,1.171.407,2.1.537,2.773.052.293.093.531.127.724a.9.9,0,0,1,.026.251.945.945,0,0,1-.078-.239c-.047-.191-.105-.425-.177-.713q-.231-1.007-.633-2.755c-.276-1.2-.6-2.663-.918-4.377s-.737-3.657-1.081-5.825c-.372-2.164-.77-4.536-1.114-7.1-.392-2.553-.7-5.295-1.036-8.179-.61-5.775-1.107-12.144-1.347-18.843-.213-6.7-.147-13.085.071-18.887.146-2.9.263-5.656.482-8.229.17-2.576.407-4.969.632-7.153.2-2.187.473-4.154.684-5.885s.426-3.218.621-4.43c.188-1.179.337-2.112.446-2.791.052-.293.094-.531.129-.724a.875.875,0,0,1,.061-.244" fill="#263238"/>
            <path id="Trazado_800150" data-name="Trazado 800150" d="M174.954,127.153c-3.209,2.4-7.976,3-11.9,2.2s-7.013-2.627-9.025-6.092l8.805-.394Z" fill="#263238"/>
            <path id="Trazado_800151" data-name="Trazado 800151" d="M162.832,122.864s8.875,5.409,11.456,4.672,43.974-33.456,68.951-46.091a29.634,29.634,0,0,0-7.588-1.722S224.028,85.6,209.533,94.329c-11.028,6.638-22.251,13.6-27.5,16.8l-19.2,11.732" fill="#455a64"/>
            <path id="Trazado_800152" data-name="Trazado 800152" d="M191.226,129.806a1.878,1.878,0,0,1-.287.185l-.869.507-3.4,1.929-12.824,7.189-.039.022-.047,0c-8.037-.289-18.359-.5-30.181-.017-5.909.253-12.191.676-18.736,1.344s-13.349,1.6-20.317,2.711c-12.207,1.906-23.725,4.308-34.264,6.241A232.458,232.458,0,0,1,42.018,153.3c-8.092.466-14.655.346-19.181.214-2.264-.068-4.02-.16-5.21-.234l-1.353-.086c-.305-.022-.46-.047-.46-.047s.157-.011.463-.006l1.355.034c1.191.04,2.948.1,5.21.136,4.524.07,11.079.133,19.154-.378a238.794,238.794,0,0,0,28.186-3.492c10.515-1.956,22.05-4.376,34.266-6.284,6.976-1.111,13.792-2.029,20.347-2.7s12.851-1.071,18.769-1.307c11.842-.451,22.174-.19,30.213.159l-.085.02,12.9-7.057,3.438-1.855.89-.468a1.851,1.851,0,0,1,.309-.145" fill="#263238"/>
            <path id="Trazado_800153" data-name="Trazado 800153" d="M200.663,130.836c62.879-2.808,189.716-5.144,252.6-7.952,0,0,2.075-6.906-3.844-11.223-2.16-1.574-15.215-11.449-30.462-17.266a234.266,234.266,0,0,0-58.087-13.566c-11.2-.916-31.687-1.739-31.687-1.739s-37.511,1.5-47.98,2.442A108.281,108.281,0,0,0,243.24,91.865c-13.11,6.489-35.918,25.593-35.918,25.593l-16.037,13.378Z" fill="#455a64"/>
            <path id="Trazado_800154" data-name="Trazado 800154" d="M316.375,77.225,304.24,129.118l22.006-.7,4.378-51.192Z" fill="#263238"/>
            <path id="Trazado_800155" data-name="Trazado 800155" d="M411.514,89.788l-2.139,35.152h3.059l2.07-34.053Z" fill="#263238"/>
            <path id="Trazado_800156" data-name="Trazado 800156" d="M203.036,118.933c.965,1.295,6.554,13.855,6.554,13.855L188.352,131.4Z" fill="#263238"/>
            <path id="Trazado_800157" data-name="Trazado 800157" d="M222.964,131.537l-16.191.451c-2.136-.031-3.814-3.825-3.747-8.474.06-4.157,1.505-7.671,3.4-8.274l15.372-4.879Z" fill="#e8505b"/>
            <path id="Trazado_800158" data-name="Trazado 800158" d="M323.266,76.632c.142.022-1.573,11.849-3.829,26.413s-4.2,26.358-4.345,26.336,1.572-11.847,3.83-26.416,4.2-26.355,4.344-26.333" fill="#455a64"/>
            <path id="Trazado_800159" data-name="Trazado 800159" d="M203.668,118.168a18.935,18.935,0,0,1-2.477,5.341,18.95,18.95,0,0,1-3.612,4.649c-.119-.1,1.5-2.165,3.168-4.92s2.779-5.131,2.921-5.07" fill="#455a64"/>
            <path id="Trazado_800160" data-name="Trazado 800160" d="M293.417,86.663a1.7,1.7,0,0,1-.234.428c-.205.319-.453.7-.753,1.17-.715,1.074-1.673,2.512-2.835,4.259-2.4,3.589-5.715,8.551-9.321,14.065s-6.823,10.542-9.147,14.182l-2.764,4.3-.769,1.16a1.761,1.761,0,0,1-.3.386,1.73,1.73,0,0,1,.209-.441l.686-1.211c.605-1.046,1.5-2.547,2.624-4.393,2.245-3.692,5.416-8.752,9.024-14.272s6.972-10.451,9.453-13.988c1.24-1.769,2.256-3.192,2.972-4.166l.834-1.115c.2-.251.305-.378.32-.368" fill="#ebebeb"/>
            <path id="Trazado_800161" data-name="Trazado 800161" d="M284.185,94.52a75.925,75.925,0,0,1-4.946,7.381,76.084,76.084,0,0,1-5.37,7.08,75.93,75.93,0,0,1,4.946-7.382,76.148,76.148,0,0,1,5.37-7.079" fill="#ebebeb"/>
            <path id="Trazado_800162" data-name="Trazado 800162" d="M603.384,158.64s-5.216.33-9.151-1.361a12.081,12.081,0,0,1-6.269-16.217c.018-.038.036-.075.055-.113a11.3,11.3,0,0,1,9.91-6.4h2.182a13.871,13.871,0,0,1,1.421,5.2c.591,4.776,1.479,12.008,1.852,18.891" fill="#f5f5f5"/>
            <path id="Trazado_800163" data-name="Trazado 800163" d="M372.4,88.348c.121.077-4.68,7.848-10.722,17.355s-11.041,17.154-11.162,17.077,4.678-7.846,10.723-17.356,11.04-17.153,11.161-17.076" fill="#ebebeb"/>
            <path id="Trazado_800164" data-name="Trazado 800164" d="M370.772,98.16a47.272,47.272,0,0,1-3.581,6.03,47.249,47.249,0,0,1-4.018,5.749,47.319,47.319,0,0,1,3.581-6.031,47.374,47.374,0,0,1,4.018-5.748" fill="#ebebeb"/>
            <path id="Trazado_800165" data-name="Trazado 800165" d="M219.251,113.376a27.618,27.618,0,0,1-6.1,2.321,27.6,27.6,0,0,1-6.388,1.328c-.03-.147,2.8-.818,6.242-1.828s6.19-1.961,6.244-1.821" fill="#ebebeb"/>
            <path id="Trazado_800166" data-name="Trazado 800166" d="M306.3,135.351c0,.144-26.389.26-58.935.26s-58.941-.116-58.941-.26,26.384-.26,58.941-.26,58.935.116,58.935.26" fill="#ebebeb"/>
            <path id="Trazado_800167" data-name="Trazado 800167" d="M297.638,145.828a70.637,70.637,0,0,1-8.563.26,70.634,70.634,0,0,1-8.564-.26,70.632,70.632,0,0,1,8.564-.26,70.635,70.635,0,0,1,8.563.26" fill="#ebebeb"/>
            <path id="Trazado_800168" data-name="Trazado 800168" d="M106.015,157.705a3.094,3.094,0,0,1-.654.022c-.428.006-1.057-.037-1.869-.019a55.455,55.455,0,0,0-6.843.421A52.588,52.588,0,0,0,59.24,180.965a55.324,55.324,0,0,0-3.5,5.894c-.387.713-.636,1.292-.837,1.67a3.06,3.06,0,0,1-.319.572,3.163,3.163,0,0,1,.223-.615c.17-.392.391-.986.751-1.716a47.8,47.8,0,0,1,3.378-6.01,51.476,51.476,0,0,1,37.673-23,47.811,47.811,0,0,1,6.889-.257c.814.013,1.443.088,1.87.116a3.072,3.072,0,0,1,.649.083" fill="#ebebeb"/>
            <path id="Trazado_800169" data-name="Trazado 800169" d="M407.439,132.575c0,.144-17.472.26-39.02.26s-39.024-.116-39.024-.26,17.468-.26,39.024-.26,39.02.116,39.02.26" fill="#ebebeb"/>
            <path id="Trazado_800170" data-name="Trazado 800170" d="M441.658,144.293a16.6,16.6,0,0,1-2.82.018c-1.738-.041-4.137-.1-6.787-.112s-5.05.017-6.789.039a16.534,16.534,0,0,1-2.819-.048,13.958,13.958,0,0,1,2.8-.319c1.738-.117,4.146-.207,6.806-.193s5.065.13,6.8.265a14.028,14.028,0,0,1,2.8.35" fill="#ebebeb"/>
          </g>
        </g>
      </g>
    </g>
  </g>
</svg>
